<?xml version="1.0" encoding="utf-8"?>
<!-- Generator: Adobe Illustrator 16.0.0, SVG Export Plug-In . SVG Version: 6.00 Build 0)  -->
<!DOCTYPE svg PUBLIC "-//W3C//DTD SVG 1.1//EN" "http://www.w3.org/Graphics/SVG/1.1/DTD/svg11.dtd">
<svg version="1.1" id="分離模式" xmlns="http://www.w3.org/2000/svg" xmlns:xlink="http://www.w3.org/1999/xlink" x="0px"
	 y="0px" width="4600px" height="5800px" viewBox="0 0 4600 5800" enable-background="new 0 0 4600 5800" xml:space="preserve">
<path fill="#FBD9C4" d="M2154.429,2165.431c-3.428,36.129-21.348,53.916-51.509,72.445c-21.856,13.427-61.96,23.061-78.538,41.508
	c-17.633,19.622-18.078,67.95-17.953,94.046c0.096,20.195-2.111,27.516,19.555,36.498c19.504,8.086,43.851,14.667,65,17.392
	c57.275,7.379,114.865,0.11,172.943,0.11c40.537,0,76.164-1.659,112.502-18.502c8.584-3.979,33.058-10.681,37.993-17.95
	c9.61-14.154-8.364-26.793-15.548-39.993c-13.52-24.841-21.338-48.639-46.943-65.057c-22.717-14.564-43.639-23.694-65-42.993
	c-18.741-16.933-45.357-54.726-32.502-81.505"/>
<g>
	<path fill="#984800" d="M2467.876,835.491c-112.491-161.24-420.937-121.395-649.788,13.409
		c-170.16,100.23-300.785,356.609-271.405,623.35c-150.777,20.63-300.048,175.322-212.636,297.742
		c-11.725,140.717,161.49,202.206,240.045,160.085c48.688,79.903,166.752,80.647,191.536,29.049
		c32.978,18.085,58.818-1.728,78.145-33.002l881.456-272.381C2977.876,1160.491,2560.515,788.449,2467.876,835.491z"/>
	<path fill="#733200" d="M1545.184,1889.344c-64.392,0.004-100.269-32.988-117.389-55.836
		c-19.165-25.573-30.625-59.011-32.269-94.153c-1.603-34.31,6.124-68.251,21.759-95.575c12.222-21.357,29.195-38.338,49.086-49.104
		c22.135-11.982,47.473-16.474,75.31-13.347c6.861,0.77,11.799,6.955,11.028,13.816c-0.77,6.861-6.959,11.796-13.816,11.027
		c-43.196-4.85-78.674,12.918-99.908,50.026c-27.85,48.667-24.059,118.449,8.816,162.318
		c30.512,40.717,81.889,54.859,144.663,39.819c6.714-1.614,13.461,2.529,15.069,9.244c1.608,6.712-2.53,13.46-9.244,15.068
		C1578.754,1887.326,1561.092,1889.342,1545.184,1889.344L1545.184,1889.344z"/>
	<path fill="#733200" d="M1679.168,1909.152c-23.505,0.001-44.529-4.275-62.729-12.778c-21.873-10.221-39.31-26.279-51.822-47.729
		c-36.888-63.228-21.326-156.114,14.244-205.913c4.012-5.617,11.819-6.918,17.437-2.907c5.618,4.014,6.919,11.821,2.907,17.438
		c-31.18,43.651-43.843,125.908-12.994,178.784c15.853,27.174,41.677,43.119,75.697,47.099
		c-12.692-11.619-22.714-24.664-29.621-38.697c-10.514-21.354-13.757-45-9.133-66.577c1.446-6.75,8.089-11.049,14.841-9.603
		c6.751,1.447,11.051,8.091,9.604,14.841c-6.302,29.405,5.872,71.509,58.927,101.499c4.731,2.674,7.193,8.099,6.091,13.419
		c-1.103,5.321-5.518,9.321-10.923,9.894C1693.958,1908.741,1686.441,1909.152,1679.168,1909.152L1679.168,1909.152z"/>
	<path fill="#733200" d="M2732.893,1572.989c-0.589,0-1.184-0.042-1.783-0.126c-6.834-0.977-11.583-7.309-10.607-14.143
		c10.188-71.312,22.462-211.411-9.793-348.495c-30.677-130.377-92.243-217.299-182.984-258.349
		c-6.289-2.845-9.082-10.251-6.236-16.541s10.252-9.082,16.541-6.237c51.748,23.41,95.249,61.042,129.295,111.853
		c29.901,44.625,52.686,99.652,67.72,163.548c13.086,55.617,20.243,117.418,21.269,183.686c0.884,57.04-2.941,117.231-11.061,174.07
		C2744.361,1568.489,2739.013,1572.989,2732.893,1572.989L2732.893,1572.989z"/>
	<path fill="#733200" d="M1664.236,1628.384c-5.92,0-11.066-4.173-12.248-10.03c-11.199-55.556-22.97-142.264-15.447-239.849
		c8.91-115.589,42.522-217.188,99.905-301.978c95.45-141.042,254.984-233.004,474.168-273.334
		c6.794-1.25,13.308,3.242,14.556,10.031c1.25,6.79-3.241,13.307-10.031,14.556c-212.346,39.072-366.436,127.477-457.988,262.759
		c-101.669,150.229-104.999,329.474-92.613,444.747c13.107-60.26,33.923-119.535,62.212-177.006
		c39.728-80.711,93.217-155.96,158.98-223.657c66.009-67.947,142.646-126.487,227.79-173.996
		c87.619-48.893,182.368-85.004,281.612-107.335c6.735-1.512,13.425,2.716,14.94,9.452c1.516,6.736-2.717,13.424-9.451,14.939
		c-390.088,87.77-687.786,391.861-723.945,739.494c-0.64,6.144-5.67,10.898-11.838,11.193
		C1664.638,1628.38,1664.436,1628.384,1664.236,1628.384L1664.236,1628.384z"/>
	<path fill="#CA994F" d="M1562.876,1457.991c0,65,30,165,42.5,200s-25,60-47.5,30s-80-155-72.5-210
		S1550.376,1380.491,1562.876,1457.991z"/>
</g>
<path fill="#FBD9C4" d="M2681.218,1600.468c-0.07-0.757-0.14-1.511-0.209-2.269c-12.047-7.125-82.469-79.016-123.602-137.098
	c-58.605-82.751-75-173.031-75-173.031s-52.5,153.062-207.5,197.429s-471.357,51.694-565.102,61.677
	c-0.982,8.001-2.016,60.615-3.064,68.961c-177.211,0-147.103,205.507-11.597,226.834c37.476,166.37,220.229,339.877,507.007,339.354
	c290.814-0.529,488.285-242.398,488.285-350.526C2837.054,1795.904,2849.663,1595.943,2681.218,1600.468z"/>
<ellipse fill="#F8C8B2" cx="2492.563" cy="1896.763" rx="103.628" ry="94.617"/>
<ellipse fill="#F8C8B2" cx="1901.019" cy="1887.294" rx="108.262" ry="96.062"/>
<path fill="#FBD9C4" d="M2810.942,2687.116l52.727-167.781c0-70,2.5-200,2.5-240s40-25,40,5s0,72.5,0,72.5c40-45,90-150,122.5-127.5
	c52.5-65,162.5-25,107.5,75s-175,252.5-175,252.5l-41.484,160.279L2810.942,2687.116z"/>
<path fill="#D78D66" d="M3042.188,2392.183c2.844,0,5.634-1.376,7.33-3.92c22.238-33.359,74.317-111.48,99.65-133.196
	c3.689-3.162,4.117-8.718,0.954-12.407s-8.719-4.116-12.407-0.954c-27.177,23.295-80.199,102.832-102.842,136.796
	c-2.695,4.044-1.602,9.507,2.441,12.203C3038.815,2391.704,3040.511,2392.183,3042.188,2392.183L3042.188,2392.183z"/>
<path fill="#D78D66" d="M3008.442,2358.434c3.115,0,6.136-1.659,7.732-4.588c21.867-40.085,99.582-136.456,100.365-137.425
	c3.055-3.781,2.464-9.321-1.316-12.375c-3.782-3.054-9.321-2.462-12.375,1.316c-3.235,4.006-79.502,98.589-102.123,140.056
	c-2.328,4.267-0.756,9.611,3.511,11.938C3005.574,2358.087,3007.019,2358.434,3008.442,2358.434L3008.442,2358.434z"/>
<path fill="#D78D66" d="M2974.693,2335.935c2.995,0,5.913-1.528,7.562-4.285l61.467-102.799c2.494-4.171,1.135-9.574-3.037-12.068
	c-4.172-2.495-9.575-1.134-12.068,3.037l-61.467,102.799c-2.494,4.171-1.135,9.574,3.037,12.068
	C2971.601,2335.532,2973.157,2335.935,2974.693,2335.935L2974.693,2335.935z"/>
<path fill="#FFFFFF" d="M2346.716,2362.173l-317.5,10c0,0,115,302.5,215,517.5
	C2389.216,2662.173,2346.716,2362.173,2346.716,2362.173z"/>
<path fill="#B1B1B2" d="M2797.058,2661.776l-76.373,284.703l-193.309-465.961c-28.16-83.346-48.16-180.846-203.16-213.346
	c2.5,327.5,12.5,445-80,605c-77.5-240-167.5-532.5-195-607.5c-127.5,37.5-189.09,157.885-212.223,243.553
	c-31.555,127.939-37.525,408.258-61.262,740.094h156.846l11.639-223.646c15,117.5,15,223.646,15,223.646h462.764
	c-4.414-149.211,57.539-347.457,62.467-425.582c56.246,127.492,104.994,258.734,168.742,367.48
	c45.234,77.164,128.686,51.67,155.02-31.586c26.336-83.258,130.686-451.617,130.686-451.617L2797.058,2661.776z"/>
<path fill="#898989" d="M2244.226,2882.174c1.805,0,3.634-0.488,5.279-1.514c40.545-25.268,76.552-60.949,107.021-106.054
	c24.208-35.835,44.996-77.677,61.788-124.361c28.518-79.29,35.562-144.302,35.848-147.03c0.357-3.405-1.054-6.757-3.738-8.883
	l-45.5-36.021l42.455-14.151c2.678-0.893,4.854-2.876,5.991-5.459c1.137-2.584,1.128-5.527-0.022-8.104l-62.5-140
	c-2.25-5.044-8.164-7.307-13.207-5.056c-5.043,2.252-7.307,8.165-5.056,13.208l58.003,129.926l-49.533,16.511
	c-3.484,1.162-6.052,4.14-6.687,7.757c-0.636,3.617,0.761,7.291,3.642,9.571l55.588,44.007
	c-2.311,17.15-11.082,73.097-34.266,137.405c-25.41,70.487-73.865,165.83-160.404,219.76c-4.688,2.922-6.119,9.089-3.198,13.776
	C2237.624,2880.503,2240.888,2882.174,2244.226,2882.174L2244.226,2882.174z"/>
<path fill="#898989" d="M2244.206,2882.174c3.271,0,6.479-1.604,8.395-4.551c3.01-4.631,1.695-10.825-2.936-13.835
	c-91.4-59.409-208.607-223.001-241.71-386.23l40.918-21.535c3.224-1.697,5.271-5.013,5.341-8.655s-1.845-7.035-5.002-8.856
	l-59.574-34.371l7.053-98.754c0.394-5.509-3.753-10.294-9.262-10.688c-5.531-0.395-10.295,3.754-10.688,9.262l-7.5,105
	c-0.272,3.82,1.66,7.461,4.978,9.375l49.289,28.437l-31.449,16.552c-3.883,2.044-5.98,6.38-5.171,10.692
	c14.304,76.292,49.422,161.221,98.886,239.142c46.669,73.522,102.434,134.537,152.991,167.4
	C2240.448,2881.651,2242.339,2882.174,2244.206,2882.174L2244.206,2882.174z"/>
<path fill="#898989" d="M2246.716,2922.173c-30,0-25,42.5,2.5,42.5S2279.216,2922.173,2246.716,2922.173z"/>
<path fill="#898989" d="M2249.216,3082.173c-30,0-27.5,42.5,0,42.5S2281.716,3082.173,2249.216,3082.173z"/>
<path fill="#898989" d="M2484.454,2832.739c4.48,0,8.559-3.032,9.693-7.576c0.555-2.22,1.128-4.476,1.713-6.776
	c11.543-45.435,27.352-107.658-1.618-248.898c-1.11-5.41-6.391-8.902-11.806-7.787c-5.41,1.109-8.896,6.395-7.786,11.806
	c28.048,136.744,12.892,196.397,1.826,239.955c-0.592,2.326-1.171,4.606-1.731,6.85c-1.34,5.358,1.918,10.788,7.275,12.127
	C2482.835,2832.643,2483.651,2832.739,2484.454,2832.739L2484.454,2832.739z"/>
<path fill="#898989" d="M1944.223,3034.673c5.349,0,9.782-4.232,9.986-9.623l15.255-404.426c0.209-5.519-4.097-10.162-9.615-10.37
	c-0.127-0.005-0.256-0.007-0.385-0.007c-5.348,0-9.781,4.232-9.986,9.623l-15.255,404.426c-0.208,5.519,4.098,10.162,9.616,10.37
	C1943.967,3034.671,1944.095,3034.673,1944.223,3034.673L1944.223,3034.673z"/>
<path fill="none" stroke="#440B06" stroke-width="25" stroke-linecap="round" stroke-linejoin="round" stroke-miterlimit="10" d="
	M1901.019,1749.446c3.336,0,30.336-8.003,55.758-8.08c25.422-0.064,99.945,8.08,99.945,8.08"/>
<path fill="none" stroke="#440B06" stroke-width="25" stroke-linecap="round" stroke-linejoin="round" stroke-miterlimit="10" d="
	M2318.495,1740.522c0,0,44.641-16.063,91.484-8.918c46.82,7.166,92.734,25.755,92.734,25.755"/>
<path fill="none" stroke="#733200" stroke-width="30" stroke-linecap="round" stroke-linejoin="round" stroke-miterlimit="10" d="
	M2272.782,1550.075c0,0,45.688-38.906,132.627-55.198s127.646,16.122,161.459,49.875"/>
<path fill="none" stroke="#733200" stroke-width="30" stroke-linecap="round" stroke-linejoin="round" stroke-miterlimit="10" d="
	M1825.868,1540.314c114.489-89.679,261,4.438,261,4.438"/>
<path fill="none" stroke="#440B06" stroke-width="25" stroke-linecap="round" stroke-linejoin="round" stroke-miterlimit="10" d="
	M1859.868,1668.557c0,0,45.991-50.075,101-46.82c88.984,1.432,101,50.986,101,50.986"/>
<path fill="#440B06" d="M2481.386,1660.481c0,40.469-28.848,73.274-64.433,73.274c-35.586,0-64.433-32.806-64.433-73.274
	s17.833-51.456,64.433-48.276C2463.552,1615.385,2481.386,1620.013,2481.386,1660.481z"/>
<path fill="#440B06" d="M2050.282,1682.9c0,30.755-29.572,55.685-66.051,55.685s-61.232-15.593-66.051-55.685
	c-4.818-40.091,21.291-73.707,66.051-69.227C2028.991,1618.156,2050.282,1652.147,2050.282,1682.9z"/>
<path fill="none" stroke="#440B06" stroke-width="25" stroke-linecap="round" stroke-linejoin="round" stroke-miterlimit="10" d="
	M2286.46,1659.104c0,0,45.305-30.859,64.162-37.491c22.76-8.005,30.333-14.067,69.331-10.943s43.337,8.471,75.573,23.429
	c32.236,14.959,51.92,33.858,51.92,33.858"/>
<path fill="none" stroke="#440B06" stroke-width="25" stroke-linecap="round" stroke-linejoin="round" stroke-miterlimit="10" d="
	M2064.329,1938.271c22.418,6.774,42.595,12.321,66.533,12.752c12.299,0.22,23.752,2.562,36.313,1.627
	c10.246-0.762,18.97-6.481,28.515-5.839c10.127,0.683,21.766,8.084,32.461,9.495c11.215,1.481,23.152,0.4,34.578,0.209
	c11.57-0.195,21.811-1.489,33.059-3.538c4.096-0.745,10.898-1.574,14.779-3.381c3.828-1.78,9.697-9.377,13.803-9.845
	c0.751-0.643,1.607-0.901,2.572-0.772c-15.104,47.607-44.9,93.5-111.298,103.571c-66.396,10.071-98.653-21.724-111.94-35.121
	c-17.424-18.093-40.517-62.468-40.517-62.468"/>
<ellipse fill="#FFFFFF" cx="1963.363" cy="1655.029" rx="19.95" ry="20.781"/>
<ellipse fill="#FFFFFF" cx="2395.93" cy="1647.155" rx="21.256" ry="22.14"/>
<path fill="none" stroke="#440B06" stroke-width="25" stroke-linecap="round" stroke-linejoin="round" stroke-miterlimit="10" d="
	M2218.364,1802.431c9.73,16.972,17.326,35.2,6.943,45.508c-9.917,9.846-38.219,6.691-55.943,7.845"/>
<path fill="none" stroke="#F8C8B2" stroke-width="22" stroke-linecap="round" stroke-linejoin="round" stroke-miterlimit="10" d="
	M2084.393,1787.199c4.235-9.295,21.339-16.737,30.956-21.278c17.593-8.308,36.128-15.774,55.825-19.362
	c13.138-2.394,24.585-0.928,17.468,12.246c-4.489,8.308-18.078,14.792-19.095,23.848c9.598-1.543,20.155-11.216,28.567-15.837
	c10.668-5.858,21.666-11.55,34.282-12.447c31.362-2.231,3.497,22.391,2.124,33.584c16.174,2.026,35.298-20.972,51.817-23.87
	c20.15-3.534,18.055,13.163,18.055,25.779"/>
<path fill="#733200" d="M2055.747,1505.47c-4.783-0.743-8.904-4.227-10.195-9.178c-1.734-6.639,2.277-13.407,8.959-15.114
	c321.406-82.149,387.096-375.31,399.245-525.085c-29.688,56.71-59.116,106.902-89.278,152.34
	c-45.229,68.135-91.104,124.204-140.246,171.409c-54.021,51.895-112.184,92.493-172.867,120.667
	c-66.016,30.647-137.49,47.778-212.443,50.918c-6.898,0.287-12.734-5.032-13.041-11.881c-0.305-6.85,5.039-12.637,11.934-12.927
	c322.926-13.525,500.838-292.062,619.756-533.21c2.561-5.194,8.402-7.929,14.078-6.601c5.674,1.333,9.677,6.383,9.646,12.173
	c-0.335,63.123-7.784,125.118-22.138,184.263c-15.83,65.213-39.719,125.196-71.006,178.282
	c-34.678,58.842-78.348,108.916-129.795,148.832c-56.592,43.907-123.063,75.825-197.568,94.867
	C2059.089,1505.657,2057.38,1505.724,2055.747,1505.47L2055.747,1505.47z"/>
</svg>
