<?xml version="1.0" encoding="utf-8"?>
<!-- Generator: Adobe Illustrator 16.0.0, SVG Export Plug-In . SVG Version: 6.00 Build 0)  -->
<!DOCTYPE svg PUBLIC "-//W3C//DTD SVG 1.1//EN" "http://www.w3.org/Graphics/SVG/1.1/DTD/svg11.dtd">
<svg version="1.1" id="圖層_1" xmlns="http://www.w3.org/2000/svg" xmlns:xlink="http://www.w3.org/1999/xlink" x="0px" y="0px"
	 width="172.813px" height="123.733px" viewBox="0 0 172.813 123.733" enable-background="new 0 0 172.813 123.733"
	 xml:space="preserve">
<g>
	<defs>
		<rect id="SVGID_1_" width="172.813" height="123.733"/>
	</defs>
	<clipPath id="SVGID_2_">
		<use xlink:href="#SVGID_1_"  overflow="visible"/>
	</clipPath>
	<g clip-path="url(#SVGID_2_)">
		<defs>
			<rect id="SVGID_3_" width="172.813" height="123.733"/>
		</defs>
		<clipPath id="SVGID_4_">
			<use xlink:href="#SVGID_3_"  overflow="visible"/>
		</clipPath>
		<g clip-path="url(#SVGID_4_)">
			<g>
				<defs>
					<rect id="SVGID_5_" x="21.785" y="86.122" width="151.028" height="37.611"/>
				</defs>
				<clipPath id="SVGID_6_">
					<use xlink:href="#SVGID_5_"  overflow="visible"/>
				</clipPath>
				<g opacity="0" clip-path="url(#SVGID_6_)">
					<g>
						<defs>
							<rect id="SVGID_7_" x="21.785" y="86.122" width="151.028" height="37.611"/>
						</defs>
						<clipPath id="SVGID_8_">
							<use xlink:href="#SVGID_7_"  overflow="visible"/>
						</clipPath>
						<path clip-path="url(#SVGID_8_)" fill="#FFFFFF" d="M97.103,123.665L97.103,123.665c-18.76-0.389-36.608-2.394-50.254-5.637
							c-16.022-3.816-25.155-9.165-25.062-14.689c0.094-5.493,9.322-10.447,25.325-13.582c13.712-2.687,31.598-3.953,50.379-3.567
							c18.762,0.39,36.615,2.394,50.271,5.644c16.016,3.809,25.146,9.165,25.052,14.684c-0.091,5.493-9.32,10.445-25.317,13.58
							C133.78,122.786,115.882,124.052,97.103,123.665"/>
					</g>
				</g>
				<g opacity="0.0244" clip-path="url(#SVGID_6_)">
					<g>
						<defs>
							<rect id="SVGID_9_" x="23.211" y="86.49" width="148.054" height="36.875"/>
						</defs>
						<clipPath id="SVGID_10_">
							<use xlink:href="#SVGID_9_"  overflow="visible"/>
						</clipPath>
						<path clip-path="url(#SVGID_10_)" fill="#FCFCFE" d="M171.265,106.419c0.055-5.395-8.896-10.626-24.566-14.347
							c-13.4-3.18-30.901-5.139-49.287-5.517c-18.403-0.376-35.93,0.867-49.37,3.5c-15.694,3.074-24.737,7.929-24.83,13.312
							c-0.092,5.413,8.86,10.655,24.574,14.398c13.393,3.184,30.913,5.149,49.321,5.531c18.429,0.38,35.996-0.862,49.457-3.502
							C162.333,116.706,171.337,111.816,171.265,106.419"/>
					</g>
				</g>
				<g opacity="0.0488" clip-path="url(#SVGID_6_)">
					<g>
						<defs>
							<rect id="SVGID_11_" x="24.638" y="86.86" width="145.084" height="36.136"/>
						</defs>
						<clipPath id="SVGID_12_">
							<use xlink:href="#SVGID_11_"  overflow="visible"/>
						</clipPath>
						<path clip-path="url(#SVGID_12_)" fill="#F8FAFC" d="M169.718,106.323c0.014-5.269-8.757-10.377-24.082-14.01
							c-13.144-3.109-30.293-5.023-48.302-5.39c-18.025-0.366-35.194,0.854-48.361,3.434c-15.385,3.014-24.243,7.77-24.334,13.041
							c-0.09,5.302,8.679,10.438,24.083,14.106c13.142,3.124,30.332,5.051,48.39,5.425c18.077,0.373,35.314-0.844,48.522-3.434
							C161.176,116.45,169.955,111.625,169.718,106.323"/>
					</g>
				</g>
				<g opacity="0.0732" clip-path="url(#SVGID_6_)">
					<g>
						<defs>
							<rect id="SVGID_13_" x="26.063" y="87.228" width="142.119" height="35.399"/>
						</defs>
						<clipPath id="SVGID_14_">
							<use xlink:href="#SVGID_13_"  overflow="visible"/>
						</clipPath>
						<path clip-path="url(#SVGID_14_)" fill="#F5F7FB" d="M168.17,106.226c-0.025-5.143-8.617-10.127-23.599-13.674
							c-12.884-3.038-29.683-4.906-47.315-5.264c-17.648-0.353-34.457,0.842-47.354,3.368c-15.074,2.953-23.748,7.611-23.837,12.771
							c-0.088,5.189,8.498,10.219,23.593,13.814c12.891,3.064,29.752,4.954,47.458,5.32c17.727,0.366,34.633-0.827,47.587-3.368
							C160.018,116.194,168.571,111.432,168.17,106.226"/>
					</g>
				</g>
				<g opacity="0.0976" clip-path="url(#SVGID_6_)">
					<g>
						<defs>
							<rect id="SVGID_15_" x="27.489" y="87.598" width="139.16" height="34.661"/>
						</defs>
						<clipPath id="SVGID_16_">
							<use xlink:href="#SVGID_15_"  overflow="visible"/>
						</clipPath>
						<path clip-path="url(#SVGID_16_)" fill="#F2F5F9" d="M166.622,106.128c-0.065-5.016-8.478-9.878-23.112-13.336
							c-12.629-2.968-29.077-4.792-46.332-5.136c-17.271-0.344-33.721,0.825-46.346,3.3c-14.764,2.893-23.254,7.452-23.342,12.501
							c-0.086,5.078,8.319,10.002,23.105,13.522c12.637,3.004,29.171,4.856,46.526,5.215c17.373,0.36,33.948-0.81,46.65-3.3
							C158.857,115.937,167.188,111.24,166.622,106.128"/>
					</g>
				</g>
				<g opacity="0.1219" clip-path="url(#SVGID_6_)">
					<g>
						<defs>
							<rect id="SVGID_17_" x="28.916" y="87.966" width="136.204" height="33.925"/>
						</defs>
						<clipPath id="SVGID_18_">
							<use xlink:href="#SVGID_17_"  overflow="visible"/>
						</clipPath>
						<path clip-path="url(#SVGID_18_)" fill="#EEF2F8" d="M165.074,106.033c-0.104-4.891-8.337-9.63-22.628-13
							c-12.372-2.897-28.469-4.677-45.348-5.01c-16.892-0.332-32.984,0.814-45.337,3.234c-14.454,2.832-22.76,7.292-22.845,12.229
							c-0.085,4.968,8.136,9.784,22.613,13.232c12.387,2.943,28.591,4.758,45.595,5.11c17.021,0.35,33.268-0.795,45.717-3.235
							C157.701,115.68,165.806,111.048,165.074,106.033"/>
					</g>
				</g>
				<g opacity="0.1463" clip-path="url(#SVGID_6_)">
					<g>
						<defs>
							<rect id="SVGID_19_" x="30.342" y="88.335" width="133.254" height="33.188"/>
						</defs>
						<clipPath id="SVGID_20_">
							<use xlink:href="#SVGID_19_"  overflow="visible"/>
						</clipPath>
						<path clip-path="url(#SVGID_20_)" fill="#EBF0F7" d="M163.527,105.936c-0.146-4.765-8.197-9.381-22.146-12.663
							c-12.114-2.827-27.858-4.562-44.36-4.884c-16.516-0.32-32.249,0.801-44.329,3.168c-14.145,2.771-22.267,7.134-22.351,11.961
							c-0.082,4.854,7.957,9.564,22.125,12.938c12.135,2.886,28.01,4.661,44.663,5.005c16.669,0.345,32.586-0.776,44.782-3.168
							C156.543,115.426,164.423,110.856,163.527,105.936"/>
					</g>
				</g>
				<g opacity="0.1707" clip-path="url(#SVGID_6_)">
					<g>
						<defs>
							<rect id="SVGID_21_" x="31.768" y="88.705" width="130.309" height="32.449"/>
						</defs>
						<clipPath id="SVGID_22_">
							<use xlink:href="#SVGID_21_"  overflow="visible"/>
						</clipPath>
						<path clip-path="url(#SVGID_22_)" fill="#E8EDF5" d="M161.979,105.839c-0.187-4.641-8.059-9.132-21.659-12.327
							c-11.859-2.757-27.252-4.444-43.377-4.756c-16.138-0.312-31.512,0.787-43.319,3.102c-13.837,2.71-21.774,6.973-21.856,11.689
							c-0.08,4.743,7.776,9.348,21.635,12.646c11.884,2.826,27.429,4.563,43.73,4.9c16.318,0.338,31.905-0.759,43.847-3.101
							C155.383,115.169,163.04,110.664,161.979,105.839"/>
					</g>
				</g>
				<g opacity="0.1951" clip-path="url(#SVGID_6_)">
					<g>
						<defs>
							<rect id="SVGID_23_" x="33.193" y="89.073" width="127.368" height="31.713"/>
						</defs>
						<clipPath id="SVGID_24_">
							<use xlink:href="#SVGID_23_"  overflow="visible"/>
						</clipPath>
						<path clip-path="url(#SVGID_24_)" fill="#E4EBF4" d="M160.432,105.742c-0.226-4.514-7.918-8.882-21.176-11.989
							c-11.6-2.687-26.643-4.33-42.391-4.631c-15.761-0.299-30.776,0.775-42.312,3.035c-13.526,2.649-21.279,6.814-21.359,11.42
							c-0.079,4.632,7.596,9.13,21.145,12.355c11.631,2.766,26.848,4.466,42.799,4.794c15.967,0.33,31.223-0.741,42.91-3.033
							C154.226,114.914,161.657,110.47,160.432,105.742"/>
					</g>
				</g>
				<g opacity="0.2195" clip-path="url(#SVGID_6_)">
					<g>
						<defs>
							<rect id="SVGID_25_" x="34.62" y="89.442" width="124.434" height="30.976"/>
						</defs>
						<clipPath id="SVGID_26_">
							<use xlink:href="#SVGID_25_"  overflow="visible"/>
						</clipPath>
						<path clip-path="url(#SVGID_26_)" fill="#E1E8F3" d="M158.885,105.645c-0.267-4.388-7.778-8.633-20.69-11.652
							c-11.345-2.617-26.036-4.214-41.408-4.504c-15.382-0.288-30.039,0.761-41.302,2.968c-13.217,2.591-20.786,6.656-20.864,11.15
							c-0.077,4.52,7.415,8.912,20.656,12.064c11.379,2.704,26.267,4.367,41.867,4.689c15.614,0.322,30.541-0.726,41.976-2.968
							C153.067,114.657,160.274,110.279,158.885,105.645"/>
					</g>
				</g>
				<g opacity="0.2439" clip-path="url(#SVGID_6_)">
					<g>
						<defs>
							<rect id="SVGID_27_" x="36.046" y="89.811" width="121.504" height="30.238"/>
						</defs>
						<clipPath id="SVGID_28_">
							<use xlink:href="#SVGID_27_"  overflow="visible"/>
						</clipPath>
						<path clip-path="url(#SVGID_28_)" fill="#DEE6F1" d="M157.337,105.549c-0.306-4.263-7.639-8.384-20.206-11.316
							c-11.087-2.546-25.428-4.099-40.421-4.377c-15.007-0.277-29.304,0.748-40.295,2.902c-12.907,2.528-20.291,6.496-20.368,10.879
							c-0.075,4.408,7.235,8.693,20.166,11.772c11.128,2.645,25.686,4.269,40.936,4.584c15.262,0.315,29.858-0.708,41.041-2.901
							C151.908,114.402,158.892,110.086,157.337,105.549"/>
					</g>
				</g>
				<g opacity="0.2683" clip-path="url(#SVGID_6_)">
					<g>
						<defs>
							<rect id="SVGID_29_" x="37.472" y="90.18" width="118.58" height="29.501"/>
						</defs>
						<clipPath id="SVGID_30_">
							<use xlink:href="#SVGID_29_"  overflow="visible"/>
						</clipPath>
						<path clip-path="url(#SVGID_30_)" fill="#DBE3F0" d="M155.789,105.452c-0.346-4.137-7.492-8.159-19.722-10.979
							c-10.824-2.497-24.818-3.982-39.436-4.25c-14.629-0.267-28.567,0.735-39.287,2.835c-12.598,2.469-19.797,6.336-19.872,10.609
							c-0.074,4.298,7.054,8.476,19.676,11.481c10.876,2.585,25.107,4.171,40.002,4.479c14.912,0.307,29.179-0.693,40.107-2.835
							C150.751,114.144,157.508,109.893,155.789,105.452"/>
					</g>
				</g>
				<g opacity="0.2927" clip-path="url(#SVGID_6_)">
					<g>
						<defs>
							<rect id="SVGID_31_" x="38.897" y="90.548" width="115.661" height="28.764"/>
						</defs>
						<clipPath id="SVGID_32_">
							<use xlink:href="#SVGID_31_"  overflow="visible"/>
						</clipPath>
						<path clip-path="url(#SVGID_32_)" fill="#D7E1EE" d="M154.241,105.355c-0.385-4.011-7.354-7.911-19.236-10.644
							c-10.568-2.428-24.211-3.866-38.452-4.124c-14.251-0.255-27.831,0.724-38.279,2.771c-12.288,2.407-19.303,6.178-19.376,10.338
							c-0.071,4.186,6.874,8.258,19.188,11.189c10.624,2.525,24.525,4.073,39.071,4.374c14.56,0.3,28.495-0.676,39.171-2.769
							C149.592,113.889,156.125,109.702,154.241,105.355"/>
					</g>
				</g>
				<g opacity="0.3171" clip-path="url(#SVGID_6_)">
					<g>
						<defs>
							<rect id="SVGID_33_" x="40.324" y="90.917" width="112.749" height="28.026"/>
						</defs>
						<clipPath id="SVGID_34_">
							<use xlink:href="#SVGID_33_"  overflow="visible"/>
						</clipPath>
						<path clip-path="url(#SVGID_34_)" fill="#D4DEED" d="M152.694,105.258c-0.426-3.885-7.212-7.664-18.753-10.307
							c-10.311-2.358-23.602-3.752-37.468-3.996c-13.873-0.245-27.093,0.708-37.269,2.702c-11.979,2.348-18.809,6.019-18.88,10.068
							c-0.07,4.074,6.693,8.04,18.696,10.897c10.373,2.466,23.945,3.976,38.141,4.269c14.207,0.293,27.812-0.657,38.235-2.701
							C148.433,113.633,154.742,109.51,152.694,105.258"/>
					</g>
				</g>
				<g opacity="0.3415" clip-path="url(#SVGID_6_)">
					<g>
						<defs>
							<rect id="SVGID_35_" x="41.751" y="91.287" width="109.842" height="27.29"/>
						</defs>
						<clipPath id="SVGID_36_">
							<use xlink:href="#SVGID_35_"  overflow="visible"/>
						</clipPath>
						<path clip-path="url(#SVGID_36_)" fill="#D1DCEC" d="M151.146,105.162c-0.464-3.759-7.071-7.417-18.269-9.969
							c-10.053-2.291-22.994-3.636-36.48-3.87C82.9,91.088,70.04,92.017,60.135,93.958c-11.669,2.286-18.315,5.858-18.384,9.798
							c-0.068,3.963,6.513,7.822,18.207,10.606c10.121,2.404,23.364,3.877,37.209,4.163c13.855,0.284,27.13-0.641,37.299-2.636
							C147.275,113.377,153.359,109.318,151.146,105.162"/>
					</g>
				</g>
				<g opacity="0.3659" clip-path="url(#SVGID_6_)">
					<g>
						<defs>
							<rect id="SVGID_37_" x="43.177" y="91.655" width="106.941" height="26.553"/>
						</defs>
						<clipPath id="SVGID_38_">
							<use xlink:href="#SVGID_37_"  overflow="visible"/>
						</clipPath>
						<path clip-path="url(#SVGID_38_)" fill="#CDD9EA" d="M149.6,105.065c-0.505-3.634-6.933-7.171-17.784-9.633
							c-9.795-2.223-22.386-3.52-35.497-3.744c-13.118-0.224-25.62,0.683-35.252,2.569c-11.36,2.228-17.822,5.7-17.889,9.528
							c-0.066,3.852,6.332,7.604,17.717,10.314c9.869,2.346,22.783,3.778,36.275,4.059c13.504,0.277,26.45-0.625,36.366-2.569
							C146.117,113.122,151.976,109.125,149.6,105.065"/>
					</g>
				</g>
				<g opacity="0.3902" clip-path="url(#SVGID_6_)">
					<g>
						<defs>
							<rect id="SVGID_39_" x="44.602" y="92.024" width="104.047" height="25.814"/>
						</defs>
						<clipPath id="SVGID_40_">
							<use xlink:href="#SVGID_39_"  overflow="visible"/>
						</clipPath>
						<path clip-path="url(#SVGID_40_)" fill="#CAD6E9" d="M148.051,104.968c-0.543-3.509-6.791-6.923-17.299-9.296
							c-9.538-2.154-21.777-3.405-34.513-3.617c-12.741-0.212-24.883,0.669-34.244,2.504c-11.049,2.165-17.327,5.539-17.393,9.256
							c-0.064,3.74,6.152,7.386,17.228,10.023c9.617,2.285,22.202,3.682,35.344,3.952c13.151,0.271,25.768-0.606,35.431-2.501
							C144.959,112.865,150.592,108.932,148.051,104.968"/>
					</g>
				</g>
				<g opacity="0.4146" clip-path="url(#SVGID_6_)">
					<g>
						<defs>
							<rect id="SVGID_41_" x="46.028" y="92.393" width="101.158" height="25.078"/>
						</defs>
						<clipPath id="SVGID_42_">
							<use xlink:href="#SVGID_41_"  overflow="visible"/>
						</clipPath>
						<path clip-path="url(#SVGID_42_)" fill="#C7D4E7" d="M146.504,104.872c-0.584-3.383-6.651-6.676-16.814-8.959
							c-9.283-2.086-21.17-3.289-33.527-3.49c-12.363-0.201-24.146,0.655-33.236,2.437c-10.739,2.104-16.833,5.38-16.897,8.986
							c-0.062,3.628,5.972,7.169,16.739,9.731c9.365,2.226,21.622,3.583,34.412,3.848c12.801,0.263,25.086-0.59,34.496-2.435
							C143.801,112.609,149.209,108.741,146.504,104.872"/>
					</g>
				</g>
				<g opacity="0.439" clip-path="url(#SVGID_6_)">
					<g>
						<defs>
							<rect id="SVGID_43_" x="47.454" y="92.761" width="98.277" height="24.341"/>
						</defs>
						<clipPath id="SVGID_44_">
							<use xlink:href="#SVGID_43_"  overflow="visible"/>
						</clipPath>
						<path clip-path="url(#SVGID_44_)" fill="#C3D1E6" d="M144.957,104.775c-0.624-3.257-6.512-6.428-16.33-8.622
							c-9.024-2.019-20.563-3.174-32.542-3.364c-11.987-0.19-23.411,0.643-32.228,2.371c-10.431,2.044-16.339,5.22-16.402,8.716
							c-0.061,3.517,5.791,6.951,16.25,9.439c9.113,2.165,21.04,3.484,33.48,3.742c12.449,0.256,24.404-0.573,33.561-2.367
							C142.643,112.354,147.826,108.547,144.957,104.775"/>
					</g>
				</g>
				<g opacity="0.4634" clip-path="url(#SVGID_6_)">
					<g>
						<defs>
							<rect id="SVGID_45_" x="48.881" y="93.13" width="95.4" height="23.604"/>
						</defs>
						<clipPath id="SVGID_46_">
							<use xlink:href="#SVGID_45_"  overflow="visible"/>
						</clipPath>
						<path clip-path="url(#SVGID_46_)" fill="#C0CFE4" d="M143.408,104.678c-0.663-3.132-6.37-6.181-15.846-8.285
							c-8.767-1.948-19.953-3.059-31.556-3.238c-11.61-0.179-22.675,0.629-31.22,2.305c-10.121,1.983-15.846,5.062-15.905,8.445
							c-0.06,3.405,5.61,6.732,15.758,9.148c8.862,2.104,20.46,3.388,32.548,3.637c12.098,0.249,23.723-0.556,32.625-2.301
							C141.484,112.098,146.443,108.356,143.408,104.678"/>
					</g>
				</g>
				<g opacity="0.4878" clip-path="url(#SVGID_6_)">
					<g>
						<defs>
							<rect id="SVGID_47_" x="50.306" y="93.499" width="92.533" height="22.867"/>
						</defs>
						<clipPath id="SVGID_48_">
							<use xlink:href="#SVGID_47_"  overflow="visible"/>
						</clipPath>
						<path clip-path="url(#SVGID_48_)" fill="#BDCCE3" d="M141.861,104.581c-0.703-3.005-6.231-5.934-15.361-7.948
							c-8.509-1.879-19.346-2.943-30.572-3.112c-11.232-0.168-21.938,0.617-30.212,2.239c-9.81,1.923-15.351,4.902-15.41,8.175
							c-0.056,3.293,5.431,6.515,15.271,8.857c8.61,2.045,19.88,3.289,31.616,3.531c11.746,0.24,23.04-0.539,31.689-2.234
							C140.325,111.841,145.06,108.163,141.861,104.581"/>
					</g>
				</g>
				<g opacity="0.5122" clip-path="url(#SVGID_6_)">
					<g>
						<defs>
							<rect id="SVGID_49_" x="51.732" y="93.868" width="89.671" height="22.13"/>
						</defs>
						<clipPath id="SVGID_50_">
							<use xlink:href="#SVGID_49_"  overflow="visible"/>
						</clipPath>
						<path clip-path="url(#SVGID_50_)" fill="#B9CAE2" d="M140.313,104.484c-0.743-2.879-6.091-5.686-14.876-7.611
							c-8.253-1.811-18.738-2.827-29.587-2.984c-10.854-0.157-21.202,0.604-29.202,2.172c-9.502,1.861-14.858,4.742-14.915,7.904
							c-0.056,3.183,5.25,6.296,14.78,8.565c8.358,1.984,19.299,3.191,30.684,3.426c11.394,0.234,22.359-0.521,30.756-2.167
							C139.167,111.585,143.677,107.971,140.313,104.484"/>
					</g>
				</g>
				<g opacity="0.5366" clip-path="url(#SVGID_6_)">
					<g>
						<defs>
							<rect id="SVGID_51_" x="53.159" y="94.236" width="86.813" height="21.393"/>
						</defs>
						<clipPath id="SVGID_52_">
							<use xlink:href="#SVGID_51_"  overflow="visible"/>
						</clipPath>
						<path clip-path="url(#SVGID_52_)" fill="#B6C7E0" d="M138.766,104.387c-0.782-2.754-5.95-5.438-14.393-7.275
							c-7.996-1.742-18.129-2.711-28.601-2.857c-10.478-0.146-20.466,0.59-28.195,2.105c-9.192,1.801-14.363,4.584-14.417,7.634
							c-0.055,3.071,5.068,6.08,14.29,8.274c8.106,1.925,18.717,3.094,29.752,3.32c11.042,0.228,21.676-0.504,29.82-2.101
							C138.008,111.329,142.293,107.779,138.766,104.387"/>
					</g>
				</g>
				<g opacity="0.561" clip-path="url(#SVGID_6_)">
					<g>
						<defs>
							<rect id="SVGID_53_" x="54.585" y="94.604" width="83.967" height="20.656"/>
						</defs>
						<clipPath id="SVGID_54_">
							<use xlink:href="#SVGID_53_"  overflow="visible"/>
						</clipPath>
						<path clip-path="url(#SVGID_54_)" fill="#B3C5DF" d="M137.219,104.291c-0.823-2.628-5.812-5.188-13.908-6.938
							c-7.738-1.672-17.521-2.596-27.616-2.731c-10.1-0.135-19.73,0.577-27.187,2.04c-8.883,1.74-13.869,4.424-13.922,7.362
							c-0.053,2.959,4.889,5.862,13.801,7.983c7.854,1.865,18.137,2.995,28.82,3.215c10.691,0.221,20.994-0.487,28.886-2.034
							C136.851,111.073,140.91,107.586,137.219,104.291"/>
					</g>
				</g>
				<g opacity="0.5854" clip-path="url(#SVGID_6_)">
					<g>
						<defs>
							<rect id="SVGID_55_" x="56.011" y="94.973" width="81.126" height="19.919"/>
						</defs>
						<clipPath id="SVGID_56_">
							<use xlink:href="#SVGID_55_"  overflow="visible"/>
						</clipPath>
						<path clip-path="url(#SVGID_56_)" fill="#AFC2DE" d="M135.671,104.194c-0.862-2.502-5.671-4.94-13.423-6.603
							c-7.48-1.602-16.913-2.479-26.633-2.604c-9.721-0.124-18.993,0.563-26.177,1.973c-8.574,1.681-13.376,4.265-13.427,7.093
							c-0.051,2.849,4.708,5.644,13.31,7.691c7.604,1.804,17.557,2.897,27.889,3.109c10.34,0.213,20.313-0.472,27.95-1.968
							C135.691,110.817,139.526,107.394,135.671,104.194"/>
					</g>
				</g>
				<g opacity="0.6098" clip-path="url(#SVGID_6_)">
					<g>
						<defs>
							<rect id="SVGID_57_" x="57.437" y="95.341" width="78.293" height="19.183"/>
						</defs>
						<clipPath id="SVGID_58_">
							<use xlink:href="#SVGID_57_"  overflow="visible"/>
						</clipPath>
						<path clip-path="url(#SVGID_58_)" fill="#ACC0DC" d="M134.123,104.097c-0.902-2.377-5.53-4.692-12.938-6.266
							c-7.224-1.532-16.304-2.364-25.646-2.478c-9.346-0.113-18.256,0.551-25.169,1.906c-8.264,1.62-12.882,4.105-12.932,6.823
							c-0.048,2.736,4.528,5.426,12.823,7.399c7.35,1.745,16.975,2.799,26.956,3.004c9.987,0.206,19.632-0.453,27.014-1.9
							C134.533,110.561,138.144,107.202,134.123,104.097"/>
					</g>
				</g>
				<g opacity="0.6341" clip-path="url(#SVGID_6_)">
					<g>
						<defs>
							<rect id="SVGID_59_" x="58.864" y="95.709" width="75.466" height="18.446"/>
						</defs>
						<clipPath id="SVGID_60_">
							<use xlink:href="#SVGID_59_"  overflow="visible"/>
						</clipPath>
						<path clip-path="url(#SVGID_60_)" fill="#A9BDDB" d="M132.576,104c-0.943-2.251-5.393-4.443-12.455-5.928
							c-6.967-1.465-15.696-2.25-24.661-2.353c-8.968-0.103-17.52,0.538-24.161,1.841c-7.953,1.559-12.388,3.946-12.435,6.553
							c-0.048,2.625,4.347,5.206,12.331,7.107c7.1,1.685,16.396,2.701,26.026,2.899c9.634,0.196,18.949-0.438,26.08-1.834
							C133.376,110.305,136.762,107.01,132.576,104"/>
					</g>
				</g>
				<g opacity="0.6585" clip-path="url(#SVGID_6_)">
					<g>
						<defs>
							<rect id="SVGID_61_" x="60.29" y="96.079" width="72.649" height="17.708"/>
						</defs>
						<clipPath id="SVGID_62_">
							<use xlink:href="#SVGID_61_"  overflow="visible"/>
						</clipPath>
						<path clip-path="url(#SVGID_62_)" fill="#A5BADA" d="M131.028,103.904c-0.982-2.126-5.251-4.194-11.971-5.592
							c-6.709-1.395-15.088-2.135-23.676-2.225c-8.59-0.092-16.784,0.524-23.153,1.773c-7.644,1.498-11.893,3.787-11.939,6.282
							c-0.046,2.514,4.167,4.989,11.842,6.816c6.847,1.625,15.814,2.604,25.093,2.793c9.283,0.191,18.268-0.419,25.146-1.767
							C132.217,110.049,135.379,106.818,131.028,103.904"/>
					</g>
				</g>
				<g opacity="0.6829" clip-path="url(#SVGID_6_)">
					<g>
						<defs>
							<rect id="SVGID_63_" x="61.715" y="96.446" width="69.838" height="16.974"/>
						</defs>
						<clipPath id="SVGID_64_">
							<use xlink:href="#SVGID_63_"  overflow="visible"/>
						</clipPath>
						<path clip-path="url(#SVGID_64_)" fill="#A2B8D8" d="M129.48,103.807c-1.021-2-5.111-3.946-11.484-5.255
							c-6.453-1.325-14.48-2.018-22.692-2.1c-8.213-0.08-16.047,0.513-22.144,1.708c-7.335,1.438-11.401,3.627-11.445,6.013
							c-0.044,2.401,3.987,4.771,11.353,6.523c6.596,1.565,15.232,2.506,24.162,2.689c8.932,0.184,17.585-0.403,24.209-1.7
							C131.06,109.793,133.996,106.625,129.48,103.807"/>
					</g>
				</g>
				<g opacity="0.7073" clip-path="url(#SVGID_6_)">
					<g>
						<defs>
							<rect id="SVGID_65_" x="63.142" y="96.815" width="67.036" height="16.235"/>
						</defs>
						<clipPath id="SVGID_66_">
							<use xlink:href="#SVGID_65_"  overflow="visible"/>
						</clipPath>
						<path clip-path="url(#SVGID_66_)" fill="#9FB6D7" d="M127.934,103.71c-1.063-1.874-4.974-3.696-11.001-4.918
							c-6.196-1.256-13.872-1.902-21.706-1.973c-7.836-0.069-15.313,0.498-21.137,1.642c-7.025,1.377-10.905,3.469-10.947,5.742
							c-0.042,2.289,3.805,4.553,10.862,6.231c6.344,1.505,14.653,2.408,23.23,2.584c8.58,0.176,16.903-0.386,23.273-1.634
							C129.9,109.538,132.613,106.433,127.934,103.71"/>
					</g>
				</g>
				<g opacity="0.7317" clip-path="url(#SVGID_6_)">
					<g>
						<defs>
							<rect id="SVGID_67_" x="64.568" y="97.182" width="64.242" height="15.5"/>
						</defs>
						<clipPath id="SVGID_68_">
							<use xlink:href="#SVGID_67_"  overflow="visible"/>
						</clipPath>
						<path clip-path="url(#SVGID_68_)" fill="#9CB3D5" d="M126.386,103.614c-1.104-1.749-4.832-3.446-10.518-4.581
							c-5.938-1.187-13.263-1.787-20.72-1.846c-7.459-0.059-14.575,0.485-20.128,1.573c-6.716,1.318-10.412,3.311-10.452,5.473
							c-0.04,2.179,3.625,4.336,10.373,5.94c6.091,1.446,14.072,2.31,22.298,2.479c8.228,0.169,16.221-0.369,22.338-1.567
							C128.741,109.282,131.229,106.241,126.386,103.614"/>
					</g>
				</g>
				<g opacity="0.7561" clip-path="url(#SVGID_6_)">
					<g>
						<defs>
							<rect id="SVGID_69_" x="65.994" y="97.551" width="61.457" height="14.762"/>
						</defs>
						<clipPath id="SVGID_70_">
							<use xlink:href="#SVGID_69_"  overflow="visible"/>
						</clipPath>
						<path clip-path="url(#SVGID_70_)" fill="#98B0D4" d="M124.838,103.517c-1.143-1.623-4.692-3.198-10.031-4.245
							c-5.683-1.115-12.656-1.671-19.737-1.718c-7.081-0.048-13.837,0.471-19.119,1.507c-6.406,1.257-9.918,3.149-9.957,5.201
							c-0.038,2.067,3.445,4.118,9.884,5.649c5.841,1.386,13.491,2.211,21.366,2.373c7.876,0.161,15.539-0.352,21.404-1.5
							C127.584,109.026,129.847,106.048,124.838,103.517"/>
					</g>
				</g>
				<g opacity="0.7805" clip-path="url(#SVGID_6_)">
					<g>
						<defs>
							<rect id="SVGID_71_" x="67.42" y="97.918" width="58.678" height="14.026"/>
						</defs>
						<clipPath id="SVGID_72_">
							<use xlink:href="#SVGID_71_"  overflow="visible"/>
						</clipPath>
						<path clip-path="url(#SVGID_72_)" fill="#95AED3" d="M123.29,103.42c-1.183-1.498-4.554-2.947-9.547-3.908
							c-5.427-1.044-12.049-1.556-18.753-1.592c-6.701-0.037-13.1,0.458-18.109,1.44c-6.096,1.196-9.424,2.991-9.46,4.932
							c-0.037,1.955,3.264,3.899,9.393,5.356c5.588,1.326,12.911,2.115,20.435,2.269c7.524,0.153,14.856-0.335,20.469-1.435
							C126.426,108.769,128.463,105.856,123.29,103.42"/>
					</g>
				</g>
				<g opacity="0.8049" clip-path="url(#SVGID_6_)">
					<g>
						<defs>
							<rect id="SVGID_73_" x="68.846" y="98.286" width="55.91" height="13.291"/>
						</defs>
						<clipPath id="SVGID_74_">
							<use xlink:href="#SVGID_73_"  overflow="visible"/>
						</clipPath>
						<path clip-path="url(#SVGID_74_)" fill="#92ABD1" d="M121.743,103.323c-1.223-1.371-4.414-2.695-9.063-3.57
							c-5.169-0.974-11.438-1.44-17.766-1.466c-6.326-0.026-12.365,0.445-17.103,1.375c-5.787,1.136-8.929,2.831-8.964,4.661
							c-0.036,1.843,3.083,3.682,8.904,5.064c5.336,1.267,12.329,2.017,19.502,2.163c7.173,0.147,14.176-0.317,19.533-1.366
							C125.267,108.512,127.08,105.664,121.743,103.323"/>
					</g>
				</g>
				<g opacity="0.8293" clip-path="url(#SVGID_6_)">
					<g>
						<defs>
							<rect id="SVGID_75_" x="70.272" y="98.653" width="53.15" height="12.556"/>
						</defs>
						<clipPath id="SVGID_76_">
							<use xlink:href="#SVGID_75_"  overflow="visible"/>
						</clipPath>
						<path clip-path="url(#SVGID_76_)" fill="#8EA9D0" d="M120.195,103.227c-1.262-1.246-4.275-2.445-8.578-3.234
							c-4.912-0.901-10.832-1.325-16.781-1.339c-5.95-0.016-11.629,0.431-16.094,1.308c-5.478,1.075-8.437,2.672-8.47,4.391
							c-0.033,1.731,2.903,3.464,8.415,4.773c5.084,1.206,11.748,1.918,18.571,2.058c6.82,0.14,13.493-0.3,18.598-1.3
							C124.109,108.257,125.697,105.471,120.195,103.227"/>
					</g>
				</g>
				<g opacity="0.8537" clip-path="url(#SVGID_6_)">
					<g>
						<defs>
							<rect id="SVGID_77_" x="71.698" y="99.02" width="50.4" height="11.82"/>
						</defs>
						<clipPath id="SVGID_78_">
							<use xlink:href="#SVGID_77_"  overflow="visible"/>
						</clipPath>
						<path clip-path="url(#SVGID_78_)" fill="#8BA6CE" d="M118.647,103.129c-1.301-1.12-4.136-2.191-8.093-2.896
							c-4.657-0.831-10.224-1.21-15.798-1.213c-5.57-0.004-10.892,0.419-15.085,1.242c-5.168,1.013-7.942,2.512-7.973,4.12
							c-0.031,1.62,2.722,3.246,7.925,4.48c4.834,1.147,11.168,1.821,17.638,1.953c6.471,0.132,12.813-0.284,17.664-1.233
							C122.951,108.001,124.314,105.279,118.647,103.129"/>
					</g>
				</g>
				<g opacity="0.8781" clip-path="url(#SVGID_6_)">
					<g>
						<defs>
							<rect id="SVGID_79_" x="73.124" y="99.386" width="47.659" height="11.086"/>
						</defs>
						<clipPath id="SVGID_80_">
							<use xlink:href="#SVGID_79_"  overflow="visible"/>
						</clipPath>
						<path clip-path="url(#SVGID_80_)" fill="#88A4CD" d="M117.1,103.034c-1.34-0.995-3.996-1.94-7.608-2.563
							c-4.401-0.755-9.616-1.093-14.812-1.085c-5.193,0.006-10.156,0.406-14.077,1.175c-4.858,0.954-7.448,2.354-7.479,3.851
							c-0.029,1.51,2.543,3.028,7.437,4.19c4.581,1.086,10.587,1.723,16.707,1.848c6.118,0.125,12.13-0.269,16.729-1.167
							C121.791,107.746,122.932,105.087,117.1,103.034"/>
					</g>
				</g>
				<g opacity="0.9024" clip-path="url(#SVGID_6_)">
					<g>
						<defs>
							<rect id="SVGID_81_" x="74.55" y="99.752" width="44.924" height="10.351"/>
						</defs>
						<clipPath id="SVGID_82_">
							<use xlink:href="#SVGID_81_"  overflow="visible"/>
						</clipPath>
						<path clip-path="url(#SVGID_82_)" fill="#84A1CB" d="M115.553,102.936c-1.381-0.869-3.858-1.687-7.125-2.225
							c-4.146-0.682-9.008-0.978-13.826-0.959c-4.817,0.019-9.419,0.394-13.069,1.109c-4.549,0.894-6.955,2.194-6.982,3.58
							c-0.028,1.397,2.361,2.81,6.945,3.898c4.33,1.026,10.006,1.625,15.775,1.741c5.766,0.119,11.448-0.25,15.794-1.1
							C120.634,107.49,121.548,104.895,115.553,102.936"/>
					</g>
				</g>
				<g opacity="0.9268" clip-path="url(#SVGID_6_)">
					<g>
						<defs>
							<rect id="SVGID_83_" x="75.976" y="100.118" width="42.202" height="9.617"/>
						</defs>
						<clipPath id="SVGID_84_">
							<use xlink:href="#SVGID_83_"  overflow="visible"/>
						</clipPath>
						<path clip-path="url(#SVGID_84_)" fill="#819FCA" d="M114.005,102.839c-1.421-0.743-3.72-1.433-6.641-1.887
							c-3.888-0.606-8.398-0.862-12.841-0.833c-4.439,0.029-8.683,0.379-12.061,1.043c-4.239,0.832-6.461,2.033-6.486,3.309
							c-0.026,1.286,2.181,2.593,6.456,3.607c4.078,0.967,9.426,1.526,14.843,1.637c5.415,0.11,10.767-0.232,14.858-1.033
							C119.476,107.234,120.165,104.703,114.005,102.839"/>
					</g>
				</g>
				<g opacity="0.9512" clip-path="url(#SVGID_6_)">
					<g>
						<defs>
							<rect id="SVGID_85_" x="77.403" y="100.481" width="39.487" height="8.886"/>
						</defs>
						<clipPath id="SVGID_86_">
							<use xlink:href="#SVGID_85_"  overflow="visible"/>
						</clipPath>
						<path clip-path="url(#SVGID_86_)" fill="#7E9CC9" d="M112.458,102.743c-1.461-0.617-3.581-1.175-6.156-1.55
							c-3.633-0.528-7.79-0.747-11.857-0.707c-4.061,0.04-7.945,0.365-11.051,0.977c-3.93,0.772-5.967,1.876-5.991,3.039
							c-0.024,1.174,2,2.374,5.966,3.315c3.826,0.905,8.846,1.429,13.911,1.53c5.063,0.104,10.084-0.215,13.924-0.966
							C118.316,106.976,118.78,104.51,112.458,102.743"/>
					</g>
				</g>
				<g opacity="0.9756" clip-path="url(#SVGID_6_)">
					<g>
						<defs>
							<rect id="SVGID_87_" x="78.828" y="100.844" width="36.785" height="8.154"/>
						</defs>
						<clipPath id="SVGID_88_">
							<use xlink:href="#SVGID_87_"  overflow="visible"/>
						</clipPath>
						<path clip-path="url(#SVGID_88_)" fill="#7A9AC7" d="M110.909,102.646c-1.499-0.492-3.441-0.919-5.67-1.214
							c-3.378-0.447-7.184-0.631-10.872-0.579c-3.686,0.05-7.21,0.353-10.043,0.91c-3.621,0.711-5.473,1.716-5.496,2.768
							c-0.022,1.063,1.82,2.157,5.477,3.024c3.575,0.846,8.266,1.33,12.979,1.426c4.711,0.096,9.401-0.198,12.987-0.9
							C117.159,106.721,117.397,104.318,110.909,102.646"/>
					</g>
				</g>
				<g clip-path="url(#SVGID_6_)">
					<g>
						<defs>
							<rect id="SVGID_89_" x="80.254" y="101.206" width="34.09" height="7.425"/>
						</defs>
						<clipPath id="SVGID_90_">
							<use xlink:href="#SVGID_89_"  overflow="visible"/>
						</clipPath>
						<path clip-path="url(#SVGID_90_)" fill="#7797C6" d="M109.362,102.549c-6.646-1.58-17.435-1.799-24.108-0.486
							c-6.655,1.308-6.675,3.65-0.012,5.23c6.641,1.57,17.433,1.789,24.099,0.486C116.001,106.465,116.015,104.125,109.362,102.549"
							/>
					</g>
				</g>
			</g>
		</g>
	</g>
	<g clip-path="url(#SVGID_2_)">
		<defs>
			<path id="SVGID_91_" d="M69.75,111.483c-0.307-0.449-0.639-0.805-0.991-1.088c-0.732-0.31-1.461-0.625-2.186-0.946L69.75,111.483
				z M129.857,62.145c-16.461,0.843-23.201,14.936-35.538,23.625c-9.049,6.377-20.23,8.279-31.1,8.707
				c-1.053,0.041-2.371-0.052-3.799-0.144c-4.086-0.264-9.072-0.528-11.314,2.328c-4.255,5.427,10.077,11.837,14.773,12.423
				c2.102,0.263,4.22-0.02,5.88,1.311c8.942,3.782,18.365,6.549,27.944,3.728c8.249-2.428,15.528-5.758,21.898-11.524
				c8.839-7.999,10.047-15.344,21.82-19.912c10.146-3.939,18.233-17.669,29.228-26.595C153.636,61.558,145.497,61.34,129.857,62.145
				"/>
		</defs>
		<clipPath id="SVGID_92_">
			<use xlink:href="#SVGID_91_"  overflow="visible"/>
		</clipPath>
		
			<linearGradient id="SVGID_93_" gradientUnits="userSpaceOnUse" x1="0" y1="123.6118" x2="1" y2="123.6118" gradientTransform="matrix(-40.3672 -40.636 40.6287 -40.3672 -4899.0894 5092.7358)">
			<stop  offset="0" style="stop-color:#B3E0FF"/>
			<stop  offset="0.2099" style="stop-color:#B8C9FB"/>
			<stop  offset="0.5203" style="stop-color:#BEAEF6"/>
			<stop  offset="0.7941" style="stop-color:#C29DF3"/>
			<stop  offset="1" style="stop-color:#C397F2"/>
		</linearGradient>
		<polygon clip-path="url(#SVGID_92_)" fill="url(#SVGID_93_)" points="200.072,86.716 107.162,-6.813 13.428,86.318 
			106.338,179.847 		"/>
	</g>
	<g clip-path="url(#SVGID_2_)">
		<defs>
			<rect id="SVGID_94_" width="172.813" height="123.733"/>
		</defs>
		<clipPath id="SVGID_95_">
			<use xlink:href="#SVGID_94_"  overflow="visible"/>
		</clipPath>
		<g opacity="0.2" clip-path="url(#SVGID_95_)">
			<g>
				<defs>
					<rect id="SVGID_96_" x="57.211" y="65.413" width="95.303" height="40.131"/>
				</defs>
				<clipPath id="SVGID_97_">
					<use xlink:href="#SVGID_96_"  overflow="visible"/>
				</clipPath>
				<path clip-path="url(#SVGID_97_)" fill="#C397F2" d="M69.75,101.747l-3.177-2.033c0.719,0.314,1.441,0.629,2.165,0.934
					C69.098,100.933,69.438,101.292,69.75,101.747"/>
				<path clip-path="url(#SVGID_97_)" fill="#ABB9D3" d="M57.211,97.603c2.25,0.087,4.427,0.326,6.007,0.264
					c10.87-0.429,22.051-2.331,31.1-8.702c12.337-8.693,17.997-18.098,34.456-18.943c6.518-0.337,10.536,1.911,23.741-4.809
					c-1.148,0.139-8.799,10.211-14.151,12.287c-11.772,4.57-10.924,7.163-19.762,15.164c-6.371,5.768-13.651,9.096-21.9,11.523
					c-9.587,2.822-19.017,0.049-27.964-3.739c-1.656-1.313-3.765-1.038-5.858-1.298C61.549,99.184,59.447,98.549,57.211,97.603"/>
			</g>
		</g>
	</g>
	<g clip-path="url(#SVGID_2_)">
		<defs>
			<path id="SVGID_98_" d="M109.327,23.207c-19.749,2.688-41.15,19.67-47.804,37.933c-6.655,18.263,3.959,30.895,23.705,28.207
				c19.748-2.686,43.136-7.49,49.792-25.758c6.319-17.343-4.725-40.585-22.766-40.583C111.299,23.006,110.321,23.072,109.327,23.207
				"/>
		</defs>
		<clipPath id="SVGID_99_">
			<use xlink:href="#SVGID_98_"  overflow="visible"/>
		</clipPath>
		
			<linearGradient id="SVGID_100_" gradientUnits="userSpaceOnUse" x1="0" y1="123.7183" x2="1" y2="123.7183" gradientTransform="matrix(77.2758 0 0 -77.2758 59.5625 9617.9141)">
			<stop  offset="0" style="stop-color:#B3E0FF"/>
			<stop  offset="0.8621" style="stop-color:#E6F0FA"/>
			<stop  offset="1" style="stop-color:#EFF3F9"/>
		</linearGradient>
		<rect x="54.868" y="23.004" clip-path="url(#SVGID_99_)" fill="url(#SVGID_100_)" width="86.471" height="69.031"/>
	</g>
	<g clip-path="url(#SVGID_2_)">
		<defs>
			<rect id="SVGID_101_" width="172.813" height="123.733"/>
		</defs>
		<clipPath id="SVGID_102_">
			<use xlink:href="#SVGID_101_"  overflow="visible"/>
		</clipPath>
		<path clip-path="url(#SVGID_102_)" fill="#EFF3F9" d="M82.015,89.493c0,0,0.554-0.802,1.463-2.236
			c0.913-1.432,2.194-3.488,3.646-5.998c0.74-1.246,1.494-2.623,2.296-4.075c0.824-1.438,1.57-3.024,2.438-4.607
			c0.784-1.628,1.626-3.294,2.412-5.02c0.773-1.728,1.605-3.464,2.291-5.263c0.369-0.889,0.739-1.777,1.106-2.661
			c0.328-0.9,0.656-1.796,0.98-2.685c0.323-0.89,0.644-1.772,0.961-2.644c0.281-0.884,0.558-1.758,0.831-2.618
			c0.271-0.859,0.537-1.706,0.798-2.534c0.224-0.839,0.445-1.659,0.659-2.458c0.216-0.799,0.426-1.577,0.629-2.33
			c0.206-0.752,0.332-1.494,0.493-2.199c0.307-1.417,0.591-2.716,0.841-3.867c0.186-1.164,0.349-2.18,0.483-3.016
			c0.294-1.678,0.462-2.637,0.462-2.637s-0.022,0.973-0.063,2.675c-0.033,0.855-0.072,1.891-0.118,3.08
			c-0.112,1.183-0.279,2.515-0.465,3.97c-0.103,0.727-0.167,1.492-0.311,2.269c-0.157,0.775-0.318,1.577-0.485,2.4
			c-0.168,0.825-0.341,1.672-0.518,2.538c-0.191,0.863-0.466,1.724-0.7,2.611c-0.246,0.885-0.496,1.784-0.749,2.696
			c-0.27,0.905-0.597,1.803-0.911,2.714c-0.321,0.911-0.643,1.827-0.966,2.747c-0.364,0.905-0.731,1.813-1.096,2.721
			c-0.721,1.822-1.588,3.578-2.396,5.325c-0.808,1.749-1.763,3.392-2.607,5.018c-0.923,1.584-1.787,3.129-2.707,4.535
			c-0.452,0.707-0.893,1.395-1.318,2.06c-0.449,0.649-0.883,1.276-1.3,1.878c-0.818,1.213-1.651,2.269-2.362,3.219
			c-0.733,0.938-1.382,1.744-1.936,2.394C82.7,88.797,82.015,89.493,82.015,89.493"/>
		<path clip-path="url(#SVGID_102_)" fill="#EFF3F9" d="M100.873,51.338c0,0,0.263-0.083,0.721-0.23
			c0.462-0.142,1.109-0.356,1.881-0.623c0.774-0.264,1.678-0.57,2.647-0.9c0.961-0.361,1.984-0.744,3.01-1.129
			c1.018-0.399,2.067-0.739,3.001-1.165c0.944-0.406,1.825-0.784,2.581-1.109c1.515-0.65,2.524-1.085,2.524-1.085
			s-0.952,0.546-2.383,1.366c-0.716,0.411-1.553,0.891-2.45,1.405c-0.887,0.537-1.888,0.992-2.862,1.51
			c-0.983,0.504-1.965,1.006-2.887,1.478c-0.937,0.445-1.812,0.86-2.562,1.215c-0.751,0.359-1.378,0.651-1.817,0.844
			c-0.438,0.197-0.688,0.309-0.688,0.309L100.873,51.338z"/>
		<path clip-path="url(#SVGID_102_)" fill="#EFF3F9" d="M92.844,71.156c0,0,5.647-1.645,11.226-3.571
			c1.395-0.479,2.773-0.994,4.076-1.459c1.287-0.506,2.488-0.977,3.517-1.381c1.018-0.432,1.853-0.82,2.445-1.08
			c0.59-0.264,0.927-0.415,0.927-0.415s-0.323,0.178-0.887,0.491c-0.568,0.31-1.37,0.769-2.353,1.291
			c-0.994,0.492-2.155,1.065-3.399,1.682c-1.262,0.575-2.603,1.211-3.956,1.81c-5.409,2.403-10.95,4.545-10.95,4.545L92.844,71.156z
			"/>
		<path clip-path="url(#SVGID_102_)" fill="#EFF3F9" d="M103.355,42.442c0,0-1.309-1.2-2.508-2.492
			c-0.604-0.644-1.185-1.316-1.558-1.867c-0.209-0.257-0.326-0.515-0.406-0.691c-0.083-0.172-0.13-0.27-0.13-0.27
			s0.063,0.091,0.169,0.252c0.104,0.16,0.246,0.385,0.49,0.611c0.438,0.481,1.096,1.053,1.778,1.595
			c1.358,1.094,2.795,2.073,2.795,2.073L103.355,42.442z"/>
		<path clip-path="url(#SVGID_102_)" fill="#EFF3F9" d="M96.433,64.435c0,0-0.623-0.639-1.56-1.599
			c-0.927-0.973-2.181-2.246-3.403-3.554c-1.209-1.327-2.472-2.577-3.324-3.634c-0.86-1.024-1.436-1.707-1.436-1.707
			s0.665,0.596,1.663,1.49c0.966,0.901,2.411,1.978,3.78,3.107c1.386,1.117,2.804,2.2,3.852,3.024
			c1.061,0.819,1.768,1.362,1.768,1.362L96.433,64.435z"/>
	</g>
	<g clip-path="url(#SVGID_2_)">
		<defs>
			<path id="SVGID_103_" d="M0.122,37.904C0.044,38.962,0.004,40.001,0,41.02v0.299c0.043,12.185,5.302,21.766,11.806,32.2
				l0.96,1.11c-1.192-4.696,3.17-8.714,5.486-11.633c3.807-4.803,8.915-10.298,9.121-17.495C27.821,29.607,10.709,14.63,5.32,2.18
				C6.555,14.06,1.004,26.133,0.122,37.904"/>
		</defs>
		<clipPath id="SVGID_104_">
			<use xlink:href="#SVGID_103_"  overflow="visible"/>
		</clipPath>
		
			<linearGradient id="SVGID_105_" gradientUnits="userSpaceOnUse" x1="0" y1="123.8091" x2="1" y2="123.8091" gradientTransform="matrix(34.2753 37.3165 28.9756 -37.9436 -3593.324 4714.6245)">
			<stop  offset="0" style="stop-color:#B3E0FF"/>
			<stop  offset="0.1128" style="stop-color:#B8DDFF"/>
			<stop  offset="0.6219" style="stop-color:#C9D3FF"/>
			<stop  offset="1" style="stop-color:#CFCFFF"/>
		</linearGradient>
		<polygon clip-path="url(#SVGID_104_)" fill="url(#SVGID_105_)" points="12.63,-14.359 58.03,35.07 15.191,91.167 -30.209,41.739 
					"/>
	</g>
	<g clip-path="url(#SVGID_2_)">
		<defs>
			<path id="SVGID_106_" d="M19.22,22.274c-3.109,3.572-6.327,6.908-8.084,11.735c-1.061,2.915-1.884,6.026-2.435,9.164
				c-0.253,1.445-0.451,2.895-0.586,4.339c-0.416,4.406-1.119,11.916,2.591,14.528c1.314,0.923,3.521,1.259,5.048,0.912
				c9.225-2.061,11.823-13.066,12.602-22.716c0.614-7.526,6.513-9.549,5.423-17.06c-0.478-3.279-2.582-12.24-0.191-19.824
				C27.739,8.569,24.393,16.342,19.22,22.274"/>
		</defs>
		<clipPath id="SVGID_107_">
			<use xlink:href="#SVGID_106_"  overflow="visible"/>
		</clipPath>
		
			<linearGradient id="SVGID_108_" gradientUnits="userSpaceOnUse" x1="0" y1="123.6997" x2="1" y2="123.6997" gradientTransform="matrix(17.9527 29.9796 25.7554 -22.783 -3172.3208 2839.2861)">
			<stop  offset="0" style="stop-color:#B3E0FF"/>
			<stop  offset="0.2718" style="stop-color:#92E6E6"/>
			<stop  offset="0.5594" style="stop-color:#76EBD1"/>
			<stop  offset="0.8119" style="stop-color:#65EEC5"/>
			<stop  offset="1" style="stop-color:#5FEFC0"/>
		</linearGradient>
		<polygon clip-path="url(#SVGID_107_)" fill="url(#SVGID_108_)" points="25.217,-12.766 58.336,42.54 16.648,79.417 
			-16.471,24.111 		"/>
	</g>
	<g clip-path="url(#SVGID_2_)">
		<defs>
			<path id="SVGID_109_" d="M22.424,34.453c-3.113,6.358-1.556,14.643-0.721,21.429c0.512,4.125,2.143,10.618-0.934,13.848
				l1.266-0.298c10.809-4.912,19.977-9.974,25.45-22.654C52.141,35.997,57.336,9.406,63.715,0
				C53.783,7.016,29.292,20.415,22.424,34.453"/>
		</defs>
		<clipPath id="SVGID_110_">
			<use xlink:href="#SVGID_109_"  overflow="visible"/>
		</clipPath>
		
			<linearGradient id="SVGID_111_" gradientUnits="userSpaceOnUse" x1="-4.882813e-004" y1="123.6909" x2="0.9995" y2="123.6909" gradientTransform="matrix(-38.6587 72.9212 -59.5335 -44.3264 7424.8208 5480.8159)">
			<stop  offset="0" style="stop-color:#B3E0FF"/>
			<stop  offset="0.1023" style="stop-color:#BCE3FE"/>
			<stop  offset="0.4561" style="stop-color:#D8ECFB"/>
			<stop  offset="0.7671" style="stop-color:#E9F1FA"/>
			<stop  offset="1" style="stop-color:#EFF3F9"/>
		</linearGradient>
		<polygon clip-path="url(#SVGID_110_)" fill="url(#SVGID_111_)" points="31.878,-23.705 -7.194,49.996 51.148,93.435 90.22,19.734 
					"/>
	</g>
	<g clip-path="url(#SVGID_2_)">
		<defs>
			<path id="SVGID_112_" d="M36.28,44.48c-8.763,8.624-10.307,20.239-11.265,33.749l0.116,1.535c1.487-3.523,5.82-3.514,9.233-3.503
				c0.622,0.001,1.214,0.003,1.752-0.017c5.749-0.213,12.918,0.162,17.209-4.589c9.476-10.504,4.634-34.543,7.546-47.392
				C55.019,33.376,43.729,37.148,36.28,44.48"/>
		</defs>
		<clipPath id="SVGID_113_">
			<use xlink:href="#SVGID_112_"  overflow="visible"/>
		</clipPath>
		
			<linearGradient id="SVGID_114_" gradientUnits="userSpaceOnUse" x1="0" y1="123.7563" x2="1" y2="123.7563" gradientTransform="matrix(19.9302 23.9914 18.7896 -21.8828 -2288.4592 2751.7437)">
			<stop  offset="0" style="stop-color:#B3E0FF"/>
			<stop  offset="0.1128" style="stop-color:#B8DDFF"/>
			<stop  offset="0.6219" style="stop-color:#C9D3FF"/>
			<stop  offset="1" style="stop-color:#CFCFFF"/>
		</linearGradient>
		<polygon clip-path="url(#SVGID_113_)" fill="url(#SVGID_114_)" points="44.22,1.897 86.234,52.473 43.596,102.13 1.582,51.555 		
			"/>
	</g>
	<g clip-path="url(#SVGID_2_)">
		<defs>
			<rect id="SVGID_115_" width="172.813" height="123.733"/>
		</defs>
		<clipPath id="SVGID_116_">
			<use xlink:href="#SVGID_115_"  overflow="visible"/>
		</clipPath>
		<path clip-path="url(#SVGID_116_)" fill="#B3E0FF" d="M34.814,67.252c-0.783,0.63-1.538,1.301-2.262,1.988
			c-4.105,3.927-10.801,11.699-4.013,17.814c2.607,2.35,7.784,2.683,10.773,2.789c4.923,0.17,8.585-2.336,11.863-6.271
			c4.809-5.768,8.487-8.428,15.669-9.395c2.395-0.325,4.866-1.75,7.298-1.584c-7.71-1.207-14.008-7.944-21.534-10.151
			C46.158,60.549,39.896,63.149,34.814,67.252"/>
	</g>
</g>
</svg>
