<?xml version="1.0" encoding="utf-8"?>
<!-- Generator: Adobe Illustrator 16.0.0, SVG Export Plug-In . SVG Version: 6.00 Build 0)  -->
<!DOCTYPE svg PUBLIC "-//W3C//DTD SVG 1.1//EN" "http://www.w3.org/Graphics/SVG/1.1/DTD/svg11.dtd">
<svg version="1.1" id="圖層_1" xmlns="http://www.w3.org/2000/svg" xmlns:xlink="http://www.w3.org/1999/xlink" x="0px" y="0px"
	 width="210.364px" height="147.267px" viewBox="0 0 210.364 147.267" enable-background="new 0 0 210.364 147.267"
	 xml:space="preserve">
<g>
	<defs>
		<rect id="SVGID_1_" width="210.364" height="147.267"/>
	</defs>
	<clipPath id="SVGID_2_">
		<use xlink:href="#SVGID_1_"  overflow="visible"/>
	</clipPath>
	<g clip-path="url(#SVGID_2_)">
		<defs>
			<rect id="SVGID_3_" width="210.364" height="147.267"/>
		</defs>
		<clipPath id="SVGID_4_">
			<use xlink:href="#SVGID_3_"  overflow="visible"/>
		</clipPath>
		<g opacity="0.6" clip-path="url(#SVGID_4_)">
			<g>
				<defs>
					<rect id="SVGID_5_" x="9.325" y="109.208" width="152.832" height="38.06"/>
				</defs>
				<clipPath id="SVGID_6_">
					<use xlink:href="#SVGID_5_"  overflow="visible"/>
				</clipPath>
				<g opacity="0" clip-path="url(#SVGID_6_)">
					<g>
						<defs>
							<rect id="SVGID_7_" x="9.325" y="109.208" width="152.832" height="38.06"/>
						</defs>
						<clipPath id="SVGID_8_">
							<use xlink:href="#SVGID_7_"  overflow="visible"/>
						</clipPath>
						<path clip-path="url(#SVGID_8_)" fill="#FFFFFF" d="M85.541,147.198L85.541,147.198c-18.983-0.395-37.044-2.42-50.854-5.705
							c-16.215-3.857-25.457-9.273-25.361-14.863c0.096-5.559,9.435-10.57,25.628-13.744c13.872-2.72,31.975-3.999,50.979-3.608
							c18.986,0.394,37.053,2.422,50.874,5.712c16.205,3.852,25.442,9.272,25.35,14.857c-0.092,5.561-9.433,10.569-25.62,13.741
							C122.657,146.308,104.545,147.59,85.541,147.198"/>
					</g>
				</g>
				<g opacity="0.0244" clip-path="url(#SVGID_6_)">
					<g>
						<defs>
							<rect id="SVGID_9_" x="10.768" y="109.582" width="149.822" height="37.313"/>
						</defs>
						<clipPath id="SVGID_10_">
							<use xlink:href="#SVGID_9_"  overflow="visible"/>
						</clipPath>
						<path clip-path="url(#SVGID_10_)" fill="#FCFCFE" d="M160.59,129.748c0.053-5.458-9.003-10.753-24.859-14.516
							c-13.56-3.219-31.272-5.202-49.876-5.584c-18.622-0.379-36.362,0.875-49.958,3.541c-15.881,3.112-25.033,8.024-25.127,13.471
							c-0.094,5.477,8.964,10.784,24.865,14.568c13.556,3.224,31.283,5.211,49.911,5.599c18.649,0.385,36.427-0.873,50.05-3.543
							C151.551,140.156,160.665,135.212,160.59,129.748"/>
					</g>
				</g>
				<g opacity="0.0488" clip-path="url(#SVGID_6_)">
					<g>
						<defs>
							<rect id="SVGID_11_" x="12.211" y="109.955" width="146.818" height="36.566"/>
						</defs>
						<clipPath id="SVGID_12_">
							<use xlink:href="#SVGID_11_"  overflow="visible"/>
						</clipPath>
						<path clip-path="url(#SVGID_12_)" fill="#F8FAFC" d="M159.024,129.651c0.012-5.332-8.861-10.502-24.369-14.177
							c-13.301-3.147-30.657-5.084-48.881-5.455c-18.239-0.369-35.616,0.862-48.938,3.474c-15.566,3.051-24.532,7.863-24.625,13.197
							c-0.091,5.364,8.782,10.563,24.371,14.272c13.3,3.164,30.695,5.113,48.967,5.492c18.293,0.378,35.737-0.855,49.104-3.476
							C150.379,139.898,159.265,135.017,159.024,129.651"/>
					</g>
				</g>
				<g opacity="0.0732" clip-path="url(#SVGID_6_)">
					<g>
						<defs>
							<rect id="SVGID_13_" x="13.654" y="110.328" width="143.817" height="35.821"/>
						</defs>
						<clipPath id="SVGID_14_">
							<use xlink:href="#SVGID_13_"  overflow="visible"/>
						</clipPath>
						<path clip-path="url(#SVGID_14_)" fill="#F5F7FB" d="M157.458,129.552c-0.028-5.204-8.72-10.249-23.878-13.835
							c-13.041-3.076-30.042-4.967-47.884-5.328c-17.858-0.356-34.871,0.851-47.918,3.407c-15.253,2.99-24.032,7.702-24.123,12.924
							c-0.09,5.251,8.599,10.343,23.874,13.979c13.046,3.103,30.109,5.013,48.026,5.385c17.936,0.37,35.047-0.838,48.156-3.408
							C149.208,139.638,157.866,134.824,157.458,129.552"/>
					</g>
				</g>
				<g opacity="0.0976" clip-path="url(#SVGID_6_)">
					<g>
						<defs>
							<rect id="SVGID_15_" x="15.098" y="110.701" width="140.821" height="35.076"/>
						</defs>
						<clipPath id="SVGID_16_">
							<use xlink:href="#SVGID_15_"  overflow="visible"/>
						</clipPath>
						<path clip-path="url(#SVGID_16_)" fill="#F2F5F9" d="M155.892,129.454c-0.067-5.076-8.578-9.997-23.388-13.494
							c-12.78-3.005-29.425-4.85-46.887-5.199c-17.476-0.347-34.125,0.836-46.897,3.339c-14.94,2.93-23.533,7.542-23.621,12.651
							c-0.088,5.138,8.415,10.122,23.378,13.682c12.791,3.042,29.52,4.915,47.083,5.28c17.58,0.362,34.355-0.821,47.21-3.341
							C148.036,139.379,156.466,134.627,155.892,129.454"/>
					</g>
				</g>
				<g opacity="0.1219" clip-path="url(#SVGID_6_)">
					<g>
						<defs>
							<rect id="SVGID_17_" x="16.541" y="111.075" width="137.832" height="34.328"/>
						</defs>
						<clipPath id="SVGID_18_">
							<use xlink:href="#SVGID_17_"  overflow="visible"/>
						</clipPath>
						<path clip-path="url(#SVGID_18_)" fill="#EEF2F8" d="M154.326,129.357c-0.108-4.95-8.438-9.745-22.898-13.154
							c-12.521-2.934-28.81-4.733-45.89-5.071c-17.095-0.336-33.381,0.822-45.877,3.272c-14.628,2.867-23.033,7.38-23.12,12.377
							c-0.086,5.025,8.233,9.901,22.884,13.387c12.536,2.982,28.932,4.816,46.138,5.173c17.225,0.355,33.667-0.804,46.265-3.272
							C146.863,139.121,155.066,134.434,154.326,129.357"/>
					</g>
				</g>
				<g opacity="0.1463" clip-path="url(#SVGID_6_)">
					<g>
						<defs>
							<rect id="SVGID_19_" x="17.984" y="111.448" width="134.846" height="33.583"/>
						</defs>
						<clipPath id="SVGID_20_">
							<use xlink:href="#SVGID_19_"  overflow="visible"/>
						</clipPath>
						<path clip-path="url(#SVGID_20_)" fill="#EBF0F7" d="M152.76,129.258c-0.148-4.822-8.295-9.492-22.407-12.813
							c-12.261-2.861-28.196-4.615-44.894-4.942c-16.713-0.324-32.635,0.81-44.856,3.205c-14.314,2.806-22.533,7.219-22.618,12.104
							c-0.085,4.912,8.05,9.681,22.387,13.092c12.283,2.922,28.345,4.717,45.198,5.066c16.868,0.348,32.975-0.787,45.317-3.205
							C145.691,138.862,153.667,134.24,152.76,129.258"/>
					</g>
				</g>
				<g opacity="0.1707" clip-path="url(#SVGID_6_)">
					<g>
						<defs>
							<rect id="SVGID_21_" x="19.426" y="111.822" width="131.866" height="32.836"/>
						</defs>
						<clipPath id="SVGID_22_">
							<use xlink:href="#SVGID_21_"  overflow="visible"/>
						</clipPath>
						<path clip-path="url(#SVGID_22_)" fill="#E8EDF5" d="M151.193,129.161c-0.188-4.695-8.153-9.241-21.917-12.473
							c-12-2.791-27.579-4.499-43.896-4.814c-16.331-0.313-31.89,0.795-43.836,3.138c-14.001,2.744-22.034,7.058-22.118,11.829
							c-0.082,4.801,7.869,9.461,21.893,12.799c12.026,2.859,27.758,4.616,44.254,4.959c16.513,0.34,32.286-0.771,44.371-3.139
							C144.52,138.602,152.268,134.044,151.193,129.161"/>
					</g>
				</g>
				<g opacity="0.1951" clip-path="url(#SVGID_6_)">
					<g>
						<defs>
							<rect id="SVGID_23_" x="20.869" y="112.194" width="128.89" height="32.091"/>
						</defs>
						<clipPath id="SVGID_24_">
							<use xlink:href="#SVGID_23_"  overflow="visible"/>
						</clipPath>
						<path clip-path="url(#SVGID_24_)" fill="#E4EBF4" d="M149.627,129.063c-0.229-4.569-8.012-8.989-21.427-12.132
							c-11.74-2.72-26.964-4.383-42.899-4.688c-15.949-0.302-31.145,0.783-42.817,3.071c-13.687,2.683-21.533,6.896-21.614,11.556
							c-0.081,4.688,7.686,9.24,21.398,12.502c11.771,2.8,27.169,4.519,43.31,4.854c16.156,0.333,31.596-0.752,43.425-3.071
							C143.347,138.343,150.867,133.85,149.627,129.063"/>
					</g>
				</g>
				<g opacity="0.2195" clip-path="url(#SVGID_6_)">
					<g>
						<defs>
							<rect id="SVGID_25_" x="22.312" y="112.568" width="125.922" height="31.345"/>
						</defs>
						<clipPath id="SVGID_26_">
							<use xlink:href="#SVGID_25_"  overflow="visible"/>
						</clipPath>
						<path clip-path="url(#SVGID_26_)" fill="#E1E8F3" d="M148.063,128.964c-0.271-4.441-7.871-8.736-20.937-11.79
							c-11.481-2.647-26.35-4.266-41.904-4.56c-15.566-0.291-30.399,0.77-41.795,3.004c-13.374,2.622-21.034,6.734-21.114,11.283
							c-0.078,4.573,7.504,9.019,20.902,12.206c11.517,2.739,26.582,4.42,42.368,4.747c15.8,0.325,30.906-0.735,42.478-3.003
							C142.175,138.084,149.468,133.655,148.063,128.964"/>
					</g>
				</g>
				<g opacity="0.2439" clip-path="url(#SVGID_6_)">
					<g>
						<defs>
							<rect id="SVGID_27_" x="23.755" y="112.941" width="122.957" height="30.599"/>
						</defs>
						<clipPath id="SVGID_28_">
							<use xlink:href="#SVGID_27_"  overflow="visible"/>
						</clipPath>
						<path clip-path="url(#SVGID_28_)" fill="#DEE6F1" d="M146.496,128.868c-0.311-4.314-7.729-8.485-20.446-11.451
							c-11.221-2.576-25.733-4.148-40.908-4.431c-15.184-0.28-29.654,0.756-40.774,2.937c-13.06,2.561-20.534,6.574-20.612,11.009
							c-0.076,4.462,7.321,8.799,20.406,11.912c11.263,2.679,25.994,4.32,41.425,4.64c15.445,0.319,30.217-0.717,41.532-2.936
							C141.003,137.826,148.068,133.46,146.496,128.868"/>
					</g>
				</g>
				<g opacity="0.2683" clip-path="url(#SVGID_6_)">
					<g>
						<defs>
							<rect id="SVGID_29_" x="25.199" y="113.315" width="119.998" height="29.852"/>
						</defs>
						<clipPath id="SVGID_30_">
							<use xlink:href="#SVGID_29_"  overflow="visible"/>
						</clipPath>
						<path clip-path="url(#SVGID_30_)" fill="#DBE3F0" d="M144.93,128.769c-0.35-4.187-7.588-8.232-19.957-11.109
							c-10.959-2.506-25.116-4.032-39.908-4.303c-14.804-0.269-28.909,0.743-39.756,2.869c-12.748,2.499-20.033,6.413-20.109,10.735
							c-0.076,4.349,7.137,8.579,19.911,11.617c11.006,2.617,25.406,4.221,40.481,4.533c15.089,0.311,29.526-0.701,40.586-2.868
							C139.83,137.567,146.668,133.266,144.93,128.769"/>
					</g>
				</g>
				<g opacity="0.2927" clip-path="url(#SVGID_6_)">
					<g>
						<defs>
							<rect id="SVGID_31_" x="26.642" y="113.687" width="117.042" height="29.107"/>
						</defs>
						<clipPath id="SVGID_32_">
							<use xlink:href="#SVGID_31_"  overflow="visible"/>
						</clipPath>
						<path clip-path="url(#SVGID_32_)" fill="#D7E1EE" d="M143.363,128.67c-0.391-4.06-7.439-8.006-19.466-10.769
							c-10.695-2.457-24.502-3.915-38.913-4.175c-14.421-0.258-28.163,0.729-38.734,2.803c-12.435,2.438-19.533,6.251-19.608,10.462
							c-0.074,4.235,6.955,8.357,19.415,11.321c10.753,2.557,24.819,4.122,39.538,4.428c14.734,0.303,28.836-0.684,39.641-2.801
							C138.658,137.307,145.269,133.071,143.363,128.67"/>
					</g>
				</g>
				<g opacity="0.3171" clip-path="url(#SVGID_6_)">
					<g>
						<defs>
							<rect id="SVGID_33_" x="28.084" y="114.06" width="114.097" height="28.361"/>
						</defs>
						<clipPath id="SVGID_34_">
							<use xlink:href="#SVGID_33_"  overflow="visible"/>
						</clipPath>
						<path clip-path="url(#SVGID_34_)" fill="#D4DEED" d="M141.798,128.573c-0.431-3.933-7.299-7.756-18.976-10.428
							c-10.435-2.389-23.886-3.798-37.917-4.047c-14.04-0.246-27.418,0.717-37.714,2.735c-12.122,2.377-19.035,6.09-19.107,10.188
							c-0.071,4.123,6.773,8.137,18.92,11.026c10.498,2.496,24.231,4.022,38.596,4.32c14.378,0.296,28.146-0.666,38.694-2.732
							C137.486,137.048,143.869,132.876,141.798,128.573"/>
					</g>
				</g>
				<g opacity="0.3415" clip-path="url(#SVGID_6_)">
					<g>
						<defs>
							<rect id="SVGID_35_" x="29.528" y="114.435" width="111.156" height="27.613"/>
						</defs>
						<clipPath id="SVGID_36_">
							<use xlink:href="#SVGID_35_"  overflow="visible"/>
						</clipPath>
						<path clip-path="url(#SVGID_36_)" fill="#D1DCEC" d="M140.232,128.475c-0.472-3.806-7.157-7.505-18.486-10.087
							c-10.174-2.318-23.271-3.681-36.918-3.918c-13.658-0.235-26.673,0.702-36.694,2.667c-11.808,2.315-18.534,5.93-18.605,9.916
							c-0.069,4.009,6.591,7.916,18.425,10.73c10.243,2.436,23.643,3.924,37.652,4.214c14.022,0.289,27.456-0.649,37.748-2.666
							C136.314,136.79,142.47,132.682,140.232,128.475"/>
					</g>
				</g>
				<g opacity="0.3659" clip-path="url(#SVGID_6_)">
					<g>
						<defs>
							<rect id="SVGID_37_" x="30.97" y="114.807" width="108.221" height="26.868"/>
						</defs>
						<clipPath id="SVGID_38_">
							<use xlink:href="#SVGID_37_"  overflow="visible"/>
						</clipPath>
						<path clip-path="url(#SVGID_38_)" fill="#CDD9EA" d="M138.666,128.377c-0.512-3.679-7.015-7.256-17.995-9.747
							c-9.914-2.249-22.656-3.563-35.923-3.79c-13.275-0.225-25.928,0.689-35.674,2.601c-11.494,2.254-18.034,5.769-18.103,9.642
							c-0.067,3.896,6.408,7.695,17.929,10.436c9.989,2.375,23.056,3.825,36.709,4.107c13.666,0.281,26.767-0.632,36.802-2.598
							C135.144,136.53,141.07,132.487,138.666,128.377"/>
					</g>
				</g>
				<g opacity="0.3902" clip-path="url(#SVGID_6_)">
					<g>
						<defs>
							<rect id="SVGID_39_" x="32.414" y="115.18" width="105.291" height="26.123"/>
						</defs>
						<clipPath id="SVGID_40_">
							<use xlink:href="#SVGID_39_"  overflow="visible"/>
						</clipPath>
						<path clip-path="url(#SVGID_40_)" fill="#CAD6E9" d="M137.1,128.279c-0.552-3.551-6.873-7.005-17.505-9.405
							c-9.654-2.18-22.04-3.447-34.926-3.662c-12.893-0.214-25.182,0.676-34.653,2.533c-11.182,2.192-17.535,5.606-17.602,9.368
							c-0.066,3.783,6.225,7.475,17.434,10.141c9.733,2.313,22.468,3.726,35.767,4.001c13.309,0.273,26.076-0.615,35.854-2.531
							C133.97,136.271,139.67,132.292,137.1,128.279"/>
					</g>
				</g>
				<g opacity="0.4146" clip-path="url(#SVGID_6_)">
					<g>
						<defs>
							<rect id="SVGID_41_" x="33.857" y="115.553" width="102.367" height="25.377"/>
						</defs>
						<clipPath id="SVGID_42_">
							<use xlink:href="#SVGID_41_"  overflow="visible"/>
						</clipPath>
						<path clip-path="url(#SVGID_42_)" fill="#C7D4E7" d="M135.533,128.181c-0.592-3.424-6.73-6.756-17.015-9.065
							c-9.393-2.109-21.424-3.329-33.928-3.533c-12.512-0.203-24.438,0.662-33.633,2.466c-10.868,2.132-17.034,5.446-17.1,9.095
							c-0.064,3.671,6.043,7.254,16.939,9.846c9.477,2.254,21.88,3.627,34.823,3.895c12.953,0.267,25.387-0.598,34.908-2.464
							C132.798,136.012,138.271,132.098,135.533,128.181"/>
					</g>
				</g>
				<g opacity="0.439" clip-path="url(#SVGID_6_)">
					<g>
						<defs>
							<rect id="SVGID_43_" x="35.3" y="115.927" width="99.451" height="24.631"/>
						</defs>
						<clipPath id="SVGID_44_">
							<use xlink:href="#SVGID_43_"  overflow="visible"/>
						</clipPath>
						<path clip-path="url(#SVGID_44_)" fill="#C3D1E6" d="M133.968,128.083c-0.632-3.297-6.59-6.505-16.524-8.725
							c-9.132-2.041-20.809-3.214-32.932-3.405c-12.131-0.191-23.692,0.649-32.613,2.398c-10.555,2.07-16.535,5.285-16.598,8.821
							c-0.062,3.558,5.859,7.034,16.442,9.55c9.224,2.193,21.293,3.528,33.881,3.789c12.598,0.26,24.696-0.581,33.962-2.396
							C131.626,135.753,136.871,131.904,133.968,128.083"/>
					</g>
				</g>
				<g opacity="0.4634" clip-path="url(#SVGID_6_)">
					<g>
						<defs>
							<rect id="SVGID_45_" x="36.744" y="116.299" width="96.541" height="23.886"/>
						</defs>
						<clipPath id="SVGID_46_">
							<use xlink:href="#SVGID_45_"  overflow="visible"/>
						</clipPath>
						<path clip-path="url(#SVGID_46_)" fill="#C0CFE4" d="M132.401,127.985c-0.673-3.169-6.447-6.253-16.034-8.383
							c-8.872-1.971-20.194-3.096-31.935-3.277c-11.749-0.182-22.947,0.636-31.593,2.331c-10.242,2.009-16.035,5.123-16.095,8.548
							c-0.061,3.445,5.677,6.813,15.946,9.255c8.969,2.132,20.705,3.429,32.939,3.682c12.241,0.252,24.005-0.563,33.015-2.329
							C130.453,135.495,135.471,131.709,132.401,127.985"/>
					</g>
				</g>
				<g opacity="0.4878" clip-path="url(#SVGID_6_)">
					<g>
						<defs>
							<rect id="SVGID_47_" x="38.186" y="116.672" width="93.638" height="23.139"/>
						</defs>
						<clipPath id="SVGID_48_">
							<use xlink:href="#SVGID_47_"  overflow="visible"/>
						</clipPath>
						<path clip-path="url(#SVGID_48_)" fill="#BDCCE3" d="M130.835,127.887c-0.713-3.042-6.306-6.004-15.544-8.043
							c-8.612-1.901-19.578-2.979-30.937-3.149c-11.367-0.169-22.203,0.623-30.573,2.265c-9.928,1.947-15.535,4.962-15.594,8.273
							c-0.059,3.333,5.494,6.592,15.452,8.96c8.714,2.071,20.117,3.33,31.994,3.575c11.886,0.244,23.316-0.546,32.069-2.261
							C129.281,135.235,134.071,131.514,130.835,127.887"/>
					</g>
				</g>
				<g opacity="0.5122" clip-path="url(#SVGID_6_)">
					<g>
						<defs>
							<rect id="SVGID_49_" x="39.628" y="117.045" width="90.743" height="22.394"/>
						</defs>
						<clipPath id="SVGID_50_">
							<use xlink:href="#SVGID_49_"  overflow="visible"/>
						</clipPath>
						<path clip-path="url(#SVGID_50_)" fill="#B9CAE2" d="M129.27,127.79c-0.754-2.915-6.164-5.753-15.054-7.702
							c-8.352-1.831-18.962-2.861-29.941-3.021c-10.984-0.158-21.457,0.61-29.552,2.197c-9.615,1.886-15.035,4.801-15.094,8.001
							c-0.055,3.219,5.313,6.371,14.957,8.664c8.459,2.011,19.53,3.23,31.052,3.469c11.53,0.237,22.626-0.528,31.123-2.193
							C128.109,134.977,132.672,131.32,129.27,127.79"/>
					</g>
				</g>
				<g opacity="0.5366" clip-path="url(#SVGID_6_)">
					<g>
						<defs>
							<rect id="SVGID_51_" x="41.072" y="117.417" width="87.853" height="21.649"/>
						</defs>
						<clipPath id="SVGID_52_">
							<use xlink:href="#SVGID_51_"  overflow="visible"/>
						</clipPath>
						<path clip-path="url(#SVGID_52_)" fill="#B6C7E0" d="M127.703,127.692c-0.793-2.788-6.021-5.502-14.563-7.361
							c-8.092-1.762-18.348-2.746-28.945-2.895c-10.602-0.146-20.711,0.598-28.531,2.131c-9.303,1.824-14.535,4.64-14.592,7.727
							c-0.055,3.107,5.13,6.152,14.462,8.37c8.203,1.95,18.941,3.132,30.108,3.362c11.174,0.229,21.936-0.512,30.177-2.126
							C126.938,134.717,131.272,131.125,127.703,127.692"/>
					</g>
				</g>
				<g opacity="0.561" clip-path="url(#SVGID_6_)">
					<g>
						<defs>
							<rect id="SVGID_53_" x="42.515" y="117.792" width="84.971" height="20.902"/>
						</defs>
						<clipPath id="SVGID_54_">
							<use xlink:href="#SVGID_53_"  overflow="visible"/>
						</clipPath>
						<path clip-path="url(#SVGID_54_)" fill="#B3C5DF" d="M126.137,127.593c-0.833-2.66-5.88-5.25-14.072-7.021
							c-7.831-1.692-17.731-2.628-27.949-2.766c-10.219-0.135-19.965,0.584-27.51,2.063c-8.99,1.763-14.035,4.479-14.09,7.454
							c-0.053,2.993,4.947,5.93,13.966,8.074c7.949,1.889,18.354,3.033,29.165,3.257c10.818,0.221,21.246-0.496,29.231-2.061
							C125.765,134.458,129.873,130.93,126.137,127.593"/>
					</g>
				</g>
				<g opacity="0.5854" clip-path="url(#SVGID_6_)">
					<g>
						<defs>
							<rect id="SVGID_55_" x="43.958" y="118.164" width="82.096" height="20.157"/>
						</defs>
						<clipPath id="SVGID_56_">
							<use xlink:href="#SVGID_55_"  overflow="visible"/>
						</clipPath>
						<path clip-path="url(#SVGID_56_)" fill="#AFC2DE" d="M124.571,127.496c-0.874-2.533-5.739-4.999-13.582-6.68
							c-7.572-1.623-17.117-2.511-26.952-2.638c-9.838-0.125-19.221,0.57-26.49,1.996c-8.676,1.701-13.537,4.317-13.588,7.18
							c-0.052,2.881,4.763,5.711,13.469,7.779c7.695,1.829,17.767,2.934,28.223,3.149c10.462,0.215,20.557-0.478,28.284-1.991
							C124.593,134.199,128.474,130.736,124.571,127.496"/>
					</g>
				</g>
				<g opacity="0.6098" clip-path="url(#SVGID_6_)">
					<g>
						<defs>
							<rect id="SVGID_57_" x="45.401" y="118.537" width="79.23" height="19.412"/>
						</defs>
						<clipPath id="SVGID_58_">
							<use xlink:href="#SVGID_57_"  overflow="visible"/>
						</clipPath>
						<path clip-path="url(#SVGID_58_)" fill="#ACC0DC" d="M123.005,127.397c-0.914-2.405-5.597-4.747-13.092-6.338
							c-7.31-1.552-16.501-2.395-25.954-2.51c-9.457-0.113-18.476,0.557-25.471,1.929c-8.362,1.641-13.036,4.156-13.087,6.906
							c-0.048,2.768,4.583,5.49,12.976,7.484c7.44,1.769,17.178,2.835,27.279,3.043c10.107,0.207,19.868-0.46,27.338-1.924
							C123.421,133.94,127.074,130.542,123.005,127.397"/>
					</g>
				</g>
				<g opacity="0.6341" clip-path="url(#SVGID_6_)">
					<g>
						<defs>
							<rect id="SVGID_59_" x="46.844" y="118.91" width="76.37" height="18.666"/>
						</defs>
						<clipPath id="SVGID_60_">
							<use xlink:href="#SVGID_59_"  overflow="visible"/>
						</clipPath>
						<path clip-path="url(#SVGID_60_)" fill="#A9BDDB" d="M121.439,127.299c-0.955-2.279-5.456-4.496-12.602-5.998
							c-7.05-1.482-15.885-2.277-24.958-2.381c-9.075-0.103-17.731,0.544-24.45,1.861c-8.049,1.579-12.536,3.995-12.585,6.633
							c-0.047,2.655,4.4,5.27,12.48,7.189c7.184,1.707,16.591,2.735,26.336,2.937c9.751,0.199,19.176-0.443,26.392-1.857
							C122.248,133.681,125.674,130.346,121.439,127.299"/>
					</g>
				</g>
				<g opacity="0.6585" clip-path="url(#SVGID_6_)">
					<g>
						<defs>
							<rect id="SVGID_61_" x="48.287" y="119.283" width="73.519" height="17.92"/>
						</defs>
						<clipPath id="SVGID_62_">
							<use xlink:href="#SVGID_61_"  overflow="visible"/>
						</clipPath>
						<path clip-path="url(#SVGID_62_)" fill="#A5BADA" d="M119.873,127.202c-0.994-2.151-5.313-4.245-12.111-5.658
							c-6.791-1.411-15.27-2.16-23.96-2.252c-8.694-0.092-16.986,0.53-23.43,1.794c-7.736,1.518-12.037,3.833-12.084,6.359
							c-0.045,2.542,4.217,5.048,11.984,6.894c6.93,1.646,16.004,2.637,25.394,2.83c9.395,0.192,18.486-0.426,25.446-1.789
							C121.076,133.422,124.274,130.152,119.873,127.202"/>
					</g>
				</g>
				<g opacity="0.6829" clip-path="url(#SVGID_6_)">
					<g>
						<defs>
							<rect id="SVGID_63_" x="49.73" y="119.656" width="70.675" height="17.175"/>
						</defs>
						<clipPath id="SVGID_64_">
							<use xlink:href="#SVGID_63_"  overflow="visible"/>
						</clipPath>
						<path clip-path="url(#SVGID_64_)" fill="#A2B8D8" d="M118.307,127.104c-1.035-2.025-5.172-3.993-11.621-5.317
							c-6.53-1.341-14.654-2.043-22.964-2.124c-8.311-0.081-16.24,0.517-22.409,1.727c-7.423,1.457-11.536,3.672-11.582,6.086
							c-0.043,2.43,4.034,4.828,11.489,6.599c6.675,1.586,15.415,2.537,24.45,2.724c9.039,0.185,17.796-0.409,24.5-1.722
							C119.904,133.163,122.875,129.958,118.307,127.104"/>
					</g>
				</g>
				<g opacity="0.7073" clip-path="url(#SVGID_6_)">
					<g>
						<defs>
							<rect id="SVGID_65_" x="51.174" y="120.028" width="67.838" height="16.43"/>
						</defs>
						<clipPath id="SVGID_66_">
							<use xlink:href="#SVGID_65_"  overflow="visible"/>
						</clipPath>
						<path clip-path="url(#SVGID_66_)" fill="#9FB6D7" d="M116.74,127.005c-1.075-1.896-5.03-3.739-11.131-4.976
							c-6.269-1.271-14.039-1.926-21.967-1.996c-7.928-0.07-15.495,0.503-21.388,1.66c-7.11,1.395-11.037,3.511-11.08,5.812
							c-0.042,2.316,3.851,4.607,10.993,6.304c6.421,1.525,14.827,2.438,23.507,2.616c8.683,0.178,17.107-0.392,23.553-1.653
							C118.732,132.904,121.475,129.762,116.74,127.005"/>
					</g>
				</g>
				<g opacity="0.7317" clip-path="url(#SVGID_6_)">
					<g>
						<defs>
							<rect id="SVGID_67_" x="52.617" y="120.4" width="65.011" height="15.685"/>
						</defs>
						<clipPath id="SVGID_68_">
							<use xlink:href="#SVGID_67_"  overflow="visible"/>
						</clipPath>
						<path clip-path="url(#SVGID_68_)" fill="#9CB3D5" d="M115.175,126.908c-1.116-1.771-4.89-3.488-10.641-4.636
							c-6.01-1.199-13.422-1.809-20.969-1.868c-7.548-0.059-14.751,0.491-20.369,1.593c-6.797,1.334-10.538,3.349-10.579,5.539
							c-0.04,2.203,3.668,4.387,10.497,6.009c6.166,1.464,14.241,2.339,22.566,2.509c8.326,0.171,16.416-0.373,22.606-1.586
							C117.561,132.645,120.075,129.568,115.175,126.908"/>
					</g>
				</g>
				<g opacity="0.7561" clip-path="url(#SVGID_6_)">
					<g>
						<defs>
							<rect id="SVGID_69_" x="54.059" y="120.772" width="62.193" height="14.94"/>
						</defs>
						<clipPath id="SVGID_70_">
							<use xlink:href="#SVGID_69_"  overflow="visible"/>
						</clipPath>
						<path clip-path="url(#SVGID_70_)" fill="#98B0D4" d="M113.608,126.81c-1.155-1.644-4.749-3.235-10.15-4.295
							c-5.75-1.128-12.808-1.692-19.974-1.74c-7.165-0.048-14.004,0.478-19.348,1.525c-6.483,1.272-10.037,3.188-10.077,5.266
							c-0.038,2.09,3.486,4.166,10.003,5.713c5.91,1.403,13.652,2.24,21.621,2.404c7.971,0.162,15.727-0.357,21.661-1.519
							C116.388,132.385,118.676,129.374,113.608,126.81"/>
					</g>
				</g>
				<g opacity="0.7805" clip-path="url(#SVGID_6_)">
					<g>
						<defs>
							<rect id="SVGID_71_" x="55.503" y="121.144" width="59.382" height="14.195"/>
						</defs>
						<clipPath id="SVGID_72_">
							<use xlink:href="#SVGID_71_"  overflow="visible"/>
						</clipPath>
						<path clip-path="url(#SVGID_72_)" fill="#95AED3" d="M112.043,126.712c-1.196-1.517-4.607-2.981-9.66-3.954
							c-5.491-1.057-12.193-1.575-18.977-1.612c-6.784-0.036-13.259,0.464-18.328,1.458c-6.17,1.211-9.537,3.027-9.575,4.992
							c-0.036,1.978,3.304,3.945,9.507,5.418c5.655,1.343,13.064,2.141,20.678,2.297c7.616,0.155,15.037-0.34,20.714-1.451
							C115.216,132.126,117.276,129.179,112.043,126.712"/>
					</g>
				</g>
				<g opacity="0.8049" clip-path="url(#SVGID_6_)">
					<g>
						<defs>
							<rect id="SVGID_73_" x="56.945" y="121.516" width="56.581" height="13.45"/>
						</defs>
						<clipPath id="SVGID_74_">
							<use xlink:href="#SVGID_73_"  overflow="visible"/>
						</clipPath>
						<path clip-path="url(#SVGID_74_)" fill="#92ABD1" d="M110.477,126.614c-1.236-1.389-4.466-2.728-9.169-3.613
							c-5.232-0.985-11.578-1.458-17.98-1.483c-6.403-0.025-12.515,0.451-17.308,1.391c-5.856,1.149-9.037,2.866-9.074,4.719
							c-0.034,1.864,3.121,3.725,9.011,5.122c5.402,1.283,12.478,2.043,19.736,2.191c7.26,0.147,14.346-0.323,19.769-1.385
							C114.044,131.868,115.877,128.985,110.477,126.614"/>
					</g>
				</g>
				<g opacity="0.8293" clip-path="url(#SVGID_6_)">
					<g>
						<defs>
							<rect id="SVGID_75_" x="58.388" y="121.888" width="53.788" height="12.706"/>
						</defs>
						<clipPath id="SVGID_76_">
							<use xlink:href="#SVGID_75_"  overflow="visible"/>
						</clipPath>
						<path clip-path="url(#SVGID_76_)" fill="#8EA9D0" d="M108.91,126.516c-1.276-1.262-4.325-2.474-8.679-3.272
							c-4.971-0.913-10.962-1.342-16.983-1.355c-6.02-0.015-11.77,0.437-16.287,1.323c-5.544,1.089-8.538,2.705-8.572,4.444
							c-0.033,1.753,2.938,3.505,8.516,4.828c5.146,1.222,11.889,1.943,18.792,2.085c6.903,0.14,13.656-0.307,18.822-1.317
							C112.872,131.608,114.478,128.79,108.91,126.516"/>
					</g>
				</g>
				<g opacity="0.8537" clip-path="url(#SVGID_6_)">
					<g>
						<defs>
							<rect id="SVGID_77_" x="59.832" y="122.258" width="51.004" height="11.963"/>
						</defs>
						<clipPath id="SVGID_78_">
							<use xlink:href="#SVGID_77_"  overflow="visible"/>
						</clipPath>
						<path clip-path="url(#SVGID_78_)" fill="#8BA6CE" d="M107.345,126.418c-1.317-1.135-4.186-2.219-8.188-2.932
							c-4.713-0.839-10.347-1.225-15.988-1.229c-5.637-0.003-11.024,0.425-15.267,1.257c-5.23,1.027-8.037,2.544-8.07,4.171
							c-0.03,1.64,2.756,3.284,8.021,4.533c4.891,1.161,11.302,1.845,17.849,1.978c6.548,0.134,12.966-0.288,17.876-1.249
							C111.699,131.349,113.078,128.595,107.345,126.418"/>
					</g>
				</g>
				<g opacity="0.8781" clip-path="url(#SVGID_6_)">
					<g>
						<defs>
							<rect id="SVGID_79_" x="61.275" y="122.629" width="48.229" height="11.219"/>
						</defs>
						<clipPath id="SVGID_80_">
							<use xlink:href="#SVGID_79_"  overflow="visible"/>
						</clipPath>
						<path clip-path="url(#SVGID_80_)" fill="#88A4CD" d="M105.778,126.321c-1.357-1.008-4.044-1.964-7.698-2.592
							c-4.454-0.766-9.731-1.107-14.99-1.1c-5.256,0.008-10.279,0.411-14.248,1.189c-4.917,0.966-7.537,2.383-7.567,3.897
							c-0.029,1.526,2.572,3.063,7.524,4.237c4.637,1.101,10.714,1.746,16.907,1.872c6.191,0.126,12.276-0.271,16.929-1.182
							C110.527,131.09,111.678,128.401,105.778,126.321"/>
					</g>
				</g>
				<g opacity="0.9024" clip-path="url(#SVGID_6_)">
					<g>
						<defs>
							<rect id="SVGID_81_" x="62.718" y="123" width="45.464" height="10.476"/>
						</defs>
						<clipPath id="SVGID_82_">
							<use xlink:href="#SVGID_81_"  overflow="visible"/>
						</clipPath>
						<path clip-path="url(#SVGID_82_)" fill="#84A1CB" d="M104.212,126.222c-1.396-0.88-3.903-1.707-7.208-2.251
							c-4.194-0.69-9.115-0.989-13.993-0.971c-4.874,0.019-9.533,0.397-13.227,1.122c-4.603,0.904-7.037,2.222-7.066,3.624
							c-0.027,1.414,2.39,2.843,7.03,3.942c4.381,1.04,10.126,1.646,15.963,1.765c5.836,0.119,11.586-0.254,15.983-1.114
							C109.356,130.832,110.278,128.206,104.212,126.222"/>
					</g>
				</g>
				<g opacity="0.9268" clip-path="url(#SVGID_6_)">
					<g>
						<defs>
							<rect id="SVGID_83_" x="64.161" y="123.37" width="42.708" height="9.733"/>
						</defs>
						<clipPath id="SVGID_84_">
							<use xlink:href="#SVGID_83_"  overflow="visible"/>
						</clipPath>
						<path clip-path="url(#SVGID_84_)" fill="#819FCA" d="M102.646,126.125c-1.437-0.753-3.764-1.449-6.719-1.91
							c-3.934-0.613-8.499-0.873-12.995-0.843c-4.493,0.029-8.789,0.384-12.207,1.055c-4.29,0.843-6.538,2.061-6.564,3.351
							c-0.026,1.301,2.208,2.622,6.534,3.647c4.127,0.979,9.539,1.547,15.02,1.658c5.48,0.111,10.896-0.237,15.037-1.047
							C108.184,130.573,108.879,128.011,102.646,126.125"/>
					</g>
				</g>
				<g opacity="0.9512" clip-path="url(#SVGID_6_)">
					<g>
						<defs>
							<rect id="SVGID_85_" x="65.604" y="123.737" width="39.962" height="8.993"/>
						</defs>
						<clipPath id="SVGID_86_">
							<use xlink:href="#SVGID_85_"  overflow="visible"/>
						</clipPath>
						<path clip-path="url(#SVGID_86_)" fill="#7E9CC9" d="M101.08,126.027c-1.478-0.626-3.622-1.19-6.228-1.569
							c-3.675-0.534-7.883-0.757-12-0.716c-4.109,0.042-8.043,0.372-11.185,0.988c-3.977,0.781-6.038,1.9-6.063,3.077
							c-0.023,1.188,2.026,2.401,6.039,3.352c3.872,0.919,8.951,1.449,14.077,1.553c5.125,0.104,10.207-0.221,14.091-0.979
							C107.011,130.314,107.479,127.816,101.08,126.027"/>
					</g>
				</g>
				<g opacity="0.9756" clip-path="url(#SVGID_6_)">
					<g>
						<defs>
							<rect id="SVGID_87_" x="67.047" y="124.104" width="37.226" height="8.253"/>
						</defs>
						<clipPath id="SVGID_88_">
							<use xlink:href="#SVGID_87_"  overflow="visible"/>
						</clipPath>
						<path clip-path="url(#SVGID_88_)" fill="#7A9AC7" d="M99.514,125.928c-1.518-0.498-3.482-0.931-5.737-1.229
							c-3.418-0.451-7.269-0.639-11.002-0.586c-3.729,0.053-7.298,0.358-10.166,0.92c-3.664,0.722-5.538,1.739-5.562,2.805
							c-0.02,1.075,1.843,2.181,5.544,3.057c3.617,0.857,8.362,1.35,13.134,1.445c4.768,0.097,9.517-0.202,13.144-0.911
							C105.839,130.054,106.079,127.622,99.514,125.928"/>
					</g>
				</g>
				<g clip-path="url(#SVGID_6_)">
					<g>
						<defs>
							<rect id="SVGID_89_" x="68.491" y="124.47" width="34.5" height="7.515"/>
						</defs>
						<clipPath id="SVGID_90_">
							<use xlink:href="#SVGID_89_"  overflow="visible"/>
						</clipPath>
						<path clip-path="url(#SVGID_90_)" fill="#7797C6" d="M97.948,125.831c-6.725-1.6-17.642-1.82-24.398-0.493
							c-6.734,1.325-6.754,3.696-0.012,5.292c6.722,1.594,17.642,1.813,24.389,0.494
							C104.667,129.795,104.679,127.427,97.948,125.831"/>
					</g>
				</g>
			</g>
		</g>
	</g>
	<g clip-path="url(#SVGID_2_)">
		<defs>
			<path id="SVGID_91_" d="M188.965,26.402c-1.522,0.344-3.014-2.032-4.479-4.408c-1.499-2.432-2.971-4.862-4.421-4.38
				c-5.85,1.959-1.856,13.116-2.467,17.226c-0.886,5.979-4.823-1.037-5.973-2.931c-0.802-1.317-1.519-3.325-3.37-2.905
				c-3.295,0.758-2.345,6.01-2.021,8.365c0.603,4.336,2.214,8.67,1.521,13.092c-1.087,6.989-7.669-1.656-9.684-2.407
				c-5.239-1.956,0.909,12.676,1.566,14.231c1.224,2.888,3.556,5.415,4.167,8.553c0.612,3.125-1.058,6.069-1.973,8.965
				c-0.453,1.419-1.787,5.011,0.681,5.158c2.42,0.14,5.378-4.927,6.934-6.32c3.665-3.309,8.397-2.931,12.961-2.452
				c3.263,0.341,10.336,1.45,12.466-2.019c2.49-4.047-8.503-5.667-6.999-10.207c0.964-2.92,6.875-3.083,9.206-3.974
				c2.392-0.909,10.801-3.477,10.884-6.862c0.004-0.335-0.114-0.653-0.376-0.966c-0.657-0.775-2.951-0.343-3.824-0.27
				c-2.27,0.178-6.73,0.123-5.769-3.233c0.959-3.363,5.712-5.292,7.981-7.654c2.243-2.33,5.97-6.364,3.62-9.786
				c-0.833-1.211-2.983-0.162-5.074,0.888c-2.211,1.109-4.354,2.218-4.804,0.655c-1.095-3.667,1.522-16.893-1.693-18.791
				c-0.21-0.125-0.415-0.183-0.616-0.183C194.535,13.788,192.465,25.648,188.965,26.402"/>
		</defs>
		<clipPath id="SVGID_92_">
			<use xlink:href="#SVGID_91_"  overflow="visible"/>
		</clipPath>
		
			<linearGradient id="SVGID_93_" gradientUnits="userSpaceOnUse" x1="0" y1="147.2397" x2="1" y2="147.2397" gradientTransform="matrix(8.7129 65.377 65.3526 -8.7495 -9444.5371 1304.6592)">
			<stop  offset="0" style="stop-color:#B3E0FF"/>
			<stop  offset="0.1128" style="stop-color:#B8DDFF"/>
			<stop  offset="0.6219" style="stop-color:#C9D3FF"/>
			<stop  offset="1" style="stop-color:#CFCFFF"/>
		</linearGradient>
		<polygon clip-path="url(#SVGID_92_)" fill="url(#SVGID_93_)" points="210.91,6.012 221.283,83.851 153.868,92.876 143.494,15.037 
					"/>
	</g>
	<g clip-path="url(#SVGID_2_)">
		<defs>
			<rect id="SVGID_94_" width="210.364" height="147.267"/>
		</defs>
		<clipPath id="SVGID_95_">
			<use xlink:href="#SVGID_94_"  overflow="visible"/>
		</clipPath>
		<g opacity="0.3" clip-path="url(#SVGID_95_)">
			<g>
				<defs>
					<rect id="SVGID_96_" x="155.992" y="30.81" width="54.372" height="54.129"/>
				</defs>
				<clipPath id="SVGID_97_">
					<use xlink:href="#SVGID_96_"  overflow="visible"/>
				</clipPath>
				<path clip-path="url(#SVGID_97_)" fill="#986BD1" d="M198.487,52.35c-0.962,3.359,3.498,3.41,5.772,3.234
					c0.548-0.043,1.649-0.227,2.562-0.171c0.697-0.67,1.14-1.391,1.159-2.155c0.007-0.327-0.11-0.647-0.374-0.963
					c-0.658-0.775-2.95-0.34-3.82-0.273c-1.394,0.115-3.608,0.134-4.893-0.638C198.729,51.694,198.585,52.014,198.487,52.35"/>
				<path clip-path="url(#SVGID_97_)" fill="#986BD1" d="M199.923,33.282c0,1.324,0.07,2.448,0.287,3.174
					c0.876,3.041,8.169-4.037,9.882-1.541c0.031,0.047,0.057,0.089,0.086,0.137c0.336-1.243,0.257-2.508-0.562-3.697
					C207.99,28.986,201.349,35.23,199.923,33.282"/>
				<path clip-path="url(#SVGID_97_)" fill="#986BD1" d="M188.363,67.658c-1.044,3.154,3.947,4.904,6.254,7.035
					c0.097-0.119,0.19-0.25,0.271-0.385c1.875-3.044-3.876-4.715-6.206-7.292C188.55,67.221,188.441,67.43,188.363,67.658"/>
				<path clip-path="url(#SVGID_97_)" fill="#986BD1" d="M162.324,83.497c0.914-2.892,2.585-5.838,1.975-8.965
					c-0.093-0.472-0.229-0.926-0.387-1.376c-0.228,2.329-1.361,4.572-2.063,6.781c-0.404,1.271-1.514,4.282,0.028,5.002
					C162.03,84.381,162.207,83.868,162.324,83.497"/>
				<path clip-path="url(#SVGID_97_)" fill="#986BD1" d="M158.561,51.746c2.02,0.757,8.6,9.405,9.69,2.415
					c0.362-2.329,0.086-4.633-0.344-6.922c0.068,1.117,0.043,2.235-0.132,3.361c-1.09,6.987-7.671-1.66-9.688-2.413
					c-2.44-0.913-2.407,1.779-1.61,5.074C156.548,51.918,157.131,51.209,158.561,51.746"/>
			</g>
		</g>
		<path clip-path="url(#SVGID_95_)" fill="#EFF3F9" d="M162.513,84.961c0,0,0.149-0.168,0.43-0.484
			c0.273-0.32,0.675-0.789,1.186-1.387c0.498-0.609,1.119-1.332,1.785-2.199c0.683-0.854,1.416-1.846,2.234-2.91
			c1.597-2.16,3.438-4.691,5.274-7.497c0.95-1.38,1.847-2.862,2.788-4.347c0.966-1.47,1.817-3.044,2.74-4.574
			c0.903-1.539,1.743-3.118,2.605-4.651c0.812-1.561,1.611-3.097,2.385-4.584c0.731-1.51,1.438-2.969,2.109-4.352
			c0.693-1.375,1.233-2.727,1.801-3.947c0.53-1.234,1.098-2.336,1.494-3.354c0.42-1.011,0.785-1.892,1.086-2.618
			c0.609-1.451,0.979-2.276,0.979-2.276s-0.231,0.869-0.677,2.381c-0.227,0.756-0.5,1.674-0.815,2.727
			c-0.289,1.064-0.738,2.218-1.191,3.494c-0.476,1.265-0.919,2.67-1.554,4.086c-0.608,1.427-1.216,2.949-1.928,4.486
			c-0.743,1.522-1.469,3.116-2.285,4.697c-0.856,1.56-1.687,3.166-2.589,4.734c-0.949,1.538-1.827,3.121-2.821,4.598
			c-0.959,1.5-1.943,2.95-2.939,4.321c-0.96,1.396-1.984,2.677-2.935,3.905c-0.96,1.221-1.91,2.341-2.799,3.363
			c-1.775,2.048-3.396,3.626-4.517,4.733C163.214,84.394,162.513,84.961,162.513,84.961"/>
		<path clip-path="url(#SVGID_95_)" fill="#EFF3F9" d="M183.664,53.865c0,0,0.16,0.024,0.439,0.068
			c0.282,0.05,0.675,0.101,1.145,0.152c0.473,0.054,1.024,0.118,1.615,0.188c0.598,0.031,1.236,0.067,1.874,0.102
			c0.639,0.021,1.286,0.106,1.883,0.059c0.602-0.021,1.163-0.04,1.645-0.056c0.971-0.034,1.617-0.057,1.617-0.057
			s-0.634,0.125-1.585,0.311c-0.479,0.093-1.038,0.203-1.637,0.32c-0.6,0.145-1.249,0.162-1.896,0.244
			c-0.65,0.068-1.302,0.136-1.911,0.2c-0.617,0.027-1.193,0.052-1.687,0.073c-0.497,0.024-0.909,0.037-1.188,0.033
			c-0.283,0.001-0.444,0.002-0.444,0.002L183.664,53.865z"/>
		<path clip-path="url(#SVGID_95_)" fill="#986BD1" d="M173.584,70.979c0.001,0,3.342,0.714,6.764,1.107
			c0.427,0.062,0.854,0.082,1.274,0.125c0.422,0.036,0.836,0.072,1.238,0.107c0.805,0.028,1.557,0.053,2.201,0.075
			c1.283-0.051,2.151-0.108,2.151-0.108s-0.213,0.037-0.584,0.102c-0.373,0.062-0.906,0.168-1.552,0.261
			c-0.649,0.057-1.408,0.122-2.22,0.192c-0.407,0.012-0.828,0.025-1.255,0.039c-0.428,0.008-0.865,0.039-1.3,0.027
			c-3.475,0.02-6.966-0.302-6.965-0.302L173.584,70.979z"/>
		<path clip-path="url(#SVGID_95_)" fill="#EFF3F9" d="M187.559,45.174c0,0-0.275-1.848-0.456-3.7
			c-0.095-0.927-0.159-1.858-0.167-2.558c-0.021-0.347,0.013-0.64,0.025-0.844c0.014-0.201,0.021-0.317,0.021-0.317
			s0.005,0.116,0.015,0.319c0.01,0.204,0.008,0.491,0.067,0.834c0.083,0.688,0.249,1.598,0.444,2.503
			c0.383,1.813,0.854,3.599,0.854,3.599L187.559,45.174z"/>
		<path clip-path="url(#SVGID_95_)" fill="#EFF3F9" d="M177.215,64.874c0,0-0.104-0.932-0.258-2.328
			c-0.077-0.697-0.168-1.513-0.264-2.385c-0.095-0.875-0.209-1.801-0.283-2.743c-0.328-3.735-0.655-7.47-0.655-7.47l1.467,7.344
			c0.173,0.912,0.391,1.826,0.579,2.684c0.192,0.857,0.371,1.656,0.524,2.341c0.307,1.372,0.511,2.286,0.511,2.286L177.215,64.874z"
			/>
		<g opacity="0.2" clip-path="url(#SVGID_95_)">
			<g>
				<defs>
					<rect id="SVGID_98_" x="158.664" y="48.731" width="49.3" height="36.233"/>
				</defs>
				<clipPath id="SVGID_99_">
					<use xlink:href="#SVGID_98_"  overflow="visible"/>
				</clipPath>
				<path clip-path="url(#SVGID_99_)" fill="#C397F2" d="M182.406,76.189c3.264,0.341,10.337,1.449,12.467-2.019
					c2.489-4.047-8.503-5.668-6.999-10.207c0.964-2.92,6.875-3.084,9.206-3.975c2.393-0.909,10.801-3.476,10.884-6.861
					c0.005-0.335-0.113-0.653-0.376-0.966c-0.657-0.775-2.95-0.343-3.823-0.27c-2.253,0.178-6.658,0.123-5.789-3.161
					c-12.062,5.842-13.036,22.701-39.312,11.147c0.461,1.187,0.837,2.086,0.975,2.408c1.222,2.887,3.555,5.414,4.167,8.553
					c0.611,3.125-1.059,6.068-1.974,8.965c-0.453,1.419-1.787,5.011,0.681,5.158c2.42,0.14,5.378-4.926,6.933-6.32
					C173.111,75.332,177.845,75.709,182.406,76.189"/>
			</g>
		</g>
	</g>
	<g clip-path="url(#SVGID_2_)">
		<defs>
			<path id="SVGID_100_" d="M128.019,0c-5.264,0.034-10.48,1.905-15.221,5.813c-16.123,13.295-20.682,45.111-10.181,71.065
				c10.497,25.959,32.079,36.22,48.2,22.929c16.122-13.291,20.679-45.11,10.181-71.066C153.643,10.562,140.855,0.08,128.311,0
				H128.019z"/>
		</defs>
		<clipPath id="SVGID_101_">
			<use xlink:href="#SVGID_100_"  overflow="visible"/>
		</clipPath>
		
			<linearGradient id="SVGID_102_" gradientUnits="userSpaceOnUse" x1="0" y1="147.2241" x2="1" y2="147.2241" gradientTransform="matrix(65.7139 -38.4689 -38.4689 -65.7068 5764.1538 9748.4648)">
			<stop  offset="0" style="stop-color:#5FEFC0"/>
			<stop  offset="0.1004" style="stop-color:#6EECCB"/>
			<stop  offset="0.3361" style="stop-color:#8CE7E2"/>
			<stop  offset="0.568" style="stop-color:#A2E3F2"/>
			<stop  offset="0.7922" style="stop-color:#AFE1FC"/>
			<stop  offset="1" style="stop-color:#B3E0FF"/>
		</linearGradient>
		<polygon clip-path="url(#SVGID_101_)" fill="url(#SVGID_102_)" points="42.803,28.868 151.234,-34.608 220.81,84.23 
			112.378,147.706 		"/>
	</g>
	<g clip-path="url(#SVGID_2_)">
		<defs>
			<rect id="SVGID_103_" width="210.364" height="147.267"/>
		</defs>
		<clipPath id="SVGID_104_">
			<use xlink:href="#SVGID_103_"  overflow="visible"/>
		</clipPath>
		<path clip-path="url(#SVGID_104_)" fill="#E1E9F5" d="M147.925,101.606c0,0-0.061-0.34-0.174-0.978
			c-0.124-0.634-0.305-1.564-0.537-2.749c-0.248-1.18-0.545-2.61-0.914-4.246c-0.366-1.637-0.801-3.476-1.299-5.475
			c-0.464-2.007-1.1-4.148-1.672-6.435c-0.665-2.263-1.318-4.66-2.081-7.114c-0.383-1.227-0.771-2.473-1.166-3.734
			c-0.384-1.266-0.861-2.518-1.273-3.801c-0.437-1.276-0.845-2.573-1.313-3.854c-0.479-1.277-0.96-2.558-1.44-3.841
			c-0.893-2.59-1.985-5.102-2.983-7.607c-0.981-2.513-2.125-4.907-3.136-7.271c-0.259-0.587-0.516-1.17-0.77-1.748
			c-0.274-0.567-0.547-1.13-0.815-1.687c-0.535-1.115-1.058-2.207-1.566-3.27c-0.991-2.141-2.031-4.111-2.993-5.933
			c-0.978-1.812-1.788-3.528-2.617-4.983c-0.827-1.459-1.549-2.732-2.143-3.778c-1.164-2.12-1.83-3.33-1.83-3.33
			s0.822,1.108,2.261,3.05c0.707,0.982,1.566,2.176,2.553,3.544c0.976,1.377,1.952,3.009,3.062,4.764
			c0.55,0.883,1.124,1.801,1.717,2.751c0.594,0.952,1.11,1.988,1.695,3.026c0.572,1.044,1.16,2.118,1.762,3.214
			c0.297,0.55,0.597,1.108,0.9,1.67c0.275,0.576,0.554,1.156,0.836,1.742c0.562,1.172,1.134,2.364,1.712,3.571
			c0.29,0.603,0.581,1.209,0.874,1.819c0.262,0.623,0.524,1.25,0.789,1.88c1.037,2.525,2.176,5.058,3.104,7.674
			c0.473,1.303,0.945,2.607,1.416,3.905c0.459,1.304,0.859,2.62,1.287,3.916c0.884,2.584,1.558,5.188,2.255,7.69
			c0.711,2.5,1.218,4.965,1.766,7.28c0.471,2.336,0.942,4.534,1.254,6.591c0.164,1.025,0.343,2.004,0.476,2.94
			c0.122,0.938,0.238,1.829,0.348,2.665c0.224,1.672,0.34,3.141,0.451,4.344C147.91,100.223,147.925,101.606,147.925,101.606"/>
		<path clip-path="url(#SVGID_104_)" fill="#E1E9F5" d="M130.758,45.2c0,0,0.171-0.244,0.469-0.67
			c0.308-0.425,0.718-1.035,1.195-1.769c0.484-0.738,1.05-1.597,1.656-2.518c0.567-0.951,1.173-1.965,1.779-2.979
			c0.304-0.507,0.607-1.016,0.906-1.517c0.312-0.495,0.578-1.001,0.825-1.497c0.507-0.988,0.98-1.91,1.386-2.7
			c0.814-1.59,1.357-2.649,1.357-2.649s-0.395,1.122-0.986,2.804c-0.298,0.845-0.646,1.831-1.018,2.887
			c-0.18,0.532-0.379,1.077-0.621,1.612c-0.23,0.54-0.465,1.09-0.699,1.639c-0.471,1.102-0.939,2.205-1.382,3.238
			c-0.486,1.017-0.941,1.967-1.331,2.78c-0.389,0.82-0.721,1.495-0.963,1.953c-0.238,0.461-0.375,0.726-0.375,0.726L130.758,45.2z"
			/>
		<path clip-path="url(#SVGID_104_)" fill="#E1E9F5" d="M141.407,73.75c0,0,0.237-0.314,0.652-0.867
			c0.41-0.549,0.997-1.334,1.686-2.296c0.7-0.953,1.49-2.083,2.335-3.298c0.861-1.204,1.707-2.533,2.593-3.842
			c0.445-0.652,0.844-1.331,1.263-1.986c0.412-0.658,0.818-1.307,1.212-1.934c0.735-1.285,1.422-2.484,2.011-3.511
			c0.541-1.053,0.964-1.946,1.274-2.566c0.307-0.622,0.481-0.978,0.481-0.978s-0.138,0.371-0.379,1.02
			c-0.246,0.648-0.578,1.584-1.014,2.696c-0.484,1.089-1.05,2.361-1.656,3.724c-0.329,0.668-0.67,1.359-1.016,2.061
			c-0.353,0.699-0.687,1.424-1.064,2.123c-0.753,1.4-1.47,2.826-2.209,4.121c-0.724,1.305-1.402,2.523-2.008,3.553
			c-0.594,1.037-1.109,1.894-1.469,2.496c-0.359,0.595-0.565,0.937-0.565,0.937L141.407,73.75z"/>
		<path clip-path="url(#SVGID_104_)" fill="#E1E9F5" d="M124.586,32.6c0,0-2.351-0.842-4.626-1.84
			c-0.572-0.24-1.136-0.508-1.659-0.764c-0.529-0.24-1.003-0.519-1.409-0.748c-0.201-0.119-0.396-0.205-0.543-0.331
			c-0.152-0.114-0.284-0.213-0.395-0.295c-0.216-0.161-0.339-0.253-0.339-0.253s0.135,0.076,0.371,0.209
			c0.117,0.065,0.26,0.145,0.422,0.237c0.156,0.101,0.364,0.164,0.574,0.254c0.429,0.172,0.919,0.383,1.474,0.551
			c0.546,0.183,1.129,0.373,1.724,0.535c2.366,0.687,4.764,1.207,4.764,1.207L124.586,32.6z"/>
		<path clip-path="url(#SVGID_104_)" fill="#E1E9F5" d="M138.021,63.276c0,0-1.153-0.477-2.883-1.191
			c-1.729-0.73-4.04-1.674-6.333-2.67c-1.146-0.497-2.292-0.995-3.366-1.461c-1.075-0.456-2.075-0.906-2.917-1.332
			c-1.683-0.817-2.804-1.362-2.804-1.362s1.184,0.397,2.958,0.991c0.875,0.309,1.915,0.623,3.044,0.938
			c1.122,0.323,2.319,0.667,3.515,1.013c2.392,0.688,4.804,1.325,6.6,1.825c1.807,0.485,3.011,0.808,3.011,0.808L138.021,63.276z"/>
	</g>
	<g clip-path="url(#SVGID_2_)">
		<defs>
			<path id="SVGID_105_" d="M124.921,135.309c-0.413,0.33-0.802,0.745-1.16,1.271l3.693-2.368
				C126.613,134.583,125.769,134.95,124.921,135.309 M30.103,86.266C20.246,90.971,10.37,95.675,0,92.133
				c12.79,10.387,29.755,6.369,41.558,10.951c13.697,5.313,15.101,13.855,25.379,23.163c7.411,6.705,15.877,10.581,25.474,13.401
				c11.145,3.284,22.108,0.062,32.51-4.34c1.929-1.542,4.391-1.216,6.83-1.52c5.462-0.684,22.134-8.139,17.185-14.447
				c-2.607-3.324-8.408-3.018-13.161-2.711c-1.661,0.106-3.194,0.214-4.417,0.167c-12.645-0.499-25.647-2.709-36.174-10.124
				c-14.352-10.109-22.189-26.5-41.336-27.484c-0.412-0.021-0.823-0.031-1.234-0.031C44.984,79.159,37.549,82.712,30.103,86.266"/>
		</defs>
		<clipPath id="SVGID_106_">
			<use xlink:href="#SVGID_105_"  overflow="visible"/>
		</clipPath>
		
			<linearGradient id="SVGID_107_" gradientUnits="userSpaceOnUse" x1="0" y1="147.2241" x2="1" y2="147.2241" gradientTransform="matrix(60.4135 -60.8049 -60.8049 -60.4135 9000.1719 9034.373)">
			<stop  offset="0" style="stop-color:#B3E0FF"/>
			<stop  offset="0.4679" style="stop-color:#B0D0ED"/>
			<stop  offset="1" style="stop-color:#ABB9D3"/>
		</linearGradient>
		<polygon clip-path="url(#SVGID_106_)" fill="url(#SVGID_107_)" points="-31.886,111.252 76.446,2.218 185.771,110.84 
			77.439,219.874 		"/>
	</g>
	<g clip-path="url(#SVGID_2_)">
		<defs>
			<rect id="SVGID_108_" width="210.364" height="147.267"/>
		</defs>
		<clipPath id="SVGID_109_">
			<use xlink:href="#SVGID_108_"  overflow="visible"/>
		</clipPath>
		<g opacity="0.2" clip-path="url(#SVGID_109_)">
			<g>
				<defs>
					<rect id="SVGID_110_" x="30.751" y="86.045" width="106.824" height="46.571"/>
				</defs>
				<clipPath id="SVGID_111_">
					<use xlink:href="#SVGID_110_"  overflow="visible"/>
				</clipPath>
				<path clip-path="url(#SVGID_111_)" fill="#C397F2" d="M123.761,125.256l3.692-2.367c-0.834,0.368-1.675,0.734-2.516,1.088
					C124.52,124.31,124.123,124.723,123.761,125.256"/>
				<path clip-path="url(#SVGID_111_)" fill="#B3E0FF" d="M137.575,123.381c-2.616,0.104-5.148,0.375-6.987,0.305
					c-12.645-0.496-25.647-2.707-36.172-10.123c-14.354-10.107-22.191-26.494-41.338-27.486c-7.577-0.387-14.953,2.899-22.326,6.402
					c3.584,0.434,6.985,1.043,10.038,2.229c13.695,5.314,15.099,13.856,25.378,23.162c7.412,6.706,15.878,10.577,25.475,13.402
					c11.151,3.284,22.119,0.055,32.527-4.348c1.926-1.526,4.379-1.208,6.814-1.513C132.53,125.218,134.979,124.481,137.575,123.381"
					/>
			</g>
		</g>
	</g>
	<g clip-path="url(#SVGID_2_)">
		<defs>
			<path id="SVGID_112_" d="M60.385,19.709c-4.806,2.438,5.958,16.969,0.39,17.794c-2.724,0.434-8.063-0.572-13.726-1.579
				c-8.335-1.48-17.372-2.961-19.816,0.147c-4.11,5.215,19.246,12.113,19.786,18.914c0.501,5.601-18.61,8.351-17.596,13.638
				c2.069,10.776,22.684,6.356,29.79,8.393c10.336,2.969-2.97,8.27-6.578,9.856c-2.509,1.103-6.222,1.897-5.915,5.261
				c0.551,5.991,10.048,5.55,14.277,5.527c7.785-0.034,15.809-1.86,23.451,0.395c12.065,3.562-4.738,13.146-6.544,16.528
				c-4.684,8.778,22.574,1.368,25.472,0.576c5.384-1.479,10.392-5.002,16.067-5.345c5.653-0.342,10.459,3.296,15.347,5.594
				c2.395,1.128,8.419,4.332,9.254,0.01c0.821-4.238-7.418-10.652-9.513-13.713c-4.961-7.255-3.181-15.51-1.262-23.451
				c1.372-5.676,4.999-17.896-0.604-22.467c-3.39-2.765-6.488,0.989-9.747,4.743c-3.041,3.503-6.223,7.006-9.913,5.212
				c-4.924-2.394-3.821-12.861-4.835-17.181c-1.042-4.439-3.581-19.873-9.538-20.817c-0.581-0.09-1.178,0.042-1.788,0.434
				c-1.52,0.975-1.295,5.123-1.379,6.678c-0.222,4.056-1.368,11.912-7.065,9.426c-5.698-2.485-7.987-11.32-11.609-15.878
				c-2.967-3.732-7.748-9.523-13.039-9.523C62.649,18.881,61.522,19.134,60.385,19.709"/>
		</defs>
		<clipPath id="SVGID_113_">
			<use xlink:href="#SVGID_112_"  overflow="visible"/>
		</clipPath>
		
			<linearGradient id="SVGID_114_" gradientUnits="userSpaceOnUse" x1="0" y1="147.2476" x2="1" y2="147.2476" gradientTransform="matrix(117.3529 0 0 -117.3529 26.75 17351.043)">
			<stop  offset="0" style="stop-color:#98A3FC"/>
			<stop  offset="0.2898" style="stop-color:#BCC5FB"/>
			<stop  offset="0.57" style="stop-color:#D8DEFA"/>
			<stop  offset="0.8157" style="stop-color:#E9EEF9"/>
			<stop  offset="1" style="stop-color:#EFF3F9"/>
		</linearGradient>
		<rect x="23.123" y="18.881" clip-path="url(#SVGID_113_)" fill="url(#SVGID_114_)" width="121.742" height="104.481"/>
	</g>
	<g clip-path="url(#SVGID_2_)">
		<defs>
			<rect id="SVGID_115_" width="210.364" height="147.267"/>
		</defs>
		<clipPath id="SVGID_116_">
			<use xlink:href="#SVGID_115_"  overflow="visible"/>
		</clipPath>
		<g opacity="0.3" clip-path="url(#SVGID_116_)">
			<g>
				<defs>
					<rect id="SVGID_117_" x="59.354" y="18.882" width="84.507" height="99.951"/>
				</defs>
				<clipPath id="SVGID_118_">
					<use xlink:href="#SVGID_117_"  overflow="visible"/>
				</clipPath>
				<path clip-path="url(#SVGID_118_)" fill="#B3E0FF" d="M95.034,44.28c5.695,2.486,6.84-5.368,7.064-9.424
					c0.05-0.974-0.016-2.964,0.3-4.558c-1.018-1.387-2.184-2.341-3.524-2.553c-0.581-0.09-1.177,0.041-1.788,0.433
					c-1.525,0.975-1.296,5.123-1.38,6.678c-0.137,2.485-0.621,6.394-2.286,8.479C93.93,43.705,94.459,44.033,95.034,44.28"/>
				<path clip-path="url(#SVGID_118_)" fill="#B3E0FF" d="M61.736,37.266c2.343,0.312,4.329,0.451,5.673,0.237
					c5.565-0.825-5.196-15.356-0.392-17.794c0.088-0.045,0.176-0.077,0.262-0.119c-2.111-0.886-4.361-1.042-6.653,0.119
					C56.068,22.022,65.512,35.211,61.736,37.266"/>
				<path clip-path="url(#SVGID_118_)" fill="#B3E0FF" d="M119.637,65.743c5.314,2.58,9.575-5.816,13.88-9.381
					c-0.191-0.201-0.392-0.396-0.61-0.574c-4.927-4.018-9.237,5.732-14.323,9.237C118.899,65.309,119.248,65.556,119.637,65.743"/>
				<path clip-path="url(#SVGID_118_)" fill="#B3E0FF" d="M141.423,115.409c-4.89-2.298-9.691-5.936-15.347-5.594
					c-0.854,0.053-1.689,0.18-2.515,0.358c4.05,0.949,7.735,3.479,11.47,5.235c2.146,1.01,7.195,3.678,8.83,1.127
					C142.907,116.131,142.043,115.7,141.423,115.409"/>
				<path clip-path="url(#SVGID_118_)" fill="#B3E0FF" d="M84.537,114.583c1.805-3.382,18.608-12.964,6.543-16.528
					c-4.022-1.188-8.146-1.241-12.289-1.025c1.984,0.142,3.954,0.449,5.897,1.025c12.065,3.563-4.738,13.146-6.542,16.528
					c-2.182,4.087,2.571,4.665,8.565,4.033C84.365,118.168,83.258,116.982,84.537,114.583"/>
			</g>
		</g>
		<path clip-path="url(#SVGID_116_)" fill="#EFF3F9" d="M144.044,115.417c0,0-0.262-0.304-0.752-0.872
			c-0.483-0.572-1.246-1.369-2.172-2.414c-0.963-1.017-2.102-2.271-3.463-3.66c-1.337-1.41-2.906-2.943-4.592-4.635
			c-0.831-0.856-1.76-1.688-2.688-2.582c-0.943-0.875-1.863-1.835-2.89-2.741c-2.021-1.844-4.139-3.798-6.397-5.745
			c-1.128-0.975-2.244-1.998-3.429-2.973c-1.188-0.971-2.386-1.957-3.58-2.968c-0.6-0.503-1.201-1.007-1.805-1.513l-1.865-1.46
			c-1.246-0.976-2.497-1.956-3.748-2.936c-2.503-1.958-5.088-3.81-7.588-5.692c-2.561-1.798-5.082-3.57-7.521-5.285
			c-2.49-1.645-4.896-3.235-7.177-4.743c-0.571-0.379-1.134-0.751-1.688-1.118c-0.568-0.347-1.125-0.688-1.674-1.024
			c-1.097-0.679-2.156-1.334-3.171-1.963c-1.017-0.631-1.991-1.237-2.918-1.813c-0.914-0.597-1.805-1.125-2.654-1.599
			c-1.682-0.981-3.148-1.835-4.356-2.539c-2.405-1.444-3.779-2.268-3.779-2.268s1.475,0.619,4.043,1.749
			c1.28,0.573,2.836,1.271,4.62,2.07c1.802,0.769,3.728,1.841,5.872,2.939c2.121,1.135,4.492,2.248,6.84,3.699
			c2.372,1.41,4.913,2.84,7.456,4.457c2.507,1.668,5.149,3.324,7.744,5.136c2.549,1.876,5.188,3.719,7.737,5.68
			c1.255,1.005,2.511,2.009,3.762,3.011l1.871,1.498c0.606,0.518,1.21,1.035,1.811,1.551c2.42,2.043,4.741,4.121,6.925,6.201
			c2.236,2.021,4.254,4.131,6.194,6.096c1.927,1.98,3.678,3.919,5.27,5.728c1.585,1.816,3.008,3.505,4.213,5.049
			c1.243,1.511,2.229,2.909,3.074,4.027C143.204,114.051,144.044,115.417,144.044,115.417"/>
		<path clip-path="url(#SVGID_116_)" fill="#EFF3F9" d="M94.202,70.776c0,0,0.082-0.271,0.226-0.744
			c0.14-0.462,0.329-1.138,0.546-1.963c0.228-0.82,0.442-1.789,0.699-2.826c0.209-1.043,0.474-2.155,0.666-3.279
			c0.18-1.123,0.421-2.247,0.532-3.311c0.122-1.063,0.291-2.057,0.341-2.914c0.123-1.719,0.205-2.865,0.205-2.865
			s0.1,1.149,0.252,2.871c0.087,0.865,0.078,1.875,0.126,2.961c0.059,1.09,0,2.244-0.001,3.408c-0.011,1.164-0.099,2.32-0.142,3.414
			c-0.091,1.086-0.151,2.106-0.248,2.977c-0.087,0.871-0.169,1.602-0.241,2.122c-0.068,0.506-0.107,0.797-0.107,0.797L94.202,70.776
			z"/>
		<path clip-path="url(#SVGID_116_)" fill="#EFF3F9" d="M122.001,92.596c0,0,0.126-0.361,0.348-0.992
			c0.215-0.626,0.524-1.52,0.868-2.611c0.361-1.088,0.745-2.365,1.148-3.74c0.43-1.369,0.781-2.852,1.186-4.328
			c0.211-0.737,0.347-1.486,0.521-2.219c0.165-0.734,0.327-1.458,0.484-2.158c0.238-1.414,0.46-2.734,0.65-3.865
			c0.077-0.568,0.096-1.094,0.14-1.559c0.037-0.466,0.069-0.873,0.096-1.207c0.054-0.672,0.084-1.056,0.084-1.056
			s0.016,0.383,0.042,1.054c0.014,0.338,0.029,0.747,0.049,1.217c0.011,0.47,0.055,1.004,0.046,1.583
			c-0.056,1.159-0.12,2.512-0.189,3.96c-0.073,0.722-0.149,1.467-0.227,2.225c-0.088,0.756-0.135,1.535-0.258,2.299
			c-0.229,1.527-0.407,3.074-0.673,4.5c-0.242,1.434-0.475,2.771-0.708,3.91c-0.214,1.143-0.423,2.098-0.567,2.768
			c-0.146,0.661-0.229,1.039-0.229,1.039L122.001,92.596z"/>
		<path clip-path="url(#SVGID_116_)" fill="#EFF3F9" d="M79.791,61.876c0,0-3.321,0.05-6.631-0.067
			c-0.827-0.02-1.656-0.067-2.432-0.119c-0.774-0.034-1.499-0.123-2.116-0.188c-0.308-0.039-0.592-0.049-0.84-0.111
			c-0.248-0.051-0.463-0.095-0.641-0.131c-0.354-0.072-0.556-0.113-0.556-0.113s0.206,0.018,0.567,0.05
			c0.178,0.017,0.396,0.037,0.645,0.059c0.246,0.035,0.533,0.014,0.841,0.017c0.618-0.002,1.334,0.006,2.105-0.045
			c0.771-0.035,1.591-0.08,2.412-0.15c3.286-0.249,6.546-0.661,6.546-0.661L79.791,61.876z"/>
		<path clip-path="url(#SVGID_116_)" fill="#EFF3F9" d="M112.104,84.757c0,0-1.667-0.032-4.168-0.082
			c-2.505-0.065-5.84-0.121-9.178-0.23c-1.668-0.055-3.336-0.11-4.899-0.161c-1.561-0.041-3.023-0.103-4.276-0.197
			c-2.496-0.158-4.159-0.264-4.159-0.264s1.666-0.077,4.165-0.193c1.244-0.043,2.695-0.141,4.254-0.271
			c1.557-0.119,3.218-0.248,4.879-0.375c3.319-0.256,6.639-0.566,9.126-0.775c2.49-0.225,4.151-0.374,4.151-0.374L112.104,84.757z"
			/>
		<g opacity="0.2" clip-path="url(#SVGID_116_)">
			<g>
				<defs>
					<rect id="SVGID_119_" x="88.527" y="27.717" width="55.573" height="89.896"/>
				</defs>
				<clipPath id="SVGID_120_">
					<use xlink:href="#SVGID_119_"  overflow="visible"/>
				</clipPath>
				<path clip-path="url(#SVGID_120_)" fill="#B3E0FF" d="M133.271,78.254c1.371-5.677,4.998-17.895-0.604-22.467
					c-2.551-2.078-7.199,16.012-19.661,9.955c-4.923-2.394-3.82-12.861-4.835-17.181c-1.042-4.439-3.582-19.873-9.538-20.817
					c-0.581-0.09-1.177,0.041-1.787,0.434c-1.521,0.974-1.296,5.123-1.38,6.678c-0.218,4.021-1.353,11.787-6.937,9.476
					c7.45,22.651,36.95,28.332,10.371,71.98c2.209-0.535,3.872-0.99,4.477-1.153c5.385-1.479,10.392-5.001,16.068-5.345
					c5.654-0.342,10.459,3.296,15.348,5.594c2.395,1.128,8.418,4.333,9.253,0.009c0.821-4.237-7.418-10.651-9.513-13.712
					C129.57,94.452,131.352,86.196,133.271,78.254"/>
			</g>
		</g>
	</g>
</g>
</svg>
