<?xml version="1.0" encoding="utf-8"?>
<!-- Generator: Adobe Illustrator 16.0.0, SVG Export Plug-In . SVG Version: 6.00 Build 0)  -->
<!DOCTYPE svg PUBLIC "-//W3C//DTD SVG 1.1//EN" "http://www.w3.org/Graphics/SVG/1.1/DTD/svg11.dtd">
<svg version="1.1" id="圖層_1" xmlns="http://www.w3.org/2000/svg" xmlns:xlink="http://www.w3.org/1999/xlink" x="0px" y="0px"
	 width="350px" height="350px" viewBox="0 0 350 350" enable-background="new 0 0 350 350" xml:space="preserve">
<circle fill="#A1C6D2" cx="174.833" cy="175.167" r="172.833"/>
<g>
	<g>
		<g>
			<path fill="#FFFFFF" d="M231.18,197.961H116.569c-1.513,0-2.739-1.226-2.739-2.739v-85.348c0-0.802,0.351-1.563,0.961-2.084
				l57.306-48.916c1.024-0.875,2.531-0.875,3.555,0l57.307,48.916c0.609,0.521,0.96,1.282,0.96,2.084v85.348
				C233.919,196.735,232.692,197.961,231.18,197.961z M119.308,192.483h109.134v-81.346l-54.567-46.579l-54.566,46.579V192.483z"/>
			<path fill="#FFFFFF" d="M116.594,112.506h-15.832c-0.928,0-1.793-0.47-2.297-1.248c-0.505-0.778-0.582-1.759-0.205-2.606
				l20.029-44.918c0.441-0.988,1.421-1.624,2.502-1.624h46.929c1.513,0,2.739,1.227,2.739,2.739c0,1.513-1.226,2.739-2.739,2.739
				h-45.151l-17.587,39.44h11.612c1.513,0,2.739,1.227,2.739,2.739S118.107,112.506,116.594,112.506z"/>
			<path fill="#FFFFFF" d="M208.257,67.588h-28.485c-1.513,0-2.739-1.226-2.739-2.739c0-1.512,1.227-2.739,2.739-2.739h28.485
				c1.512,0,2.739,1.227,2.739,2.739C210.996,66.362,209.77,67.588,208.257,67.588z"/>
			<path fill="#FFFFFF" d="M247.37,112.506h-16.105c-1.512,0-2.739-1.226-2.739-2.739s1.227-2.739,2.739-2.739h11.886l-17.587-39.44
				h-5.62c-1.513,0-2.739-1.226-2.739-2.739c0-1.512,1.226-2.739,2.739-2.739h7.397c1.082,0,2.062,0.636,2.502,1.624l20.029,44.918
				c0.377,0.848,0.301,1.829-0.205,2.606C249.162,112.037,248.297,112.506,247.37,112.506z"/>
			<path fill="#FFFFFF" d="M219.539,74.123c-1.512,0-2.738-1.226-2.738-2.739V57.514h-5.815v13.869c0,1.513-1.227,2.739-2.739,2.739
				s-2.739-1.226-2.739-2.739V54.775c0-1.513,1.227-2.739,2.739-2.739h11.293c1.513,0,2.739,1.226,2.739,2.739v16.608
				C222.278,72.896,221.052,74.123,219.539,74.123z"/>
			<path fill="#FFFFFF" d="M184.642,197.961h-19.469c-1.513,0-2.739-1.226-2.739-2.739v-32.117c0-1.513,1.227-2.739,2.739-2.739
				h19.469c1.513,0,2.739,1.226,2.739,2.739v32.117C187.381,196.735,186.155,197.961,184.642,197.961z M167.912,192.483h13.991
				v-26.639h-13.991V192.483z"/>
			<path fill="#FFFFFF" d="M146.096,152.852h-12.348c-1.512,0-2.738-1.226-2.738-2.739v-12.347c0-1.513,1.226-2.739,2.738-2.739
				h12.348c1.513,0,2.739,1.227,2.739,2.739v12.347C148.835,151.625,147.608,152.852,146.096,152.852z M136.487,147.374h6.869
				v-6.869h-6.869V147.374z"/>
			<path fill="#FFFFFF" d="M146.096,128.505h-12.348c-1.512,0-2.738-1.226-2.738-2.739v-12.347c0-1.513,1.226-2.74,2.738-2.74
				h12.348c1.513,0,2.739,1.227,2.739,2.74v12.347C148.835,127.279,147.608,128.505,146.096,128.505z M136.487,123.027h6.869v-6.869
				h-6.869V123.027z"/>
			<path fill="#FFFFFF" d="M181.081,152.852h-12.347c-1.513,0-2.739-1.226-2.739-2.739v-12.347c0-1.513,1.227-2.739,2.739-2.739
				h12.347c1.513,0,2.738,1.227,2.738,2.739v12.347C183.819,151.625,182.594,152.852,181.081,152.852z M171.472,147.374h6.87v-6.869
				h-6.87V147.374z"/>
			<path fill="#FFFFFF" d="M181.081,128.505h-12.347c-1.513,0-2.739-1.226-2.739-2.739v-12.347c0-1.513,1.227-2.74,2.739-2.74
				h12.347c1.513,0,2.738,1.227,2.738,2.74v12.347C183.819,127.279,182.594,128.505,181.081,128.505z M171.472,123.027h6.87v-6.869
				h-6.87V123.027z"/>
			<path fill="#FFFFFF" d="M181.081,102.029h-12.347c-1.513,0-2.739-1.226-2.739-2.739V86.943c0-1.513,1.227-2.739,2.739-2.739
				h12.347c1.513,0,2.738,1.226,2.738,2.739V99.29C183.819,100.803,182.594,102.029,181.081,102.029z M171.472,96.551h6.87v-6.869
				h-6.87V96.551z"/>
			<path fill="#FFFFFF" d="M216.066,152.852h-12.347c-1.512,0-2.739-1.226-2.739-2.739v-12.347c0-1.513,1.227-2.739,2.739-2.739
				h12.347c1.513,0,2.739,1.227,2.739,2.739v12.347C218.805,151.625,217.579,152.852,216.066,152.852z M206.458,147.374h6.869
				v-6.869h-6.869V147.374z"/>
			<path fill="#FFFFFF" d="M146.096,178.191h-12.348c-1.512,0-2.738-1.227-2.738-2.739v-12.348c0-1.513,1.226-2.739,2.738-2.739
				h12.348c1.513,0,2.739,1.226,2.739,2.739v12.348C148.835,176.965,147.608,178.191,146.096,178.191z M136.487,172.713h6.869
				v-6.869h-6.869V172.713z"/>
			<path fill="#FFFFFF" d="M216.066,178.191h-12.347c-1.512,0-2.739-1.227-2.739-2.739v-12.348c0-1.513,1.227-2.739,2.739-2.739
				h12.347c1.513,0,2.739,1.226,2.739,2.739v12.348C218.805,176.965,217.579,178.191,216.066,178.191z M206.458,172.713h6.869
				v-6.869h-6.869V172.713z"/>
			<path fill="#FFFFFF" d="M216.066,128.505h-12.347c-1.512,0-2.739-1.226-2.739-2.739v-12.347c0-1.513,1.227-2.74,2.739-2.74
				h12.347c1.513,0,2.739,1.227,2.739,2.74v12.347C218.805,127.279,217.579,128.505,216.066,128.505z M206.458,123.027h6.869v-6.869
				h-6.869V123.027z"/>
		</g>
		<path fill="#FFFFFF" d="M258.654,197.961H87.014c-1.513,0-2.739-1.226-2.739-2.739c0-1.513,1.226-2.739,2.739-2.739h171.64
			c1.513,0,2.738,1.226,2.738,2.739C261.392,196.735,260.167,197.961,258.654,197.961z"/>
	</g>
	<g>
		<path fill="#FFFFFF" d="M96.741,196.802c-0.701,0-1.401-0.268-1.937-0.803c-2.343-2.343-3.634-5.458-3.634-8.772
			c0-5.626,3.853-10.497,9.113-11.958c1.055-4.934,5.449-8.644,10.693-8.644c2.383,0,4.648,0.753,6.551,2.178
			c1.21,0.907,1.457,2.624,0.55,3.835c-0.907,1.21-2.624,1.456-3.834,0.55c-0.948-0.71-2.077-1.085-3.267-1.085
			c-2.999,0-5.44,2.432-5.457,5.427c0.001,0.023,0.001,0.047,0.001,0.065c0,1.426-1.095,2.614-2.517,2.73
			c-3.564,0.29-6.355,3.322-6.355,6.902c0,1.851,0.721,3.59,2.029,4.899c1.07,1.069,1.07,2.804,0,3.873
			C98.143,196.534,97.442,196.802,96.741,196.802z"/>
		<path fill="#FFFFFF" d="M105.625,185.766c-0.526,0-1.058-0.151-1.526-0.467c-1.753-1.179-4.577-4.359-4.038-8.8
			c0.183-1.501,1.549-2.57,3.049-2.389c1.502,0.182,2.572,1.548,2.389,3.049c-0.271,2.23,1.638,3.582,1.657,3.594
			c1.255,0.844,1.588,2.546,0.744,3.801C107.371,185.341,106.506,185.766,105.625,185.766z"/>
	</g>
	<g>
		<path fill="#FFFFFF" d="M250.731,196.802c-0.701,0-1.402-0.268-1.937-0.803c-1.07-1.069-1.07-2.804,0-3.873
			c1.308-1.309,2.029-3.048,2.029-4.899c0-3.58-2.792-6.612-6.355-6.902c-1.422-0.116-2.517-1.304-2.517-2.73
			c0-0.019,0-0.042,0.001-0.065c-0.016-2.995-2.458-5.427-5.457-5.427c-1.189,0-2.318,0.375-3.266,1.085
			c-1.211,0.907-2.928,0.661-3.834-0.55c-0.907-1.211-0.661-2.928,0.55-3.835c1.903-1.425,4.168-2.178,6.551-2.178
			c5.244,0,9.638,3.71,10.693,8.644c5.26,1.46,9.112,6.331,9.112,11.958c0,3.313-1.291,6.429-3.634,8.772
			C252.132,196.534,251.432,196.802,250.731,196.802z"/>
		<path fill="#FFFFFF" d="M243.373,185.299l-3.058-4.545l-0.028,0.02c0.08-0.057,1.952-1.418,1.685-3.614
			c-0.183-1.501,0.887-2.867,2.388-3.049c1.502-0.181,2.867,0.888,3.05,2.389C247.95,180.939,245.126,184.12,243.373,185.299z"/>
	</g>
</g>
<text transform="matrix(1 0 0 1 52.9448 254.2188)"><tspan x="0" y="0" fill="#06182C" font-family="'MicrosoftJhengHeiRegular'" font-size="36">預售屋(新成屋) </tspan><tspan x="47.549" y="48" fill="#06182C" font-family="'MicrosoftJhengHeiRegular'" font-size="36">代理銷售</tspan></text>
<circle fill="#A1C6D2" cx="589.833" cy="175.167" r="172.833"/>
<text transform="matrix(1 0 0 1 511.4937 254.2188)"><tspan x="0" y="0" fill="#06182C" font-family="'MicrosoftJhengHeiRegular'" font-size="38">中古物件</tspan><tspan x="0" y="48" fill="#06182C" font-family="'MicrosoftJhengHeiRegular'" font-size="38">仲介買賣</tspan></text>
<circle fill="#A1C6D2" cx="1004.833" cy="175.167" r="172.833"/>
<text transform="matrix(1 0 0 1 907.4941 254.2188)"><tspan x="0" y="0" fill="#06182C" font-family="'MicrosoftJhengHeiRegular'" font-size="38">商用不動產</tspan><tspan x="19" y="48" fill="#06182C" font-family="'MicrosoftJhengHeiRegular'" font-size="38">仲介買賣</tspan></text>
<g>
	<g>
		<path fill="#FFFFFF" d="M646.476,192.322H530.334c-1.606,0-2.909-1.302-2.909-2.909V130.35c0-1.607,1.302-2.909,2.909-2.909
			c1.607,0,2.908,1.302,2.908,2.909v56.155h110.324V130.35c0-1.607,1.303-2.909,2.909-2.909c1.605,0,2.908,1.302,2.908,2.909v59.063
			C649.384,191.02,648.081,192.322,646.476,192.322z"/>
		<g>
			<path fill="#FFFFFF" d="M645.507,131.835c-7.913,0-14.352-6.365-14.352-14.189c0-1.606,1.303-2.908,2.909-2.908
				s2.909,1.302,2.909,2.908c0,4.617,3.827,8.373,8.533,8.373c4.616,0,8.372-3.756,8.372-8.373v-7.982l-22.641-19.983h-86.094
				l-20.82,19.914v8.051c0,4.617,3.756,8.373,8.373,8.373c4.616,0,8.373-3.756,8.373-8.373c0-1.606,1.301-2.908,2.908-2.908
				c1.607,0,2.909,1.302,2.909,2.908c0,7.824-6.365,14.189-14.189,14.189s-14.189-6.365-14.189-14.189v-9.294
				c0-0.794,0.324-1.553,0.898-2.102l22.562-21.58c0.541-0.518,1.261-0.807,2.01-0.807h88.362c0.708,0,1.393,0.259,1.924,0.728
				l24.45,21.58c0.625,0.552,0.983,1.347,0.983,2.181v9.294C659.696,125.47,653.33,131.835,645.507,131.835z"/>
			<path fill="#FFFFFF" d="M555.258,131.835c-7.825,0-14.189-6.365-14.189-14.189c0-1.606,1.301-2.908,2.908-2.908
				c1.607,0,2.909,1.302,2.909,2.908c0,4.617,3.756,8.373,8.373,8.373s8.373-3.756,8.373-8.373c0-1.606,1.302-2.908,2.909-2.908
				c1.606,0,2.908,1.302,2.908,2.908C569.447,125.47,563.082,131.835,555.258,131.835z"/>
			<path fill="#FFFFFF" d="M577.821,131.835c-7.825,0-14.19-6.365-14.19-14.189c0-1.606,1.302-2.908,2.909-2.908
				c1.606,0,2.908,1.302,2.908,2.908c0,4.617,3.757,8.373,8.374,8.373s8.372-3.756,8.372-8.373c0-1.606,1.302-2.908,2.908-2.908
				c1.606,0,2.909,1.302,2.909,2.908C592.01,125.47,585.645,131.835,577.821,131.835z"/>
			<path fill="#FFFFFF" d="M600.382,131.835c-7.823,0-14.189-6.365-14.189-14.189c0-1.606,1.302-2.908,2.908-2.908
				c1.606,0,2.909,1.302,2.909,2.908c0,4.617,3.756,8.373,8.372,8.373c4.568,0,8.283-3.756,8.283-8.373
				c0-1.606,1.302-2.908,2.908-2.908s2.908,1.302,2.908,2.908C614.481,125.47,608.157,131.835,600.382,131.835z"/>
			<path fill="#FFFFFF" d="M622.944,131.835c-7.873,0-14.279-6.365-14.279-14.189c0-1.606,1.302-2.908,2.908-2.908
				s2.908,1.302,2.908,2.908c0,4.617,3.797,8.373,8.463,8.373c4.605,0,8.211-3.678,8.211-8.373c0-1.606,1.303-2.908,2.909-2.908
				s2.909,1.302,2.909,2.908C636.974,125.47,630.68,131.835,622.944,131.835z"/>
		</g>
		<path fill="#FFFFFF" d="M578.612,190.783c-1.606,0-2.908-1.302-2.908-2.908v-37.614h-18.226v37.614
			c0,1.606-1.302,2.908-2.909,2.908c-1.606,0-2.908-1.302-2.908-2.908v-40.523c0-1.606,1.301-2.908,2.908-2.908h24.042
			c1.607,0,2.909,1.302,2.909,2.908v40.523C581.521,189.481,580.219,190.783,578.612,190.783z"/>
		<path fill="#FFFFFF" d="M621.316,169.348h-19.002c-1.606,0-2.909-1.302-2.909-2.908v-19.002c0-1.606,1.303-2.908,2.909-2.908
			h19.002c1.606,0,2.909,1.302,2.909,2.908v19.002C624.226,168.045,622.923,169.348,621.316,169.348z M605.223,163.531h13.186
			v-13.186h-13.186V163.531z"/>
		<path fill="#FFFFFF" d="M544.1,120.596c-1.605,0-2.908-1.302-2.908-2.909v-9.837c0-0.576,0.17-1.139,0.49-1.617l3.204-4.791
			c0.894-1.335,2.7-1.694,4.035-0.801c1.335,0.893,1.694,2.699,0.801,4.034l-2.712,4.057v8.955
			C547.009,119.293,545.706,120.596,544.1,120.596z"/>
		<path fill="#FFFFFF" d="M566.591,120.596c-1.606,0-2.908-1.302-2.908-2.909v-9.837c0-0.28,0.04-0.558,0.119-0.826l1.419-4.791
			c0.457-1.54,2.075-2.419,3.614-1.962c1.541,0.456,2.419,2.074,1.963,3.615l-1.299,4.386v9.416
			C569.5,119.293,568.197,120.596,566.591,120.596z"/>
		<path fill="#FFFFFF" d="M634.064,120.596c-1.606,0-2.909-1.302-2.909-2.909v-8.918l-2.836-4.038
			c-0.923-1.314-0.605-3.128,0.709-4.052c1.313-0.923,3.128-0.606,4.051,0.708l3.365,4.791c0.344,0.49,0.529,1.074,0.529,1.672
			v9.837C636.974,119.293,635.671,120.596,634.064,120.596z"/>
		<path fill="#FFFFFF" d="M611.573,120.596c-1.606,0-2.908-1.302-2.908-2.909v-9.377l-1.412-4.353
			c-0.496-1.527,0.341-3.168,1.868-3.664c1.528-0.496,3.168,0.341,3.664,1.869l1.555,4.791c0.095,0.29,0.142,0.593,0.142,0.897
			v9.837C614.481,119.293,613.18,120.596,611.573,120.596z"/>
		<path fill="#FFFFFF" d="M589.082,120.596c-1.606,0-2.908-1.302-2.908-2.909v-14.735c0-1.606,1.301-2.909,2.908-2.909
			s2.909,1.302,2.909,2.909v14.735C591.991,119.293,590.688,120.596,589.082,120.596z"/>
	</g>
	<path fill="#FFFFFF" d="M678.077,192.528H502.026c-1.607,0-2.908-1.302-2.908-2.908c0-1.606,1.301-2.909,2.908-2.909h176.051
		c1.606,0,2.908,1.302,2.908,2.909C680.985,191.226,679.684,192.528,678.077,192.528z"/>
	<g>
		<path fill="#FFFFFF" d="M668.19,191.934c-0.745,0-1.489-0.284-2.057-0.852c-1.137-1.135-1.137-2.978,0-4.113
			c1.354-1.354,2.1-3.154,2.1-5.069c0-3.704-2.889-6.841-6.577-7.141c-1.525-0.125-2.694-1.412-2.671-2.944
			c0-0.007,0-0.015,0.001-0.024c-0.019-3.092-2.539-5.602-5.635-5.602c-1.229,0-2.395,0.387-3.374,1.12
			c-1.285,0.963-3.108,0.702-4.071-0.584s-0.701-3.108,0.585-4.071c1.992-1.493,4.365-2.281,6.86-2.281
			c5.48,0,10.074,3.87,11.191,9.021c5.488,1.539,9.507,6.629,9.507,12.507c0,3.469-1.352,6.729-3.804,9.182
			C669.679,191.65,668.935,191.934,668.19,191.934z"/>
		<path fill="#FFFFFF" d="M660.549,179.935l-3.245-4.826l-0.031,0.021c0.082-0.058,2.01-1.461,1.735-3.717
			c-0.194-1.594,0.941-3.044,2.535-3.238c1.599-0.192,3.045,0.942,3.238,2.536C665.348,175.365,662.387,178.699,660.549,179.935z"/>
	</g>
	<g>
		<path fill="#FFFFFF" d="M509.259,191.934c-0.745,0-1.489-0.284-2.057-0.852c-2.453-2.453-3.803-5.713-3.803-9.182
			c0-5.877,4.018-10.968,9.506-12.507c1.118-5.151,5.711-9.021,11.193-9.021c2.495,0,4.867,0.789,6.86,2.281
			c1.285,0.963,1.548,2.786,0.584,4.071c-0.963,1.286-2.785,1.546-4.071,0.584c-0.978-0.733-2.145-1.12-3.373-1.12
			c-3.097,0-5.618,2.51-5.636,5.603c0.001,0.024,0.001,0.049,0.001,0.068c0,1.515-1.162,2.776-2.672,2.899
			c-3.688,0.3-6.577,3.437-6.577,7.141c0,1.915,0.746,3.715,2.101,5.069c1.136,1.135,1.136,2.978,0,4.113
			C510.748,191.65,510.003,191.934,509.259,191.934z"/>
		<path fill="#FFFFFF" d="M518.52,180.43c-0.558,0-1.122-0.16-1.62-0.496c-1.838-1.236-4.797-4.569-4.232-9.224
			c0.194-1.594,1.645-2.729,3.238-2.536c1.595,0.193,2.731,1.644,2.537,3.238c-0.279,2.293,1.684,3.683,1.704,3.696
			c1.333,0.896,1.687,2.704,0.79,4.036C520.374,179.979,519.455,180.43,518.52,180.43z"/>
	</g>
</g>
<g>
	<g>
		<path fill="#FFFFFF" d="M958.244,199.844c-1.437,0-2.601-1.165-2.601-2.601v-73.681c0-1.436,1.164-2.601,2.601-2.601h8.842v-9.535
			c0-1.437,1.164-2.601,2.602-2.601h22.536c1.437,0,2.6,1.164,2.6,2.601v9.535h8.322c1.438,0,2.602,1.165,2.602,2.601
			s-1.164,2.601-2.602,2.601h-10.922c-1.437,0-2.601-1.165-2.601-2.601v-9.535h-17.337v9.535c0,1.436-1.163,2.601-2.599,2.601
			h-8.843v71.08C960.845,198.68,959.681,199.844,958.244,199.844z"/>
		<path fill="#FFFFFF" d="M975.754,139.687h-15.949c-1.436,0-2.601-1.165-2.601-2.601c0-1.437,1.165-2.601,2.601-2.601h15.949
			c1.437,0,2.602,1.164,2.602,2.601C978.355,138.522,977.19,139.687,975.754,139.687z"/>
		<path fill="#FFFFFF" d="M989.971,139.687h-2.427c-1.438,0-2.602-1.165-2.602-2.601c0-1.437,1.164-2.601,2.602-2.601h2.427
			c1.436,0,2.601,1.164,2.601,2.601C992.571,138.522,991.406,139.687,989.971,139.687z"/>
		<path fill="#FFFFFF" d="M975.754,153.555h-15.949c-1.436,0-2.601-1.164-2.601-2.6s1.165-2.601,2.601-2.601h15.949
			c1.437,0,2.602,1.165,2.602,2.601S977.19,153.555,975.754,153.555z"/>
		<path fill="#FFFFFF" d="M989.971,153.555h-2.427c-1.438,0-2.602-1.164-2.602-2.6s1.164-2.601,2.602-2.601h2.427
			c1.436,0,2.601,1.165,2.601,2.601S991.406,153.555,989.971,153.555z"/>
		<path fill="#FFFFFF" d="M936.4,199.844c-1.437,0-2.601-1.165-2.601-2.601v-32.246c0-1.429,1.153-2.59,2.582-2.601l23.403-0.174
			h15.969c1.437,0,2.602,1.165,2.602,2.601c0,1.437-1.165,2.601-2.602,2.601h-15.949L939,167.579v29.665
			C939,198.68,937.836,199.844,936.4,199.844z"/>
		<path fill="#FFFFFF" d="M989.971,167.424h-2.427c-1.438,0-2.602-1.164-2.602-2.601c0-1.436,1.164-2.601,2.602-2.601h2.427
			c1.436,0,2.601,1.165,2.601,2.601C992.571,166.26,991.406,167.424,989.971,167.424z"/>
		<path fill="#FFFFFF" d="M975.754,181.294h-15.949c-1.436,0-2.601-1.165-2.601-2.601s1.165-2.6,2.601-2.6h15.949
			c1.437,0,2.602,1.164,2.602,2.6S977.19,181.294,975.754,181.294z"/>
		<path fill="#FFFFFF" d="M989.971,181.294h-2.427c-1.438,0-2.602-1.165-2.602-2.601s1.164-2.6,2.602-2.6h2.427
			c1.436,0,2.601,1.164,2.601,2.6S991.406,181.294,989.971,181.294z"/>
	</g>
	<g>
		<path fill="#FFFFFF" d="M1050.995,199.844c-1.437,0-2.601-1.165-2.601-2.601V92.481l-39.968-30.177v134.841
			c0,1.437-1.165,2.601-2.601,2.601c-1.437,0-2.601-1.164-2.601-2.601V57.082c0-0.986,0.559-1.888,1.44-2.328
			c0.885-0.439,1.939-0.342,2.727,0.252l45.17,34.104c0.65,0.491,1.032,1.259,1.032,2.075v106.058
			C1053.595,198.68,1052.432,199.844,1050.995,199.844z"/>
		<path fill="#FFFFFF" d="M1032.619,101.893h-15.951c-1.436,0-2.6-1.165-2.6-2.601c0-1.437,1.164-2.601,2.6-2.601h15.951
			c1.436,0,2.6,1.164,2.6,2.601C1035.219,100.728,1034.055,101.893,1032.619,101.893z"/>
		<path fill="#FFFFFF" d="M1032.619,117.495h-15.951c-1.436,0-2.6-1.164-2.6-2.601c0-1.436,1.164-2.601,2.6-2.601h15.951
			c1.436,0,2.6,1.165,2.6,2.601C1035.219,116.331,1034.055,117.495,1032.619,117.495z"/>
		<path fill="#FFFFFF" d="M1032.619,133.098h-15.951c-1.436,0-2.6-1.165-2.6-2.601s1.164-2.601,2.6-2.601h15.951
			c1.436,0,2.6,1.165,2.6,2.601S1034.055,133.098,1032.619,133.098z"/>
		<path fill="#FFFFFF" d="M1032.619,148.701h-15.951c-1.436,0-2.6-1.164-2.6-2.6c0-1.437,1.164-2.601,2.6-2.601h15.951
			c1.436,0,2.6,1.164,2.6,2.601C1035.219,147.537,1034.055,148.701,1032.619,148.701z"/>
		<path fill="#FFFFFF" d="M1032.619,164.304h-15.951c-1.436,0-2.6-1.164-2.6-2.6s1.164-2.6,2.6-2.6h15.951
			c1.436,0,2.6,1.164,2.6,2.6S1034.055,164.304,1032.619,164.304z"/>
		<path fill="#FFFFFF" d="M1032.619,179.907h-15.951c-1.436,0-2.6-1.164-2.6-2.601c0-1.436,1.164-2.6,2.6-2.6h15.951
			c1.436,0,2.6,1.164,2.6,2.6C1035.219,178.743,1034.055,179.907,1032.619,179.907z"/>
	</g>
	<path fill="#FFFFFF" d="M1078.733,200.364H924.438c-1.437,0-2.601-1.165-2.601-2.601s1.164-2.601,2.601-2.601h154.296
		c1.438,0,2.602,1.165,2.602,2.601S1080.171,200.364,1078.733,200.364z"/>
	<path fill="#FFFFFF" d="M930.354,143.988"/>
	<path fill="#FFFFFF" d="M1068.506,199.844c-1.437,0-2.602-1.165-2.602-2.601v-45.769h-14.909c-1.437,0-2.601-1.165-2.601-2.601
		s1.164-2.601,2.601-2.601h17.511c1.436,0,2.601,1.165,2.601,2.601v48.369C1071.106,198.68,1069.941,199.844,1068.506,199.844z"/>
</g>
<circle fill="#AEC38C" cx="174.833" cy="590.167" r="172.833"/>
<text transform="matrix(1 0 0 1 96.4937 699.2188)" fill="#06182C" font-family="'MicrosoftJhengHeiRegular'" font-size="38">招租募集</text>
<circle fill="#AEC38C" cx="589.833" cy="590.167" r="172.833"/>
<text transform="matrix(1 0 0 1 492.4937 699.2188)" fill="#06182C" font-family="'MicrosoftJhengHeiRegular'" font-size="38">收支報告書</text>
<circle fill="#AEC38C" cx="1004.833" cy="590.167" r="172.833"/>
<text transform="matrix(1 0 0 1 926.4941 699.2188)" fill="#06182C" font-family="'MicrosoftJhengHeiRegular'" font-size="38">日常對應</text>
<g>
	<g>
		<path fill="#FFFFFF" d="M646.476,607.322H530.334c-1.606,0-2.909-1.302-2.909-2.909V545.35c0-1.607,1.302-2.909,2.909-2.909
			c1.607,0,2.908,1.302,2.908,2.909v56.155h110.324V545.35c0-1.607,1.303-2.909,2.909-2.909c1.605,0,2.908,1.302,2.908,2.909v59.063
			C649.384,606.02,648.081,607.322,646.476,607.322z"/>
		<g>
			<path fill="#FFFFFF" d="M645.507,546.835c-7.913,0-14.352-6.365-14.352-14.189c0-1.606,1.303-2.908,2.909-2.908
				s2.909,1.302,2.909,2.908c0,4.617,3.827,8.373,8.533,8.373c4.616,0,8.372-3.756,8.372-8.373v-7.982l-22.641-19.983h-86.094
				l-20.82,19.914v8.051c0,4.617,3.756,8.373,8.373,8.373c4.616,0,8.373-3.756,8.373-8.373c0-1.606,1.301-2.908,2.908-2.908
				c1.607,0,2.909,1.302,2.909,2.908c0,7.824-6.365,14.189-14.189,14.189s-14.189-6.365-14.189-14.189v-9.294
				c0-0.794,0.324-1.553,0.898-2.102l22.562-21.58c0.541-0.518,1.261-0.807,2.01-0.807h88.362c0.708,0,1.393,0.259,1.924,0.728
				l24.45,21.58c0.625,0.552,0.983,1.347,0.983,2.181v9.294C659.696,540.47,653.33,546.835,645.507,546.835z"/>
			<path fill="#FFFFFF" d="M555.258,546.835c-7.825,0-14.189-6.365-14.189-14.189c0-1.606,1.301-2.908,2.908-2.908
				c1.607,0,2.909,1.302,2.909,2.908c0,4.617,3.756,8.373,8.373,8.373s8.373-3.756,8.373-8.373c0-1.606,1.302-2.908,2.909-2.908
				c1.606,0,2.908,1.302,2.908,2.908C569.447,540.47,563.082,546.835,555.258,546.835z"/>
			<path fill="#FFFFFF" d="M577.821,546.835c-7.825,0-14.19-6.365-14.19-14.189c0-1.606,1.302-2.908,2.909-2.908
				c1.606,0,2.908,1.302,2.908,2.908c0,4.617,3.757,8.373,8.374,8.373s8.372-3.756,8.372-8.373c0-1.606,1.302-2.908,2.908-2.908
				c1.606,0,2.909,1.302,2.909,2.908C592.01,540.47,585.645,546.835,577.821,546.835z"/>
			<path fill="#FFFFFF" d="M600.382,546.835c-7.823,0-14.189-6.365-14.189-14.189c0-1.606,1.302-2.908,2.908-2.908
				c1.606,0,2.909,1.302,2.909,2.908c0,4.617,3.756,8.373,8.372,8.373c4.568,0,8.283-3.756,8.283-8.373
				c0-1.606,1.302-2.908,2.908-2.908s2.908,1.302,2.908,2.908C614.481,540.47,608.157,546.835,600.382,546.835z"/>
			<path fill="#FFFFFF" d="M622.944,546.835c-7.873,0-14.279-6.365-14.279-14.189c0-1.606,1.302-2.908,2.908-2.908
				s2.908,1.302,2.908,2.908c0,4.617,3.797,8.373,8.463,8.373c4.605,0,8.211-3.678,8.211-8.373c0-1.606,1.303-2.908,2.909-2.908
				s2.909,1.302,2.909,2.908C636.974,540.47,630.68,546.835,622.944,546.835z"/>
		</g>
		<path fill="#FFFFFF" d="M578.612,605.783c-1.606,0-2.908-1.302-2.908-2.908v-37.614h-18.226v37.614
			c0,1.606-1.302,2.908-2.909,2.908c-1.606,0-2.908-1.302-2.908-2.908v-40.523c0-1.606,1.301-2.908,2.908-2.908h24.042
			c1.607,0,2.909,1.302,2.909,2.908v40.523C581.521,604.481,580.219,605.783,578.612,605.783z"/>
		<path fill="#FFFFFF" d="M621.316,584.348h-19.002c-1.606,0-2.909-1.302-2.909-2.908v-19.002c0-1.606,1.303-2.908,2.909-2.908
			h19.002c1.606,0,2.909,1.302,2.909,2.908v19.002C624.226,583.045,622.923,584.348,621.316,584.348z M605.223,578.531h13.186
			v-13.186h-13.186V578.531z"/>
		<path fill="#FFFFFF" d="M544.1,535.596c-1.605,0-2.908-1.302-2.908-2.909v-9.837c0-0.576,0.17-1.139,0.49-1.617l3.204-4.791
			c0.894-1.335,2.7-1.694,4.035-0.801c1.335,0.893,1.694,2.699,0.801,4.034l-2.712,4.057v8.955
			C547.009,534.293,545.706,535.596,544.1,535.596z"/>
		<path fill="#FFFFFF" d="M566.591,535.596c-1.606,0-2.908-1.302-2.908-2.909v-9.837c0-0.28,0.04-0.558,0.119-0.826l1.419-4.791
			c0.457-1.54,2.075-2.419,3.614-1.962c1.541,0.456,2.419,2.074,1.963,3.615l-1.299,4.386v9.416
			C569.5,534.293,568.197,535.596,566.591,535.596z"/>
		<path fill="#FFFFFF" d="M634.064,535.596c-1.606,0-2.909-1.302-2.909-2.909v-8.918l-2.836-4.038
			c-0.923-1.314-0.605-3.128,0.709-4.052c1.313-0.923,3.128-0.606,4.051,0.708l3.365,4.791c0.344,0.49,0.529,1.074,0.529,1.672
			v9.837C636.974,534.293,635.671,535.596,634.064,535.596z"/>
		<path fill="#FFFFFF" d="M611.573,535.596c-1.606,0-2.908-1.302-2.908-2.909v-9.377l-1.412-4.353
			c-0.496-1.527,0.341-3.168,1.868-3.664c1.528-0.496,3.168,0.341,3.664,1.869l1.555,4.791c0.095,0.29,0.142,0.593,0.142,0.897
			v9.837C614.481,534.293,613.18,535.596,611.573,535.596z"/>
		<path fill="#FFFFFF" d="M589.082,535.596c-1.606,0-2.908-1.302-2.908-2.909v-14.735c0-1.606,1.301-2.909,2.908-2.909
			s2.909,1.302,2.909,2.909v14.735C591.991,534.293,590.688,535.596,589.082,535.596z"/>
	</g>
	<path fill="#FFFFFF" d="M678.077,607.528H502.026c-1.607,0-2.908-1.302-2.908-2.908c0-1.606,1.301-2.909,2.908-2.909h176.051
		c1.606,0,2.908,1.302,2.908,2.909C680.985,606.226,679.684,607.528,678.077,607.528z"/>
	<g>
		<path fill="#FFFFFF" d="M668.19,606.934c-0.745,0-1.489-0.284-2.057-0.852c-1.137-1.135-1.137-2.978,0-4.113
			c1.354-1.354,2.1-3.154,2.1-5.069c0-3.704-2.889-6.841-6.577-7.141c-1.525-0.125-2.694-1.412-2.671-2.944
			c0-0.007,0-0.015,0.001-0.024c-0.019-3.092-2.539-5.602-5.635-5.602c-1.229,0-2.395,0.387-3.374,1.12
			c-1.285,0.963-3.108,0.702-4.071-0.584s-0.701-3.108,0.585-4.071c1.992-1.493,4.365-2.281,6.86-2.281
			c5.48,0,10.074,3.87,11.191,9.021c5.488,1.539,9.507,6.629,9.507,12.507c0,3.469-1.352,6.729-3.804,9.182
			C669.679,606.65,668.935,606.934,668.19,606.934z"/>
		<path fill="#FFFFFF" d="M660.549,594.935l-3.245-4.826l-0.031,0.021c0.082-0.058,2.01-1.461,1.735-3.717
			c-0.194-1.594,0.941-3.044,2.535-3.238c1.599-0.192,3.045,0.942,3.238,2.536C665.348,590.365,662.387,593.699,660.549,594.935z"/>
	</g>
	<g>
		<path fill="#FFFFFF" d="M509.259,606.934c-0.745,0-1.489-0.284-2.057-0.852c-2.453-2.453-3.803-5.713-3.803-9.182
			c0-5.877,4.018-10.968,9.506-12.507c1.118-5.151,5.711-9.021,11.193-9.021c2.495,0,4.867,0.789,6.86,2.281
			c1.285,0.963,1.548,2.786,0.584,4.071c-0.963,1.286-2.785,1.546-4.071,0.584c-0.978-0.733-2.145-1.12-3.373-1.12
			c-3.097,0-5.618,2.51-5.636,5.603c0.001,0.024,0.001,0.049,0.001,0.068c0,1.515-1.162,2.776-2.672,2.899
			c-3.688,0.3-6.577,3.437-6.577,7.141c0,1.915,0.746,3.715,2.101,5.069c1.136,1.135,1.136,2.978,0,4.113
			C510.748,606.65,510.003,606.934,509.259,606.934z"/>
		<path fill="#FFFFFF" d="M518.52,595.43c-0.558,0-1.122-0.16-1.62-0.496c-1.838-1.236-4.797-4.569-4.232-9.224
			c0.194-1.594,1.645-2.729,3.238-2.536c1.595,0.193,2.731,1.644,2.537,3.238c-0.279,2.293,1.684,3.683,1.704,3.696
			c1.333,0.896,1.687,2.704,0.79,4.036C520.374,594.979,519.455,595.43,518.52,595.43z"/>
	</g>
</g>
<g>
	<g>
		<path fill="#FFFFFF" d="M958.244,614.844c-1.437,0-2.601-1.165-2.601-2.601v-73.681c0-1.436,1.164-2.601,2.601-2.601h8.842v-9.535
			c0-1.437,1.164-2.601,2.602-2.601h22.536c1.437,0,2.6,1.164,2.6,2.601v9.535h8.322c1.438,0,2.602,1.165,2.602,2.601
			s-1.164,2.601-2.602,2.601h-10.922c-1.437,0-2.601-1.165-2.601-2.601v-9.535h-17.337v9.535c0,1.436-1.163,2.601-2.599,2.601
			h-8.843v71.08C960.845,613.68,959.681,614.844,958.244,614.844z"/>
		<path fill="#FFFFFF" d="M975.754,554.687h-15.949c-1.436,0-2.601-1.165-2.601-2.601c0-1.437,1.165-2.601,2.601-2.601h15.949
			c1.437,0,2.602,1.164,2.602,2.601C978.355,553.522,977.19,554.687,975.754,554.687z"/>
		<path fill="#FFFFFF" d="M989.971,554.687h-2.427c-1.438,0-2.602-1.165-2.602-2.601c0-1.437,1.164-2.601,2.602-2.601h2.427
			c1.436,0,2.601,1.164,2.601,2.601C992.571,553.522,991.406,554.687,989.971,554.687z"/>
		<path fill="#FFFFFF" d="M975.754,568.555h-15.949c-1.436,0-2.601-1.164-2.601-2.6s1.165-2.601,2.601-2.601h15.949
			c1.437,0,2.602,1.165,2.602,2.601S977.19,568.555,975.754,568.555z"/>
		<path fill="#FFFFFF" d="M989.971,568.555h-2.427c-1.438,0-2.602-1.164-2.602-2.6s1.164-2.601,2.602-2.601h2.427
			c1.436,0,2.601,1.165,2.601,2.601S991.406,568.555,989.971,568.555z"/>
		<path fill="#FFFFFF" d="M936.4,614.844c-1.437,0-2.601-1.165-2.601-2.601v-32.246c0-1.429,1.153-2.59,2.582-2.601l23.403-0.174
			h15.969c1.437,0,2.602,1.165,2.602,2.601c0,1.437-1.165,2.601-2.602,2.601h-15.949L939,582.579v29.665
			C939,613.68,937.836,614.844,936.4,614.844z"/>
		<path fill="#FFFFFF" d="M989.971,582.424h-2.427c-1.438,0-2.602-1.164-2.602-2.601c0-1.436,1.164-2.601,2.602-2.601h2.427
			c1.436,0,2.601,1.165,2.601,2.601C992.571,581.26,991.406,582.424,989.971,582.424z"/>
		<path fill="#FFFFFF" d="M975.754,596.294h-15.949c-1.436,0-2.601-1.165-2.601-2.601s1.165-2.6,2.601-2.6h15.949
			c1.437,0,2.602,1.164,2.602,2.6S977.19,596.294,975.754,596.294z"/>
		<path fill="#FFFFFF" d="M989.971,596.294h-2.427c-1.438,0-2.602-1.165-2.602-2.601s1.164-2.6,2.602-2.6h2.427
			c1.436,0,2.601,1.164,2.601,2.6S991.406,596.294,989.971,596.294z"/>
	</g>
	<g>
		<path fill="#FFFFFF" d="M1050.995,614.844c-1.437,0-2.601-1.165-2.601-2.601V507.481l-39.968-30.177v134.841
			c0,1.437-1.165,2.601-2.601,2.601c-1.437,0-2.601-1.164-2.601-2.601V472.082c0-0.986,0.559-1.888,1.44-2.328
			c0.885-0.439,1.939-0.342,2.727,0.252l45.17,34.104c0.65,0.491,1.032,1.259,1.032,2.075v106.058
			C1053.595,613.68,1052.432,614.844,1050.995,614.844z"/>
		<path fill="#FFFFFF" d="M1032.619,516.893h-15.951c-1.436,0-2.6-1.165-2.6-2.601c0-1.437,1.164-2.601,2.6-2.601h15.951
			c1.436,0,2.6,1.164,2.6,2.601C1035.219,515.728,1034.055,516.893,1032.619,516.893z"/>
		<path fill="#FFFFFF" d="M1032.619,532.495h-15.951c-1.436,0-2.6-1.164-2.6-2.601c0-1.436,1.164-2.601,2.6-2.601h15.951
			c1.436,0,2.6,1.165,2.6,2.601C1035.219,531.331,1034.055,532.495,1032.619,532.495z"/>
		<path fill="#FFFFFF" d="M1032.619,548.098h-15.951c-1.436,0-2.6-1.165-2.6-2.601s1.164-2.601,2.6-2.601h15.951
			c1.436,0,2.6,1.165,2.6,2.601S1034.055,548.098,1032.619,548.098z"/>
		<path fill="#FFFFFF" d="M1032.619,563.701h-15.951c-1.436,0-2.6-1.164-2.6-2.6c0-1.437,1.164-2.601,2.6-2.601h15.951
			c1.436,0,2.6,1.164,2.6,2.601C1035.219,562.537,1034.055,563.701,1032.619,563.701z"/>
		<path fill="#FFFFFF" d="M1032.619,579.304h-15.951c-1.436,0-2.6-1.164-2.6-2.6s1.164-2.6,2.6-2.6h15.951
			c1.436,0,2.6,1.164,2.6,2.6S1034.055,579.304,1032.619,579.304z"/>
		<path fill="#FFFFFF" d="M1032.619,594.907h-15.951c-1.436,0-2.6-1.164-2.6-2.601c0-1.436,1.164-2.6,2.6-2.6h15.951
			c1.436,0,2.6,1.164,2.6,2.6C1035.219,593.743,1034.055,594.907,1032.619,594.907z"/>
	</g>
	<path fill="#FFFFFF" d="M1078.733,615.364H924.438c-1.437,0-2.601-1.165-2.601-2.601s1.164-2.601,2.601-2.601h154.296
		c1.438,0,2.602,1.165,2.602,2.601S1080.171,615.364,1078.733,615.364z"/>
	<path fill="#FFFFFF" d="M930.354,558.988"/>
	<path fill="#FFFFFF" d="M1068.506,614.844c-1.437,0-2.602-1.165-2.602-2.601v-45.769h-14.909c-1.437,0-2.601-1.165-2.601-2.601
		s1.164-2.601,2.601-2.601h17.511c1.436,0,2.601,1.165,2.601,2.601v48.369C1071.106,613.68,1069.941,614.844,1068.506,614.844z"/>
</g>
<g>
	<path fill="#FFFFFF" d="M205.473,586.923c-2.884,0-5.513-1.695-6.704-4.315l-34-74.838c-1.676-3.692-0.034-8.06,3.654-9.735
		l7.461-3.39c3.606-1.636,8.115,0.074,9.739,3.653l34,74.839c1.68,3.689,0.042,8.058-3.651,9.737l-7.464,3.391
		C207.544,586.701,206.519,586.923,205.473,586.923z M178.926,499.269c-0.296,0-0.585,0.063-0.853,0.188l-7.461,3.39
		c-1.04,0.473-1.501,1.7-1.033,2.739l34.001,74.837c0.457,1.005,1.717,1.493,2.742,1.029l7.464-3.39
		c1.036-0.473,1.498-1.701,1.026-2.739l-34.001-74.84C180.475,499.746,179.738,499.269,178.926,499.269z"/>
	<path fill="#FFFFFF" d="M204.592,549.075c-1.005,0-1.962-0.575-2.409-1.55c-0.599-1.329-0.014-2.896,1.314-3.5l5.761-2.615
		c1.246-0.566,2.195-1.583,2.678-2.865c0.481-1.282,0.434-2.674-0.131-3.919l-0.86-1.9c-0.568-1.246-1.587-2.195-2.867-2.677
		c-1.283-0.477-2.674-0.432-3.919,0.134l-5.761,2.615c-1.328,0.603-2.898,0.016-3.5-1.314c-0.603-1.328-0.018-2.896,1.314-3.5
		l5.758-2.616c2.532-1.147,5.361-1.242,7.963-0.269c2.605,0.976,4.673,2.908,5.822,5.441l0.86,1.898
		c1.149,2.531,1.246,5.36,0.269,7.963c-0.978,2.605-2.908,4.671-5.44,5.823l-5.758,2.615
		C205.328,549,204.956,549.075,204.592,549.075z"/>
	<path fill="#FFFFFF" d="M131.828,593.394c-0.313,0-0.626-0.057-0.929-0.168c-0.654-0.246-1.185-0.744-1.474-1.382l-15.902-35.001
		c-0.292-0.639-0.313-1.365-0.068-2.022c0.244-0.656,0.743-1.187,1.38-1.476c34.654-15.743,46.561-36.048,50.074-44.046
		c0.582-1.338,2.138-1.956,3.479-1.357c1.339,0.587,1.948,2.146,1.359,3.481c-3.672,8.366-15.851,29.275-50.329,45.622l13.734,30.23
		c36.667-15.875,63.605-9.683,68.723-8.254c1.408,0.392,2.227,1.851,1.834,3.257c-0.392,1.406-1.844,2.232-3.258,1.833
		c-4.918-1.376-31.299-7.411-67.529,9.047C132.578,593.315,132.203,593.394,131.828,593.394z"/>
	<path fill="#FFFFFF" d="M115.957,599.062c-8.376,0-16.398-4.802-20.084-12.912c-5.021-11.055-0.11-24.137,10.943-29.163
		l8.019-3.645c1.335-0.599,2.897-0.016,3.503,1.314c0.599,1.329,0.015,2.896-1.314,3.5l-8.021,3.643
		c-8.4,3.818-12.131,13.762-8.317,22.164c3.819,8.4,13.758,12.129,22.162,8.316l8.025-3.645c1.328-0.604,2.891-0.016,3.496,1.314
		c0.605,1.329,0.014,2.896-1.314,3.5l-8.019,3.643C122.089,598.429,118.999,599.062,115.957,599.062z"/>
	<path fill="#FFFFFF" d="M160.336,630.4c-2.952,0-5.837-1.335-7.757-3.792l-25.531-32.653c-0.898-1.149-0.695-2.812,0.455-3.709
		c1.152-0.898,2.808-0.695,3.709,0.454l25.528,32.651c1.308,1.672,3.571,2.228,5.499,1.349c1.287-0.585,2.216-1.705,2.553-3.076
		c0.338-1.372,0.031-2.796-0.836-3.908l-12.289-15.756c-2.563-3.288-3.444-8.238-2.291-12.918c1.084-4.409,3.778-7.877,7.388-9.517
		c1.335-0.603,2.897-0.01,3.504,1.314c0.599,1.33,0.014,2.896-1.315,3.5c-2.13,0.965-3.75,3.14-4.445,5.965
		c-0.758,3.096-0.241,6.394,1.328,8.404l12.292,15.756c1.869,2.399,2.526,5.469,1.797,8.421c-0.723,2.955-2.726,5.369-5.499,6.626
		C163.106,630.111,161.713,630.4,160.336,630.4z"/>
</g>
<path fill="#FFFFFF" d="M233.337,545.375c-0.217,0-0.444-0.027-0.664-0.084c-1.411-0.367-2.265-1.809-1.896-3.221
	c1.601-6.174,0.785-12.55-2.295-17.954c-3.077-5.406-8.143-9.36-14.268-11.136c-1.404-0.406-2.21-1.872-1.804-3.273
	c0.402-1.404,1.879-2.218,3.27-1.803c7.46,2.159,13.634,6.989,17.399,13.597c3.758,6.604,4.763,14.38,2.814,21.894
	C235.584,544.586,234.511,545.375,233.337,545.375z"/>
<path fill="#FFFFFF" d="M252.01,542.934c-0.231,0-0.462-0.029-0.692-0.091c-1.41-0.382-2.243-1.833-1.861-3.242
	c2.629-9.72,1.397-19.775-3.473-28.318c-4.862-8.545-12.884-14.738-22.582-17.436c-1.407-0.393-2.229-1.848-1.838-3.256
	c0.39-1.405,1.846-2.227,3.256-1.837c11.054,3.077,20.201,10.148,25.762,19.913c5.562,9.763,6.973,21.238,3.979,32.314
	C254.243,542.16,253.176,542.934,252.01,542.934z"/>
<circle fill="#D4B156" cx="174.833" cy="1005.168" r="172.833"/>
<text transform="matrix(1 0 0 1 96.4937 1114.2188)" fill="#06182C" font-family="'MicrosoftJhengHeiRegular'" font-size="38">空室管理</text>
<circle fill="#D4B156" cx="589.833" cy="1005.168" r="172.833"/>
<text transform="matrix(1 0 0 1 473.4937 1114.2188)" fill="#06182C" font-family="'MicrosoftJhengHeiRegular'" font-size="38">在日生活協助</text>
<circle fill="#D4B156" cx="1004.833" cy="1005.168" r="172.833"/>
<text transform="matrix(1 0 0 1 892.4941 1114.2188)" fill="#06182C" font-family="'MicrosoftJhengHeiRegular'" font-size="38">室內設計諮詢</text>
<circle fill="#988BB8" cx="174.833" cy="1420.168" r="172.833"/>
<text transform="matrix(1 0 0 1 58.4937 1529.2188)" fill="#06182C" font-family="'MicrosoftJhengHeiRegular'" font-size="38">成立在日法人</text>
<circle fill="#988BB8" cx="589.833" cy="1420.168" r="172.833"/>
<text transform="matrix(1 0 0 1 511.4937 1529.2188)" fill="#06182C" font-family="'MicrosoftJhengHeiRegular'" font-size="38">投資顧問</text>
<circle fill="#988BB8" cx="1004.833" cy="1420.168" r="172.833"/>
<text transform="matrix(1 0 0 1 926.4941 1489.2188)"><tspan x="0" y="0" fill="#06182C" font-family="'MicrosoftJhengHeiRegular'" font-size="38">稅理士與</tspan><tspan x="0" y="48" fill="#06182C" font-family="'MicrosoftJhengHeiRegular'" font-size="38">銀行介紹</tspan></text>
<g>
	<path fill="#FFFFFF" d="M1071.543,1344.407H940.139c-1.733,0-3.138-1.405-3.138-3.143c0-1.728,1.404-3.138,3.138-3.138h131.404
		c1.732,0,3.137,1.41,3.137,3.138C1074.68,1343.002,1073.275,1344.407,1071.543,1344.407z"/>
	<path fill="#FFFFFF" d="M1070.112,1333.73H941.561c-1.439,0-2.695-0.983-3.044-2.383c-0.349-1.396,0.298-2.854,1.571-3.529
		l64.28-34.18c0.919-0.493,2.026-0.493,2.945,0l64.271,34.18c1.274,0.676,1.92,2.133,1.572,3.529
		C1072.806,1332.747,1071.552,1333.73,1070.112,1333.73z M954.147,1327.447h103.381l-51.688-27.483L954.147,1327.447z"/>
	<path fill="#FFFFFF" d="M1068.044,1410.943H943.63c-1.733,0-3.137-1.405-3.137-3.138c0-1.731,1.403-3.136,3.137-3.136h124.414
		c1.732,0,3.137,1.404,3.137,3.136C1071.181,1409.538,1069.776,1410.943,1068.044,1410.943z"/>
	<path fill="#FFFFFF" d="M1075.212,1423.063H936.461c-1.733,0-3.137-1.408-3.137-3.137c0-1.736,1.403-3.142,3.137-3.142h138.751
		c1.733,0,3.137,1.405,3.137,3.142C1078.349,1421.654,1076.945,1423.063,1075.212,1423.063z"/>
	<path fill="#FFFFFF" d="M1083.215,1435.183H928.466c-1.732,0-3.137-1.409-3.137-3.142s1.404-3.143,3.137-3.143h154.749
		c1.732,0,3.137,1.41,3.137,3.143S1084.947,1435.183,1083.215,1435.183z"/>
	<path fill="#FFFFFF" d="M952.758,1410.943c-1.734,0-3.139-1.405-3.139-3.138v-66.209c0-1.736,1.404-3.142,3.139-3.142
		c1.73,0,3.137,1.405,3.137,3.142v66.209C955.895,1409.538,954.488,1410.943,952.758,1410.943z"/>
	<path fill="#FFFFFF" d="M968.745,1410.943c-1.731,0-3.137-1.405-3.137-3.138v-66.209c0-1.736,1.405-3.142,3.137-3.142
		c1.732,0,3.137,1.405,3.137,3.142v66.209C971.882,1409.538,970.478,1410.943,968.745,1410.943z"/>
	<path fill="#FFFFFF" d="M996.645,1410.943c-1.731,0-3.137-1.405-3.137-3.138v-66.209c0-1.736,1.405-3.142,3.137-3.142
		c1.733,0,3.138,1.405,3.138,3.142v66.209C999.782,1409.538,998.378,1410.943,996.645,1410.943z"/>
	<path fill="#FFFFFF" d="M1012.634,1410.943c-1.733,0-3.138-1.405-3.138-3.138v-66.209c0-1.736,1.404-3.142,3.138-3.142
		c1.734,0,3.14,1.405,3.14,3.142v66.209C1015.773,1409.538,1014.368,1410.943,1012.634,1410.943z"/>
	<path fill="#FFFFFF" d="M1040.526,1410.943c-1.732,0-3.137-1.405-3.137-3.138v-66.209c0-1.736,1.404-3.142,3.137-3.142
		c1.731,0,3.137,1.405,3.137,3.142v66.209C1043.663,1409.538,1042.258,1410.943,1040.526,1410.943z"/>
	<path fill="#FFFFFF" d="M1056.523,1410.943c-1.731,0-3.137-1.405-3.137-3.138v-66.209c0-1.736,1.405-3.142,3.137-3.142
		c1.732,0,3.137,1.405,3.137,3.142v66.209C1059.66,1409.538,1058.256,1410.943,1056.523,1410.943z"/>
</g>
<path fill="#FFFFFF" d="M595.534,1456.655c-1.521,0-2.854-1.11-3.083-2.659c-0.256-1.709,0.922-3.295,2.625-3.551
	c7.585-1.13,18.071-3.925,24.958-10.807c8.242-8.244,13.999-21.855,13.999-33.104v-43.256c0-10.964-5.367-23.142-13.999-31.776
	c-8.636-8.636-20.812-14.003-31.781-14.003h-6.344c-10.97,0-23.142,5.367-31.777,14.003c-8.636,8.642-14.003,20.813-14.003,31.776
	v43.256c0,1.725-1.397,3.12-3.121,3.12c-1.724,0-3.121-1.396-3.121-3.12v-43.256c0-12.558,6.063-26.427,15.831-36.189
	c9.758-9.768,23.629-15.831,36.19-15.831h6.344c12.566,0,26.437,6.063,36.194,15.831c9.764,9.763,15.828,23.629,15.828,36.189
	v43.256c0,12.973-6.357,28.051-15.828,37.515c-6.399,6.404-16.236,10.75-28.447,12.57
	C595.844,1456.646,595.687,1456.655,595.534,1456.655z"/>
<path fill="#FFFFFF" d="M603.149,1381.839c-3.567,0-6.468-2.903-6.468-6.467c0-3.57,2.9-6.473,6.468-6.473
	c3.564,0,6.467,2.902,6.467,6.473C609.616,1378.936,606.714,1381.839,603.149,1381.839z M567.019,1381.839
	c-3.572,0-6.472-2.903-6.472-6.467c0-3.57,2.9-6.473,6.472-6.473c3.565,0,6.467,2.902,6.467,6.473
	C573.485,1378.936,570.583,1381.839,567.019,1381.839z"/>
<path fill="#FFFFFF" d="M585.014,1419.626c-11.037,0-20.481-6.176-22.977-15.015c-0.466-1.66,0.5-3.384,2.16-3.854
	c1.669-0.449,3.383,0.5,3.855,2.161c1.706,6.063,8.843,10.464,16.962,10.464s15.254-4.4,16.961-10.464
	c0.466-1.661,2.182-2.61,3.855-2.161c1.66,0.47,2.624,2.193,2.159,3.854C605.494,1413.45,596.051,1419.626,585.014,1419.626z
	 M638.529,1410.338c-1.613,0-2.985-1.246-3.108-2.883c-0.132-1.722,1.157-3.22,2.877-3.351
	c10.418-0.801,18.585-10.259,18.585-21.532c0-11.279-8.167-20.736-18.585-21.537c-1.72-0.133-3.009-1.629-2.877-3.351
	c0.132-1.719,1.648-3.032,3.351-2.875c13.657,1.046,24.353,13.24,24.353,27.763c0,14.518-10.695,26.712-24.353,27.756
	C638.691,1410.338,638.609,1410.338,638.529,1410.338z M531.497,1410.338c-0.081,0-0.162,0-0.241-0.01
	c-13.66-1.044-24.353-13.238-24.353-27.756c0-14.522,10.693-26.717,24.353-27.763c1.715-0.157,3.219,1.156,3.35,2.875
	c0.13,1.722-1.157,3.218-2.876,3.351c-10.417,0.801-18.583,10.258-18.583,21.537c0,11.273,8.166,20.731,18.583,21.532
	c1.72,0.131,3.007,1.629,2.876,3.351C534.482,1409.092,533.11,1410.338,531.497,1410.338z"/>
<path fill="#FFFFFF" d="M585.014,1467.243c-7.5,0-13.6-6.1-13.6-13.601c0-7.5,6.099-13.598,13.6-13.598
	c7.5,0,13.599,6.098,13.599,13.598C598.612,1461.144,592.514,1467.243,585.014,1467.243z M585.014,1446.286
	c-4.058,0-7.356,3.3-7.356,7.356c0,4.059,3.299,7.357,7.356,7.357c4.057,0,7.357-3.299,7.357-7.357
	C592.371,1449.586,589.071,1446.286,585.014,1446.286z"/>
<path fill="#FFFFFF" d="M532.085,1362.302c-1.453,0-2.753-1.017-3.054-2.499c-0.348-1.689,0.745-3.338,2.435-3.68
	c14.26-2.906,26.437-11.949,33.408-24.803c0.475-0.871,1.334-1.468,2.322-1.601c0.977-0.145,1.978,0.208,2.667,0.919
	c9.36,9.677,21.925,15.006,35.377,15.006c8.5,0,16.876-2.203,24.229-6.369c1.508-0.853,3.413-0.323,4.257,1.172
	c0.851,1.503,0.326,3.41-1.173,4.258c-8.293,4.7-17.738,7.181-27.313,7.181c-13.798,0-26.767-4.972-36.941-14.089
	c-8.073,12.62-20.841,21.438-35.587,24.441C532.505,1362.284,532.292,1362.302,532.085,1362.302z"/>
<g>
	<path fill="#FFFFFF" d="M239.055,1475.864h-128.11c-1.471,0-2.662-1.192-2.662-2.663c0-1.47,1.191-2.663,2.662-2.663h128.11
		c1.471,0,2.663,1.193,2.663,2.663C241.718,1474.672,240.525,1475.864,239.055,1475.864z"/>
	<path fill="#FFFFFF" d="M199.988,1475.864c-1.471,0-2.663-1.192-2.663-2.663v-125.447h-72.811v125.447
		c0,1.471-1.192,2.663-2.663,2.663c-1.47,0-2.662-1.192-2.662-2.663v-128.11c0-1.47,1.192-2.662,2.662-2.662h78.137
		c1.471,0,2.663,1.192,2.663,2.662v128.11C202.651,1474.672,201.459,1475.864,199.988,1475.864z"/>
	<path fill="#FFFFFF" d="M228.144,1472.168c-1.471,0-2.662-1.192-2.662-2.663v-100.373h-23.759c-1.471,0-2.663-1.192-2.663-2.663
		c0-1.47,1.192-2.663,2.663-2.663h26.421c1.471,0,2.663,1.193,2.663,2.663v103.036
		C230.807,1470.976,229.614,1472.168,228.144,1472.168z"/>
	<path fill="#FFFFFF" d="M168.122,1474.26c-1.471,0-2.662-1.192-2.662-2.663v-8.978h-9.08v8.978c0,1.471-1.191,2.663-2.662,2.663
		s-2.663-1.192-2.663-2.663v-11.641c0-1.471,1.192-2.662,2.663-2.662h14.404c1.471,0,2.663,1.191,2.663,2.662v11.641
		C170.785,1473.067,169.593,1474.26,168.122,1474.26z"/>
	<path fill="#FFFFFF" d="M188.297,1361.487h-54.754c-1.47,0-2.662-1.193-2.662-2.663c0-1.471,1.192-2.663,2.662-2.663h54.754
		c1.471,0,2.663,1.192,2.663,2.663C190.96,1360.294,189.768,1361.487,188.297,1361.487z"/>
	<path fill="#FFFFFF" d="M213.583,1391.835c-1.47,0-2.662-1.191-2.662-2.662v-6.627c0-1.471,1.192-2.662,2.662-2.662
		c1.471,0,2.663,1.191,2.663,2.662v6.627C216.246,1390.644,215.054,1391.835,213.583,1391.835z"/>
	<path fill="#FFFFFF" d="M213.583,1414.17c-1.47,0-2.662-1.192-2.662-2.663v-6.625c0-1.471,1.192-2.663,2.662-2.663
		c1.471,0,2.663,1.192,2.663,2.663v6.625C216.246,1412.978,215.054,1414.17,213.583,1414.17z"/>
	<path fill="#FFFFFF" d="M213.583,1436.505c-1.47,0-2.662-1.191-2.662-2.662v-6.627c0-1.471,1.192-2.662,2.662-2.662
		c1.471,0,2.663,1.191,2.663,2.662v6.627C216.246,1435.313,215.054,1436.505,213.583,1436.505z"/>
	<path fill="#FFFFFF" d="M213.583,1458.837c-1.47,0-2.662-1.193-2.662-2.663v-6.622c0-1.471,1.192-2.663,2.662-2.663
		c1.471,0,2.663,1.192,2.663,2.663v6.622C216.246,1457.644,215.054,1458.837,213.583,1458.837z"/>
	<path fill="#FFFFFF" d="M188.297,1374.45h-54.754c-1.47,0-2.662-1.193-2.662-2.663c0-1.471,1.192-2.663,2.662-2.663h54.754
		c1.471,0,2.663,1.192,2.663,2.663C190.96,1373.257,189.768,1374.45,188.297,1374.45z"/>
	<path fill="#FFFFFF" d="M188.297,1387.405h-54.754c-1.47,0-2.662-1.191-2.662-2.662s1.192-2.663,2.662-2.663h54.754
		c1.471,0,2.663,1.192,2.663,2.663S189.768,1387.405,188.297,1387.405z"/>
	<path fill="#FFFFFF" d="M188.297,1400.368h-54.754c-1.47,0-2.662-1.191-2.662-2.662s1.192-2.662,2.662-2.662h54.754
		c1.471,0,2.663,1.191,2.663,2.662S189.768,1400.368,188.297,1400.368z"/>
	<path fill="#FFFFFF" d="M188.297,1413.328h-54.754c-1.47,0-2.662-1.192-2.662-2.663c0-1.47,1.192-2.662,2.662-2.662h54.754
		c1.471,0,2.663,1.192,2.663,2.662C190.96,1412.136,189.768,1413.328,188.297,1413.328z"/>
	<path fill="#FFFFFF" d="M188.297,1426.288h-54.754c-1.47,0-2.662-1.192-2.662-2.663c0-1.47,1.192-2.663,2.662-2.663h54.754
		c1.471,0,2.663,1.193,2.663,2.663C190.96,1425.096,189.768,1426.288,188.297,1426.288z"/>
	<path fill="#FFFFFF" d="M188.297,1439.247h-54.754c-1.47,0-2.662-1.191-2.662-2.662s1.192-2.663,2.662-2.663h54.754
		c1.471,0,2.663,1.192,2.663,2.663S189.768,1439.247,188.297,1439.247z"/>
	<path fill="#FFFFFF" d="M188.297,1452.206h-54.754c-1.47,0-2.662-1.191-2.662-2.662s1.192-2.662,2.662-2.662h54.754
		c1.471,0,2.663,1.191,2.663,2.662S189.768,1452.206,188.297,1452.206z"/>
	<path fill="#FFFFFF" d="M143.323,1465.351h-10.116c-1.47,0-2.662-1.192-2.662-2.662c0-1.471,1.192-2.664,2.662-2.664h10.116
		c1.471,0,2.663,1.193,2.663,2.664C145.986,1464.158,144.794,1465.351,143.323,1465.351z"/>
	<path fill="#FFFFFF" d="M188.297,1465.351h-10.116c-1.471,0-2.662-1.192-2.662-2.662c0-1.471,1.191-2.664,2.662-2.664h10.116
		c1.471,0,2.663,1.193,2.663,2.664C190.96,1464.158,189.768,1465.351,188.297,1465.351z"/>
	<path fill="#FFFFFF" d="M190.746,1322.149h-49.37c-1.471,0-2.662-1.192-2.662-2.662v-29.012c0-1.471,1.191-2.663,2.662-2.663h49.37
		c1.471,0,2.663,1.192,2.663,2.663v29.012C193.409,1320.957,192.217,1322.149,190.746,1322.149z M144.039,1316.823h44.045v-23.686
		h-44.045V1316.823z"/>
	<circle fill="#FFFFFF" cx="166.06" cy="1304.981" r="7.309"/>
	<path fill="#FFFFFF" d="M141.376,1347.754c-1.471,0-2.662-1.192-2.662-2.663v-54.615c0-1.471,1.191-2.663,2.662-2.663
		s2.663,1.192,2.663,2.663v54.615C144.039,1346.562,142.847,1347.754,141.376,1347.754z"/>
</g>
<g>
	<path fill="#FFFFFF" d="M238.152,1052.104H108.945c-1.426,0-2.583-1.157-2.583-2.583V900.933c0-1.425,1.158-2.583,2.583-2.583
		h129.207c1.426,0,2.584,1.158,2.584,2.583v25.842h-5.167v-23.257h-124.04v143.42h124.04v-68.479h5.167v71.063
		C240.736,1050.947,239.578,1052.104,238.152,1052.104z"/>
	<path fill="#FFFFFF" d="M122.068,1039.275c-1.426,0-2.581-1.154-2.581-2.58l-0.204-122.839c-0.004-0.684,0.268-1.343,0.753-1.829
		c0.486-0.486,1.143-0.757,1.83-0.757h103.365c1.426,0,2.583,1.157,2.583,2.584v25.841h-5.167v-23.258h-98.196l0.196,117.668
		l98-0.085v-68.484h5.167v71.064c0,1.426-1.154,2.583-2.581,2.583l-103.163,0.092H122.068z"/>
	<path fill="#FFFFFF" d="M199.39,990.731c-0.979,0-1.874-0.553-2.312-1.429l-5-9.993l-9.994-5c-0.877-0.439-1.429-1.335-1.429-2.313
		s0.552-1.874,1.429-2.313l9.994-5l5-9.992c0.876-1.755,3.748-1.755,4.624,0l5,9.992l9.993,5c0.877,0.438,1.43,1.335,1.43,2.313
		s-0.552,1.873-1.43,2.313l-9.993,5l-5,9.993C201.264,990.179,200.369,990.731,199.39,990.731z M189.015,971.997l6.145,3.072
		c0.502,0.253,0.906,0.656,1.158,1.158l3.073,6.145l3.072-6.145c0.252-0.502,0.656-0.905,1.158-1.158l6.145-3.072l-6.145-3.073
		c-0.501-0.251-0.905-0.655-1.158-1.156l-3.072-6.146l-3.073,6.146c-0.252,0.501-0.656,0.905-1.158,1.156L189.015,971.997z"/>
	<path fill="#FFFFFF" d="M238.152,974.581c-0.977,0-1.874-0.553-2.312-1.43l-6.076-12.147l-12.147-6.076
		c-0.877-0.438-1.429-1.334-1.429-2.312s0.552-1.874,1.429-2.313l12.147-6.074l6.076-12.148c0.877-1.753,3.748-1.753,4.625,0
		l6.075,12.148l12.148,6.074c0.877,0.439,1.429,1.336,1.429,2.313s-0.552,1.874-1.429,2.312l-12.148,6.076l-6.075,12.147
		C240.026,974.028,239.13,974.581,238.152,974.581z M224.55,952.616l8.295,4.148c0.502,0.252,0.906,0.655,1.159,1.157l4.147,8.296
		l4.148-8.296c0.252-0.502,0.656-0.905,1.158-1.157l8.296-4.148l-8.296-4.148c-0.502-0.252-0.905-0.656-1.158-1.158l-4.148-8.296
		l-4.147,8.296c-0.253,0.502-0.657,0.906-1.159,1.158L224.55,952.616z"/>
	<rect x="170.965" y="913.854" fill="#FFFFFF" width="5.167" height="122.746"/>
	<rect x="158.044" y="968.768" fill="#FFFFFF" width="5.167" height="22.61"/>
</g>
<g>
	<path fill="#FFFFFF" d="M586.592,1047.371c-4.314,0.006-7.943-0.658-10.19-1.79c-7.113-1.849-12.786-3.653-17.806-5.252
		c-12.713-4.05-20.412-6.483-35.559-4.544c-1.973,0.245-3.715-1.119-3.96-3.057c-0.249-1.94,1.119-3.71,3.058-3.96
		c16.735-2.15,25.441,0.623,38.611,4.818c5.026,1.599,10.728,3.417,17.845,5.251c0.326,0.086,0.638,0.215,0.932,0.388
		c3.191,1.901,17.767,1.969,28.841-5.029l57.415-36.271c1.611-0.834,1.809-2.015,1.809-2.658c0.005-0.979-0.479-2.27-1.833-2.961
		c-2.667-1.363-7.371,0.062-12.555,3.825c-1.276,0.921-3.004,0.897-4.248-0.063c-1.242-0.965-1.699-2.635-1.124-4.099
		c1.01-2.548,0.99-4.732-0.052-5.563c-1.286-1.031-4.608-0.786-8.874,2.132l-3.657,2.5c-1.07,0.74-2.485,0.816-3.638,0.217
		c-1.162-0.604-1.892-1.805-1.896-3.115c-0.009-1.45-0.289-2.511-0.725-2.77c-0.705-0.422-3.552-0.451-9.162,2.534l-21.637,11.505
		c-1.728,0.926-3.868,0.254-4.784-1.465c-0.916-1.723-0.264-3.868,1.464-4.784l21.637-11.505c7.029-3.739,12.454-4.55,16.111-2.362
		c0.979,0.582,2.054,1.522,2.869,3.021c6.302-4.1,12.666-4.666,16.702-1.436c1.8,1.431,2.908,3.407,3.307,5.721
		c6.645-2.961,11.131-1.8,13.477-0.596c3.52,1.792,5.703,5.348,5.698,9.268c-0.004,3.802-2.021,7.089-5.4,8.804l-57.121,36.101
		C604.014,1045.312,594.224,1047.371,586.592,1047.371z"/>
	<path fill="#FFFFFF" d="M591.703,1020.287c-11.884,0-22.246-4.607-34.038-10.645c-1.738-0.889-2.429-3.02-1.535-4.762
		c0.887-1.737,3.013-2.42,4.761-1.536c20.667,10.583,32.478,13.55,52.056,4.608c1.415-0.553,3.408-1.589,3.147-3.269
		c-0.153-0.993-1.017-1.873-1.886-1.925c-4.741-0.283-8.578-0.355-11.846-0.418c-13.231-0.249-18.18-0.34-34.849-12.689
		l-14.287-10.588c-1.536-1.137-7.747-2.05-13.665,0.37l-26.368,10.718c-1.8,0.729-3.878-0.135-4.613-1.945
		c-0.733-1.813,0.135-3.878,1.945-4.611l26.368-10.718c7.19-2.923,16.213-2.707,20.547,0.504l14.288,10.588
		c14.85,10.995,18.219,11.063,30.769,11.298c3.351,0.063,7.277,0.141,12.135,0.427c4.229,0.25,7.785,3.576,8.455,7.906
		c0.567,3.661-1.073,8.438-7.396,10.87C606.696,1018.588,598.923,1020.287,591.703,1020.287z"/>
	<path fill="#FFFFFF" d="M630.396,961.979h-89.433c-1.953,0-3.537-1.583-3.537-3.536v-52.556c0-1.954,1.583-3.537,3.537-3.537
		h89.433c1.954,0,3.539,1.583,3.539,3.537v52.556C633.935,960.396,632.35,961.979,630.396,961.979z M544.5,954.904h82.359v-45.48
		H544.5V954.904z"/>
	<path fill="#FFFFFF" d="M598.916,932.158c0,7.32-5.921,13.243-13.241,13.243c-7.31,0-13.242-5.923-13.242-13.243
		c0-7.304,5.932-13.235,13.242-13.235C592.995,918.923,598.916,924.854,598.916,932.158z"/>
	<path fill="#FFFFFF" d="M540.962,905.887"/>
</g>
<g>
	<g>
		<g>
			<rect x="1035.479" y="920.813" fill="#FFFFFF" width="9.386" height="3.09"/>
			<path fill="#FFFFFF" d="M1045.667,924.706h-10.992v-4.697h10.992V924.706z M1036.282,923.099h7.778v-1.482h-7.778V923.099z"/>
		</g>
	</g>
	<g>
		<g>
			<path fill="#FFFFFF" d="M1072.945,1046.612H940.722c-1.494,0-2.703-1.209-2.703-2.703V904.637c0-1.494,1.209-2.703,2.703-2.703
				h132.224c1.494,0,2.703,1.209,2.703,2.703v139.272C1075.648,1045.403,1074.439,1046.612,1072.945,1046.612z M943.425,1041.202
				h126.817V907.344H943.425V1041.202z"/>
			<path fill="#FFFFFF" d="M1072.945,1047.416H940.722c-1.935,0-3.507-1.572-3.507-3.507V904.637c0-1.935,1.572-3.507,3.507-3.507
				h132.224c1.935,0,3.507,1.572,3.507,3.507v139.272C1076.452,1045.844,1074.88,1047.416,1072.945,1047.416z M940.722,902.737
				c-1.049,0-1.9,0.851-1.9,1.899v139.272c0,1.049,0.852,1.9,1.9,1.9h132.224c1.049,0,1.898-0.852,1.898-1.9V904.637
				c0-1.049-0.85-1.899-1.898-1.899H940.722z M1071.046,1042.007H942.622V906.54h128.424V1042.007z M944.229,1040.398h125.209
				V908.147H944.229V1040.398z"/>
		</g>
	</g>
	<g>
		<g>
			<rect x="969.083" y="920.813" fill="#FFFFFF" width="9.384" height="3.09"/>
			<path fill="#FFFFFF" d="M979.271,924.706h-10.992v-4.697h10.992V924.706z M969.887,923.099h7.777v-1.482h-7.777V923.099z"/>
		</g>
	</g>
	<g>
		<g>
			<rect x="1035.479" y="955.318" fill="#FFFFFF" width="9.386" height="3.09"/>
			<path fill="#FFFFFF" d="M1045.667,959.212h-10.992v-4.697h10.992V959.212z M1036.282,957.604h7.778v-1.482h-7.778V957.604z"/>
		</g>
	</g>
	<g>
		<g>
			<rect x="969.083" y="955.318" fill="#FFFFFF" width="9.384" height="3.09"/>
			<path fill="#FFFFFF" d="M979.271,959.212h-10.992v-4.697h10.992V959.212z M969.887,957.604h7.777v-1.482h-7.777V957.604z"/>
		</g>
	</g>
	<g>
		<g>
			<rect x="1035.479" y="989.824" fill="#FFFFFF" width="9.386" height="3.089"/>
			<path fill="#FFFFFF" d="M1045.667,993.718h-10.992v-4.697h10.992V993.718z M1036.282,992.109h7.778v-1.481h-7.778V992.109z"/>
		</g>
	</g>
	<g>
		<g>
			<rect x="969.083" y="989.824" fill="#FFFFFF" width="9.384" height="3.089"/>
			<path fill="#FFFFFF" d="M979.271,993.718h-10.992v-4.697h10.992V993.718z M969.887,992.109h7.777v-1.481h-7.777V992.109z"/>
		</g>
	</g>
	<g>
		<g>
			<rect x="1005.287" y="906.967" fill="#FFFFFF" width="3.09" height="136.942"/>
			<path fill="#FFFFFF" d="M1009.18,1044.713h-4.696V906.162h4.696V1044.713z M1006.092,1043.104h1.481V907.771h-1.481V1043.104z"/>
		</g>
	</g>
	<g>
		<g>
			<rect x="940.722" y="937.911" fill="#FFFFFF" width="132.224" height="3.09"/>
			<path fill="#FFFFFF" d="M1073.749,941.806H939.918v-4.697h133.831V941.806z M941.525,940.197h130.615v-1.481H941.525V940.197z"/>
		</g>
	</g>
	<g>
		<g>
			<rect x="940.722" y="972.729" fill="#FFFFFF" width="132.224" height="3.089"/>
			<path fill="#FFFFFF" d="M1073.749,976.621H939.918v-4.696h133.831V976.621z M941.525,975.013h130.615v-1.481H941.525V975.013z"/>
		</g>
	</g>
</g>
</svg>
